<?xml version="1.0" encoding="utf-8"?>
<!-- Generator: Adobe Illustrator 22.0.0, SVG Export Plug-In . SVG Version: 6.00 Build 0)  -->
<svg version="1.1" id="Layer_1" xmlns="http://www.w3.org/2000/svg" xmlns:xlink="http://www.w3.org/1999/xlink" x="0px" y="0px"
	 viewBox="0 0 230 60" style="enable-background:new 0 0 230 60;" xml:space="preserve">
<style type="text/css">
	.st0{fill:#0D1725;}
	.st1{fill:#264D9D;}
</style>
<g>
	<g>
		<path class="st0" d="M53.3,44.7c1.1-2.6,1.4-5.6,0.5-8.8l0-0.1c-0.8-2.7-2.5-5.1-4.9-6.9c-3.4-2.6-8.1-4.5-13-5.1
			c1.5,1.5,2.5,3.6,2.6,5.9c0,0,0,0,0,0c0,0.1,0,0.2,0,0.3c0,4.9-4,8.8-8.8,8.8h-4.9v0H10.3c-2.7,0-4.9,2.2-4.9,4.9v9.6
			c0,2.7,2.2,4.9,4.9,4.9h14.4v0h3.4c0.2,0,0.4,0,0.6,0c0.2,0,0.4,0,0.6,0l0,0c0.1,0,0.2,0,0.4,0c0.1,0,0.2,0,0.2,0
			c1.6-0.1,1.6-0.1,1.7-0.1c3.9-0.3,7.6-1.3,11.1-3.1C47.2,52.7,51.4,49.1,53.3,44.7z"/>
		<path class="st1" d="M57.8,27.2c-0.6-6.4-3.4-12.4-8-17.1C44.5,4.9,37.5,1.9,30,1.8c-0.1,0-0.3,0-0.3,0c-0.1,0-0.3,0-0.4,0h0
			c-0.2,0-0.4,0-0.6,0c-0.2,0-0.4,0-0.6,0c0,0-3.3,0-3.3,0H10.2C7.5,1.8,5.4,4,5.4,6.7v4v14.5v4c0,2.7,2.2,4.9,4.9,4.9h9.6
			c2.7,0,4.9-2.2,4.9-4.9v-4V25c0.1-0.5,0.3-1,0.5-1.4c0.6-1,1.7-1.7,2.8-2.1c10.3-3.6,24.6,3,27.7,13.7l0,0.1
			c0.1,0.2,0.5,1.8,0.6,3.9c0.5-1.4,0.9-3,1.2-4.6c0.1-0.5,0.2-1,0.2-1.6c0-0.1,0-0.1,0-0.2c0-0.1,0-0.2,0-0.4c0-0.1,0-0.2,0-0.3
			c0-0.1,0-0.2,0-0.3c0-0.1,0-0.2,0-0.3c0-0.1,0-0.2,0-0.3c0-0.1,0-0.3,0-0.4c0-0.1,0-0.2,0-0.2c0-0.2,0-0.4,0-0.6
			C57.9,29.1,57.9,28.1,57.8,27.2z"/>
	</g>
	<g>
		<path class="st0" d="M157.2,18.4h-4.1c-1.6,0-3,1.5-3,3.3v24.8c0,1.8,1.3,3.3,3,3.3h4.1c1.6,0,3-1.5,3-3.3V21.7
			C160.2,19.9,158.9,18.4,157.2,18.4z"/>
		<path class="st0" d="M75.1,18.4H71c-1.6,0-3,1.5-3,3.3v24.8c0,1.8,1.3,3.3,3,3.3h4.1c1.6,0,3-1.5,3-3.3V21.7
			C78.1,19.9,76.7,18.4,75.1,18.4z"/>
		<path class="st0" d="M109.2,19h-3.8c-1.2,0-2.3,1-2.3,2.3v12.2l-9.6-13.4c0,0-0.1-0.1-0.1-0.1c-0.4-0.6-1-1-1.7-1h-4.3
			c-1.1,0-2,0.9-2,2v25.5c0,1.1,0.9,2,2,2h4.3c1.1,0,2-0.9,2-2V34.7l9.7,13.5c0.2,0.3,1.6,1,2,1h3.8c1.2,0,2.3-1,2.3-2.3V21.2
			C111.4,20,110.4,19,109.2,19z"/>
		<path class="st0" d="M227.6,32.9c-0.3-3.5-1.9-6.7-4.4-9.3c-2.9-2.9-6.6-4.5-10.7-4.5c0,0-0.2,0-0.2,0c-0.1,0-0.1,0-0.2,0h0
			c-0.1,0-0.2,0-0.3,0c-0.1,0-0.2,0-0.3,0h-1.8v0h-7.9c-1.5,0-2.7,1.2-2.7,2.7v2.2v7.9v2.2c0,1.5,1.2,2.7,2.7,2.7c0,0,5.2,0,5.2,0
			c0.9,0,1.8-0.5,2.2-1.3c0.7-1,0.3-2.2,0.4-3.3c0.1-1.6,1.7-2.4,3.2-2.4c0.2,0,0.3,0,0.5,0c0.5,0.1,0.9,0.3,1.3,0.5c0,0,0,0-0.1,0
			c1.5,0.8,2.5,2.3,2.6,4.1c0,0,0,0,0,0c0,0,0,0.1,0,0.2c0,2.6-2.1,4.8-4.8,4.8h-2.7v0h-7.9c-1.5,0-2.6,1.2-2.6,2.7V47
			c0,1.5,1.2,2.6,2.6,2.6h7.8v0h1.8c0.1,0,0.2,0,0.3,0c0.1,0,0.2,0,0.3,0h0c0.1,0,0.1,0,0.2,0c0,0,0.1,0,0.1,0c0.9,0,0.9,0,0.9,0
			c4.5-0.3,8.4-2.5,11-5.9c0,0,0,0,0,0c0,0,0,0,0,0c0,0,0.2-0.2,0.4-0.5c0.6-0.9,1.2-1.9,1.6-2.9c0.4-1,0.8-2.2,1-3.4
			c0-0.3,0.1-0.6,0.1-0.8c0,0,0-0.1,0-0.1c0-0.1,0-0.1,0-0.2c0,0,0-0.1,0-0.1c0-0.1,0-0.1,0-0.2c0-0.1,0-0.1,0-0.2
			c0-0.1,0-0.1,0-0.2c0-0.1,0-0.1,0-0.2c0,0,0-0.1,0-0.1c0-0.1,0-0.2,0-0.3h0C227.7,33.9,227.7,33.4,227.6,32.9z"/>
		<path class="st0" d="M196.4,46.6l-10.2-26.4c-0.3-0.8-1-1.2-1.8-1.2h-7c-0.8,0-1.5,0.5-1.8,1.2l-10.2,26.4
			c-0.5,1.3,0.5,2.7,1.8,2.7h5.5c0.8,0,1.5-0.5,1.8-1.3l0.6-1.5c0.3-0.8,1-1.3,1.8-1.3h4.2v0h1.2c0.7,0,1.2-0.7,1-1.4l-1.1-3.8
			c-0.1-0.4-0.6-0.8-1-0.8h-1.2v0h-1.4c-0.5,0-0.9-0.5-0.7-1l2.3-5.9c0.2-0.6,1.1-0.6,1.4,0l1.5,4l0.7,1.9c0,0.1,2.1,6.2,3,8.8
			l0.4,0.9c0.3,0.8,1,1.3,1.8,1.3h5.5C196,49.3,196.9,47.9,196.4,46.6z"/>
		<path class="st0" d="M132.8,18.9h-12.8c-1,0-1.8,0.8-1.8,1.8v26.8c0,1,0.8,1.8,1.8,1.8h5c1,0,1.8-0.8,1.8-1.8v-5.6c0,0,0,0,0,0
			V30.6c0,0,0,0,0,0v-2.1c0-1,0.8-1.8,1.8-1.8h3.5c2,0,3.5,1.2,3.5,2.8c0,1.6-1.5,2.8-3.5,2.8H132h-1.4c-0.7,0-1.3,0.6-1.3,1.3v5.3
			c0,0.7,0.6,1.3,1.3,1.3h1.8l0,0h0.4c6.8,0,11.6-4.4,11.6-10.6C144.4,23.3,139.6,18.9,132.8,18.9z"/>
	</g>
</g>
</svg>
