<?xml version="1.0" encoding="utf-8"?>
<!-- Generator: Adobe Illustrator 22.0.0, SVG Export Plug-In . SVG Version: 6.00 Build 0)  -->
<svg version="1.1" id="Layer_1" xmlns="http://www.w3.org/2000/svg" xmlns:xlink="http://www.w3.org/1999/xlink" x="0px" y="0px"
	 viewBox="0 0 351.7 75" style="enable-background:new 0 0 351.7 75;" xml:space="preserve">
<style type="text/css">
	.st0{fill:#0D1725;}
	.st1{fill:#999999;}
</style>
<g>
	<g>
		<path class="st0" d="M253,2.2h-5.3c-2.1,0-3.8,1.9-3.8,4.2v31.9c0,2.3,1.7,4.2,3.8,4.2h5.3c2.1,0,3.8-1.9,3.8-4.2V6.5
			C256.8,4.2,255.1,2.2,253,2.2z"/>
		<path class="st0" d="M147.3,2.2H142c-2.1,0-3.8,1.9-3.8,4.2v31.9c0,2.3,1.7,4.2,3.8,4.2h5.3c2.1,0,3.8-1.9,3.8-4.2V6.5
			C151.1,4.2,149.4,2.2,147.3,2.2z"/>
		<path class="st0" d="M191.1,3h-5c-1.6,0-2.9,1.3-2.9,2.9v15.8L170.9,4.4c0-0.1-0.1-0.1-0.1-0.2c-0.5-0.7-1.3-1.2-2.2-1.2H163
			c-1.5,0-2.6,1.2-2.6,2.6v32.8c0,1.5,1.2,2.6,2.6,2.6h5.5c1.5,0,2.6-1.2,2.6-2.6V23.1l12.5,17.3c0.3,0.4,2,1.3,2.6,1.3h5
			c1.6,0,2.9-1.3,2.9-2.9v-33C194,4.3,192.7,3,191.1,3z"/>
		<path class="st0" d="M343.6,20.8c-0.4-4.5-2.4-8.7-5.6-11.9c-3.7-3.7-8.6-5.8-13.8-5.8c-0.1,0-0.2,0-0.2,0c-0.1,0-0.2,0-0.3,0h0
			c-0.1,0-0.3,0-0.4,0c-0.2,0-0.3,0-0.5,0h-2.3v0h-10.1c-1.9,0-3.4,1.5-3.4,3.4v2.8v10.1v2.8c0,1.9,1.5,3.4,3.4,3.4c0,0,6.7,0,6.7,0
			c1.2,0,2.3-0.6,2.9-1.6c0.8-1.3,0.4-2.8,0.5-4.3c0.2-2.1,2.2-3.1,4.1-3.1c0.2,0,0.4,0,0.6,0c0.6,0.1,1.2,0.3,1.7,0.6
			c0,0,0,0-0.1,0c1.9,1,3.2,3,3.3,5.2c0,0,0,0,0,0c0,0.1,0,0.1,0,0.2c0,3.4-2.8,6.1-6.2,6.1h-3.4v0h-10.1c-1.9,0-3.4,1.5-3.4,3.4V39
			c0,1.9,1.5,3.4,3.4,3.4h10v0h2.4c0.1,0,0.3,0,0.4,0c0.1,0,0.3,0,0.4,0h0c0.1,0,0.2,0,0.3,0c0.1,0,0.1,0,0.2,0c1.1,0,1.1,0,1.2,0
			c5.8-0.4,10.8-3.3,14.2-7.6c0,0,0,0,0,0c0,0,0,0,0,0.1c0,0,0.2-0.2,0.5-0.7c0.8-1.2,1.5-2.4,2.1-3.8c0.6-1.3,1.1-2.8,1.3-4.4
			c0.1-0.4,0.1-0.7,0.1-1.1c0,0,0-0.1,0-0.1c0-0.1,0-0.2,0-0.3c0-0.1,0-0.1,0-0.2c0-0.1,0-0.2,0-0.2c0-0.1,0-0.1,0-0.2
			c0-0.1,0-0.1,0-0.2c0-0.1,0-0.2,0-0.3c0-0.1,0-0.1,0-0.2c0-0.1,0-0.3,0-0.4h0C343.7,22.1,343.6,21.5,343.6,20.8z"/>
		<path class="st0" d="M303.4,38.5l-13.1-34c-0.4-1-1.3-1.6-2.3-1.6h-9c-1,0-2,0.6-2.3,1.6l-13.1,34c-0.6,1.7,0.6,3.4,2.3,3.4h7.1
			c1,0,2-0.6,2.4-1.6l0.8-2c0.4-1,1.3-1.6,2.4-1.6h5.4v0h1.6c0.9,0,1.6-0.9,1.3-1.8l-1.5-4.9c-0.2-0.6-0.7-1-1.3-1h-1.6v0h-1.7
			c-0.7,0-1.1-0.7-0.9-1.3l2.9-7.6c0.3-0.8,1.5-0.8,1.8,0l2,5.1l0.9,2.5c0.1,0.1,2.7,8,3.9,11.4l0.5,1.2c0.4,1,1.3,1.6,2.4,1.6h7.1
			C302.8,42,304,40.2,303.4,38.5z"/>
		<path class="st0" d="M221.5,2.9h-16.4c-1.3,0-2.3,1-2.3,2.3v34.5c0,1.3,1,2.3,2.3,2.3h6.5c1.3,0,2.3-1,2.3-2.3v-7.2c0,0,0,0,0,0
			V17.9c0,0,0,0,0,0v-2.7c0-1.3,1-2.3,2.3-2.3h4.5c2.6,0,4.5,1.5,4.5,3.6c0,2.1-1.9,3.6-4.5,3.6h-0.1h-1.8c-0.9,0-1.6,0.7-1.6,1.6
			v6.8c0,0.9,0.7,1.6,1.6,1.6h2.4l0,0h0.5c8.8,0,15-5.6,15-13.6C236.5,8.5,230.3,2.9,221.5,2.9z"/>
	</g>
	<g>
		<path class="st1" d="M7.3,55.2H2.2V52h13.9v3.2h-5.2v13.4H7.3V55.2z"/>
		<path class="st1" d="M30.2,60.7v7.9h-3.4v-7.2c0-1.5-1-2.6-2.4-2.6c-1.5,0-2.6,1.1-2.6,2.4v7.4h-3.5V51.7h3.5v5.9
			c0.8-1.1,2.1-1.8,3.7-1.8C28.3,55.8,30.2,57.8,30.2,60.7z"/>
		<path class="st1" d="M41.9,64.7l2.2,2.3c-1.1,1.2-3.3,1.9-5.1,1.9c-3.7,0-6.6-2.7-6.6-6.6c0-3.8,2.8-6.5,6.4-6.5
			c3.9,0,6.2,3,6.2,7.7h-9c0.4,1.4,1.5,2.3,3,2.3C40.1,65.8,41.3,65.3,41.9,64.7z M36.2,61h5.6c-0.3-1.2-1.3-2-2.7-2
			C37.7,58.9,36.6,59.7,36.2,61z"/>
		<path class="st1" d="M53.1,56.1h3.5l2.4,7.8l2.5-7.8h2.9l2.5,7.8l2.4-7.8h3.5l-4.2,12.5h-3.2l-2.3-7.8l-2.3,7.8h-3.2L53.1,56.1z"
			/>
		<path class="st1" d="M73.3,62.4c0-3.5,3.1-6.5,6.8-6.5c3.7,0,6.8,3,6.8,6.5s-3.1,6.5-6.8,6.5C76.4,68.9,73.3,65.9,73.3,62.4z
			 M83.5,62.4c0-1.9-1.6-3.5-3.4-3.5c-1.9,0-3.5,1.6-3.5,3.5c0,1.9,1.6,3.6,3.5,3.6C81.9,65.9,83.5,64.3,83.5,62.4z"/>
		<path class="st1" d="M97.1,55.8v3c-2.6,0-4.3,1.5-4.3,3.8v6h-3.5V56.1h3.5v2.3C93.6,56.8,95.2,55.8,97.1,55.8z"/>
		<path class="st1" d="M99.1,51.7h3.5v16.9h-3.5V51.7z"/>
		<path class="st1" d="M118.5,51.7v16.9H115v-1.8c-1,1.3-2.4,2.1-4.2,2.1c-3.3,0-5.7-2.7-5.7-6.5c0-3.8,2.4-6.5,5.7-6.5
			c1.8,0,3.2,0.8,4.2,2.1v-6.2H118.5z M115,62.4c0-2.1-1.3-3.5-3.2-3.5c-2,0-3.3,1.5-3.3,3.5c0,2.1,1.4,3.6,3.3,3.6
			C113.7,65.9,115,64.5,115,62.4z"/>
		<path class="st1" d="M127.2,56.1h3.5l2.4,7.8l2.5-7.8h2.9l2.5,7.8l2.4-7.8h3.5l-4.2,12.5h-3.2l-2.3-7.8l-2.3,7.8h-3.2L127.2,56.1z
			"/>
		<path class="st1" d="M156.8,64.7l2.2,2.3c-1.1,1.2-3.3,1.9-5.1,1.9c-3.7,0-6.6-2.7-6.6-6.6c0-3.8,2.8-6.5,6.4-6.5
			c3.9,0,6.2,3,6.2,7.7h-9c0.4,1.4,1.5,2.3,3,2.3C154.9,65.8,156.2,65.3,156.8,64.7z M151,61h5.6c-0.3-1.2-1.3-2-2.7-2
			C152.6,58.9,151.5,59.7,151,61z"/>
		<path class="st1" d="M188.6,60.7v8h-3.4v-7.4c0-1.4-0.9-2.5-2.2-2.5c-1.4,0-2.4,0.9-2.4,2.3v7.6h-3.4v-7.4c0-1.4-0.9-2.5-2.2-2.5
			c-1.4,0-2.4,0.9-2.4,2.3v7.5H169V56.1h3.5v1.6c0.6-1.2,1.8-1.9,3.4-1.9c1.7,0,3.2,0.9,4,2.3c0.7-1.4,2.2-2.3,4.1-2.3
			C186.6,55.8,188.6,57.8,188.6,60.7z"/>
		<path class="st1" d="M202.6,61.1v7.5h-3.4v-1.3c-0.9,1-2.3,1.5-3.7,1.5c-2.7,0-4.7-1.6-4.7-4c0-2.5,2.3-4.2,5.2-4.2
			c1,0,2.1,0.2,3.2,0.6v-0.2c0-1.3-0.8-2.5-2.9-2.5c-1.2,0-2.2,0.4-3.2,0.9l-1.2-2.3c1.8-0.9,3.5-1.4,5.2-1.4
			C200.4,55.8,202.6,57.9,202.6,61.1z M199.2,64.7v-1.2c-0.8-0.3-1.7-0.5-2.7-0.5c-1.3,0-2.3,0.7-2.3,1.8s0.9,1.6,2.1,1.6
			C197.7,66.5,199,65.8,199.2,64.7z"/>
		<path class="st1" d="M212.9,61.6l4.8,7h-4.1l-3.1-4.7l-1.5,1.6v3.1h-3.5V51.7h3.5v9.8l4.6-5.4h4.1L212.9,61.6z"/>
		<path class="st1" d="M228.1,64.7l2.2,2.3c-1.1,1.2-3.3,1.9-5.1,1.9c-3.7,0-6.6-2.7-6.6-6.6c0-3.8,2.8-6.5,6.4-6.5
			c3.9,0,6.2,3,6.2,7.7h-9c0.4,1.4,1.5,2.3,3,2.3C226.2,65.8,227.4,65.3,228.1,64.7z M222.3,61h5.6c-0.3-1.2-1.3-2-2.7-2
			C223.9,58.9,222.8,59.7,222.3,61z"/>
		<path class="st1" d="M247.8,67.8c-0.7,0.7-1.9,1.1-2.9,1.1c-2.2,0-3.7-1.6-3.7-3.8V59h-1.7v-2.8h1.7v-3.4h3.4v3.4h2.7V59h-2.7v5.6
			c0,0.8,0.5,1.4,1.2,1.4c0.5,0,1-0.2,1.2-0.4L247.8,67.8z"/>
		<path class="st1" d="M249.3,62.4c0-3.5,3.1-6.5,6.8-6.5c3.7,0,6.8,3,6.8,6.5s-3.1,6.5-6.8,6.5C252.4,68.9,249.3,65.9,249.3,62.4z
			 M259.6,62.4c0-1.9-1.6-3.5-3.4-3.5c-1.9,0-3.5,1.6-3.5,3.5c0,1.9,1.6,3.6,3.5,3.6C258,65.9,259.6,64.3,259.6,62.4z"/>
		<path class="st1" d="M277.9,56.1v11.2c0,3.2-2.8,5.5-6.7,5.5c-2.2,0-4.3-0.7-5.5-1.7l1.2-2.5c0.8,0.7,2.3,1.2,3.7,1.2
			c2.3,0,3.7-1,3.7-2.7v-1.4c-1,1.2-2.5,1.9-4.1,1.9c-3.1,0-5.5-2.5-5.5-5.9c0-3.5,2.4-5.9,5.5-5.9c1.7,0,3.3,0.8,4.1,2v-1.7H277.9z
			 M274.3,61.7c0-1.7-1.3-2.9-3-2.9s-3,1.2-3,2.9s1.3,3,3,3S274.3,63.5,274.3,61.7z"/>
		<path class="st1" d="M289.7,64.7L292,67c-1.1,1.2-3.3,1.9-5.1,1.9c-3.7,0-6.6-2.7-6.6-6.6c0-3.8,2.8-6.5,6.4-6.5
			c3.9,0,6.2,3,6.2,7.7h-9c0.4,1.4,1.5,2.3,3,2.3C287.9,65.8,289.1,65.3,289.7,64.7z M283.9,61h5.6c-0.3-1.2-1.3-2-2.7-2
			C285.5,58.9,284.4,59.7,283.9,61z"/>
		<path class="st1" d="M302.7,67.8c-0.7,0.7-1.9,1.1-2.9,1.1c-2.2,0-3.7-1.6-3.7-3.8V59h-1.7v-2.8h1.7v-3.4h3.4v3.4h2.7V59h-2.7v5.6
			c0,0.8,0.5,1.4,1.2,1.4c0.5,0,1-0.2,1.2-0.4L302.7,67.8z"/>
		<path class="st1" d="M316.8,60.7v7.9h-3.4v-7.2c0-1.5-1-2.6-2.4-2.6c-1.5,0-2.6,1.1-2.6,2.4v7.4h-3.5V51.7h3.5v5.9
			c0.8-1.1,2.1-1.8,3.7-1.8C314.8,55.8,316.8,57.8,316.8,60.7z"/>
		<path class="st1" d="M328.5,64.7l2.2,2.3c-1.1,1.2-3.3,1.9-5.1,1.9c-3.7,0-6.6-2.7-6.6-6.6c0-3.8,2.8-6.5,6.4-6.5
			c3.9,0,6.2,3,6.2,7.7h-9c0.4,1.4,1.5,2.3,3,2.3C326.6,65.8,327.8,65.3,328.5,64.7z M322.7,61h5.6c-0.3-1.2-1.3-2-2.7-2
			C324.3,58.9,323.2,59.7,322.7,61z"/>
		<path class="st1" d="M341.8,55.8v3c-2.6,0-4.3,1.5-4.3,3.8v6H334V56.1h3.5v2.3C338.4,56.8,339.9,55.8,341.8,55.8z"/>
	</g>
</g>
</svg>
