<?xml version="1.0" encoding="utf-8"?>
<!-- Generator: Adobe Illustrator 22.0.0, SVG Export Plug-In . SVG Version: 6.00 Build 0)  -->
<svg version="1.1" id="Layer_1" xmlns="http://www.w3.org/2000/svg" xmlns:xlink="http://www.w3.org/1999/xlink" x="0px" y="0px"
	 viewBox="0 0 303 56" style="enable-background:new 0 0 303 56;" xml:space="preserve">
<style type="text/css">
	.st0{fill:#1E283A;}
</style>
<g>
	<g>
		<path class="st0" d="M64.5,11.8h12.4c11.6,0,19.8,6.9,19.8,16.6S88.5,45,76.9,45H64.5V11.8z M78.4,36.5c5,0,8.6-3.4,8.6-8.1
			s-3.6-8.1-8.6-8.1h-4.5v16.2H78.4z"/>
		<path class="st0" d="M120.7,40.5h-11.6l-1.7,4.4H96.9l12.8-33.2h10.6L133,45h-10.6L120.7,40.5z M118.1,33.6l-3.1-8.1l-3.1,8.1
			H118.1z"/>
		<path class="st0" d="M135.9,11.8h9.4l8.9,15.9l8.9-15.9h9.4V45h-9.4V27.2L154.2,43l-8.9-15.9V45h-9.4V11.8z"/>
		<path class="st0" d="M175.8,11.8h10.1l4.1,19.2l6.4-19.2h10.1l6.4,19.2l4.1-19.2H227L217.8,45h-9.5l-6.9-19.2l-7,19.2H185
			L175.8,11.8z"/>
		<path class="st0" d="M229.1,28.3c0-9.3,8.3-17.2,18.1-17.2s18.1,7.8,18.1,17.2s-8.3,17.2-18.1,17.2S229.1,37.7,229.1,28.3z
			 M255.5,28.3c0-4.7-3.9-8.7-8.4-8.7s-8.4,4-8.4,8.7c0,4.7,3.9,8.7,8.4,8.7S255.5,33.1,255.5,28.3z"/>
		<path class="st0" d="M269.7,11.8h9.4l13,17.8V11.8h9.4V45H292l-13-17.8V45h-9.4V11.8z"/>
	</g>
	<polygon class="st0" points="28.7,20.4 28.7,20.4 33.4,12.4 18.2,3.5 18.2,3.5 18.2,3.5 1.6,31.7 9.5,36.4 9.5,36.4 9.7,36.5 
		9.7,36.5 16.8,40.6 16.8,40.6 21.5,32.7 14.2,28.4 18.4,21.3 18.4,21.3 21.5,16.1 21.6,16.2 21.6,16.2 	"/>
	<polygon class="st0" points="26.5,35.6 26.5,35.6 21.8,43.6 37,52.5 37,52.5 37,52.5 53.6,24.3 45.6,19.6 45.6,19.6 45.4,19.5 
		45.4,19.5 38.4,15.4 38.4,15.4 33.7,23.3 40.9,27.6 36.7,34.7 36.7,34.7 33.7,39.9 33.5,39.8 33.5,39.8 	"/>
</g>
</svg>
