<?xml version="1.0" encoding="utf-8"?>
<!-- Generator: Adobe Illustrator 22.0.0, SVG Export Plug-In . SVG Version: 6.00 Build 0)  -->
<svg version="1.1" id="Layer_1" xmlns="http://www.w3.org/2000/svg" xmlns:xlink="http://www.w3.org/1999/xlink" x="0px" y="0px"
	 viewBox="0 0 32 34" style="enable-background:new 0 0 32 34;" xml:space="preserve">
<style type="text/css">
	.st0{fill:#0D1725;}
	.st1{fill:#264D9D;}
</style>
<g>
	<path class="st0" d="M28.8,25.7c0.7-1.6,0.8-3.3,0.3-5.2l0,0c-0.5-1.6-1.5-3-2.9-4.1c-2-1.6-4.8-2.6-7.7-3c0.9,0.9,1.5,2.1,1.5,3.5
		c0,0,0,0,0,0c0,0.1,0,0.1,0,0.2c0,2.9-2.3,5.2-5.2,5.2h-2.9v0H3.3c-1.6,0-2.9,1.3-2.9,2.9v5.7c0,1.6,1.3,2.9,2.9,2.9h8.5v0h2
		c0.1,0,0.2,0,0.4,0c0.1,0,0.2,0,0.4,0h0c0.1,0,0.1,0,0.2,0c0,0,0.1,0,0.1,0c1,0,1,0,1,0c2.3-0.2,4.5-0.8,6.6-1.8
		C25.2,30.4,27.7,28.3,28.8,25.7z"/>
	<path class="st1" d="M31.5,15.4c-0.4-3.8-2-7.4-4.8-10.1C23.6,2.1,19.4,0.3,15,0.3c0,0-0.2,0-0.2,0c-0.1,0-0.1,0-0.2,0h0
		c-0.1,0-0.2,0-0.4,0c-0.1,0-0.3,0-0.4,0c0,0-2,0-2,0H3.3c-1.6,0-2.9,1.3-2.9,2.9v2.4v8.6v2.4c0,1.6,1.3,2.9,2.9,2.9H9
		c1.6,0,2.9-1.3,2.9-2.9v-2.4V14c0.1-0.3,0.2-0.6,0.3-0.8c0.4-0.6,1-1,1.7-1.2c6.1-2.1,14.6,1.8,16.4,8.1l0,0.1
		c0,0.1,0.3,1.1,0.4,2.3c0.3-0.8,0.6-1.8,0.7-2.7c0-0.3,0.1-0.6,0.1-0.9c0,0,0-0.1,0-0.1c0-0.1,0-0.1,0-0.2c0-0.1,0-0.1,0-0.2
		c0-0.1,0-0.1,0-0.2c0-0.1,0-0.1,0-0.2c0-0.1,0-0.1,0-0.2c0-0.1,0-0.2,0-0.2c0,0,0-0.1,0-0.1c0-0.1,0-0.3,0-0.4
		C31.5,16.4,31.5,15.9,31.5,15.4z"/>
</g>
</svg>
