<?xml version="1.0" encoding="utf-8"?>
<!-- Generator: Adobe Illustrator 22.0.0, SVG Export Plug-In . SVG Version: 6.00 Build 0)  -->
<svg version="1.1" id="Layer_1" xmlns="http://www.w3.org/2000/svg" xmlns:xlink="http://www.w3.org/1999/xlink" x="0px" y="0px"
	 viewBox="0 0 20 20" style="enable-background:new 0 0 20 20;" xml:space="preserve">
<style type="text/css">
	.st0{fill:#0D1725;}
</style>
<path class="st0" d="M3.5,0.8c-0.1,0-0.3,0-0.4,0C1.7,1.3,0.8,3.3,0.6,4.7C0,9.1,3.5,12.9,6.7,15.4c2.8,2.2,8.3,5.9,11.5,2.4
	c0.4-0.4,0.9-1.1,0.9-1.7C19,15,18,14.2,17.2,13.6c-0.6-0.4-1.8-1.6-2.6-1.6c-0.7,0-1.1,0.7-1.6,1.2L12.3,14
	c-0.1,0.1-1.8-0.9-1.9-1.1C9.7,12.4,9,12,8.5,11.4S7.4,10.3,7,9.7C6.8,9.5,5.8,7.9,5.9,7.8c0,0,0.9-1,1.2-1.4C7.6,5.6,8,5,7.4,4
	C7.1,3.6,6.9,3.4,6.6,3.1C6,2.5,5.5,2,4.9,1.6C4.5,1.3,4,0.8,3.5,0.8z"/>
</svg>
