<?xml version="1.0" encoding="utf-8"?>
<!-- Generator: Adobe Illustrator 22.0.0, SVG Export Plug-In . SVG Version: 6.00 Build 0)  -->
<svg version="1.1" id="Layer_1" xmlns="http://www.w3.org/2000/svg" xmlns:xlink="http://www.w3.org/1999/xlink" x="0px" y="0px"
	 viewBox="0 0 215 550" style="enable-background:new 0 0 215 550;" xml:space="preserve">
<style type="text/css">
	.st0{fill:#16263A;}
</style>
<g>
	<path class="st0" d="M97.6,203.9c0,5.7-4.6,10.3-10.3,10.3c-5.7,0-10.3-4.6-10.3-10.3c0-5.7,4.6-10.3,10.3-10.3
		C93,193.6,97.6,198.2,97.6,203.9z"/>
	<path class="st0" d="M203.3,176.6c0,5.7-4.6,10.3-10.3,10.3c-5.7,0-10.3-4.6-10.3-10.3c0-5.7,4.6-10.3,10.3-10.3
		C198.6,166.3,203.3,170.9,203.3,176.6z"/>
	<path class="st0" d="M213.6,323c0,5.7-4.6,10.3-10.3,10.3c-5.7,0-10.3-4.6-10.3-10.3s4.6-10.3,10.3-10.3
		C209,312.7,213.6,317.3,213.6,323z"/>
	<path class="st0" d="M132,289.6c0,5.7-4.6,10.3-10.3,10.3c-5.7,0-10.3-4.6-10.3-10.3c0-5.7,4.6-10.3,10.3-10.3
		C127.4,279.3,132,283.9,132,289.6z"/>
	<path class="st0" d="M183.8,12.1c0,5.7-4.6,10.3-10.3,10.3c-5.7,0-10.3-4.6-10.3-10.3s4.6-10.3,10.3-10.3
		C179.2,1.8,183.8,6.4,183.8,12.1z"/>
	<path class="st0" d="M32.4,68.1c0,5.7-4.6,10.3-10.3,10.3c-5.7,0-10.3-4.6-10.3-10.3c0-5.7,4.6-10.3,10.3-10.3
		C27.8,57.7,32.4,62.4,32.4,68.1z"/>
	<path class="st0" d="M22.1,333.3c0,5.7-4.6,10.3-10.3,10.3c-5.7,0-10.3-4.6-10.3-10.3c0-5.7,4.6-10.3,10.3-10.3
		C17.4,323,22.1,327.6,22.1,333.3z"/>
	<path class="st0" d="M97.6,422.7c0,5.7-4.6,10.3-10.3,10.3c-5.7,0-10.3-4.6-10.3-10.3c0-5.7,4.6-10.3,10.3-10.3
		C93,412.4,97.6,417,97.6,422.7z"/>
	<path class="st0" d="M183.8,537.9c0,5.7-4.6,10.3-10.3,10.3c-5.7,0-10.3-4.6-10.3-10.3c0-5.7,4.6-10.3,10.3-10.3
		C179.2,527.6,183.8,532.2,183.8,537.9z"/>
	<path class="st0" d="M32.4,507.2c0,5.7-4.6,10.3-10.3,10.3c-5.7,0-10.3-4.6-10.3-10.3s4.6-10.3,10.3-10.3
		C27.8,496.9,32.4,501.5,32.4,507.2z"/>
</g>
</svg>
