<?xml version="1.0" encoding="utf-8"?>
<!-- Generator: Adobe Illustrator 22.0.0, SVG Export Plug-In . SVG Version: 6.00 Build 0)  -->
<svg version="1.1" id="Layer_1" xmlns="http://www.w3.org/2000/svg" xmlns:xlink="http://www.w3.org/1999/xlink" x="0px" y="0px"
	 viewBox="0 0 165 65" style="enable-background:new 0 0 165 65;" xml:space="preserve">
<style type="text/css">
	.st0{fill:#0E1826;}
</style>
<g>
	<g>
		<path class="st0" d="M52.1,44h-2.3c-0.9,0-1.6,0.8-1.6,1.8v13.7c0,1,0.7,1.8,1.6,1.8h2.3c0.9,0,1.6-0.8,1.6-1.8V45.8
			C53.8,44.8,53,44,52.1,44z"/>
		<path class="st0" d="M6.7,44H4.4c-0.9,0-1.6,0.8-1.6,1.8v13.7c0,1,0.7,1.8,1.6,1.8h2.3c0.9,0,1.6-0.8,1.6-1.8V45.8
			C8.4,44.8,7.6,44,6.7,44z"/>
		<path class="st0" d="M25.6,44.3h-2.1c-0.7,0-1.2,0.6-1.2,1.2v6.8l-5.3-7.4c0,0,0-0.1-0.1-0.1c-0.2-0.3-0.6-0.5-1-0.5h-2.4
			c-0.6,0-1.1,0.5-1.1,1.1v14.1c0,0.6,0.5,1.1,1.1,1.1h2.4c0.6,0,1.1-0.5,1.1-1.1V53l5.4,7.4c0.1,0.2,0.9,0.6,1.1,0.6h2.1
			c0.7,0,1.2-0.6,1.2-1.2V45.6C26.8,44.9,26.2,44.3,25.6,44.3z"/>
		<path class="st0" d="M91,52c-0.2-1.9-1-3.7-2.4-5.1c-1.6-1.6-3.7-2.5-5.9-2.5c0,0-0.1,0-0.1,0c0,0-0.1,0-0.1,0h0
			c-0.1,0-0.1,0-0.2,0c-0.1,0-0.1,0-0.2,0h-1v0h-4.3c-0.8,0-1.5,0.7-1.5,1.5V47v4.3v1.2c0,0.8,0.7,1.5,1.5,1.5c0,0,2.9,0,2.9,0
			c0.5,0,1-0.3,1.2-0.7c0.4-0.6,0.2-1.2,0.2-1.8c0.1-0.9,1-1.3,1.8-1.3c0.1,0,0.2,0,0.3,0c0.3,0.1,0.5,0.1,0.7,0.3c0,0,0,0,0,0
			c0.8,0.4,1.4,1.3,1.4,2.2v0c0,0,0,0.1,0,0.1c0,1.5-1.2,2.6-2.6,2.6h-1.5v0h-4.3c-0.8,0-1.5,0.7-1.5,1.5v2.9c0,0.8,0.7,1.5,1.5,1.5
			h4.3v0h1c0.1,0,0.1,0,0.2,0c0.1,0,0.1,0,0.2,0h0c0,0,0.1,0,0.1,0c0,0,0,0,0.1,0c0.5,0,0.5,0,0.5,0c2.5-0.2,4.7-1.4,6.1-3.2
			c0,0,0,0,0,0c0,0,0,0,0,0c0,0,0.1-0.1,0.2-0.3c0.4-0.5,0.7-1,0.9-1.6c0.2-0.6,0.5-1.2,0.6-1.9c0-0.2,0-0.3,0.1-0.5c0,0,0,0,0-0.1
			c0,0,0-0.1,0-0.1c0,0,0-0.1,0-0.1c0,0,0-0.1,0-0.1c0,0,0-0.1,0-0.1c0,0,0-0.1,0-0.1c0,0,0-0.1,0-0.1c0,0,0,0,0-0.1
			c0-0.1,0-0.1,0-0.2h0C91.1,52.5,91.1,52.3,91,52z"/>
		<path class="st0" d="M73.8,59.6L68.2,45c-0.2-0.4-0.6-0.7-1-0.7h-3.9c-0.4,0-0.8,0.3-1,0.7l-5.6,14.6c-0.3,0.7,0.3,1.5,1,1.5h3
			c0.4,0,0.8-0.3,1-0.7l0.3-0.9c0.2-0.4,0.6-0.7,1-0.7h2.3v0h0.7c0.4,0,0.7-0.4,0.6-0.8L66,56c-0.1-0.2-0.3-0.4-0.6-0.4h-0.7v0H64
			c-0.3,0-0.5-0.3-0.4-0.6l1.2-3.2c0.1-0.4,0.6-0.4,0.8,0l0.8,2.2l0.4,1.1c0,0.1,1.2,3.4,1.7,4.9l0.2,0.5c0.2,0.4,0.6,0.7,1,0.7h3
			C73.5,61.1,74.1,60.3,73.8,59.6z"/>
		<path class="st0" d="M38.6,44.3h-7.1c-0.5,0-1,0.4-1,1v14.8c0,0.5,0.4,1,1,1h2.8c0.5,0,1-0.4,1-1V57c0,0,0,0,0,0v-6.2v0v-1.2
			c0-0.5,0.4-1,1-1h1.9c1.1,0,1.9,0.7,1.9,1.6c0,0.9-0.8,1.6-1.9,1.6h-0.1h-0.8c-0.4,0-0.7,0.3-0.7,0.7v2.9c0,0.4,0.3,0.7,0.7,0.7h1
			l0,0h0.2c3.8,0,6.4-2.4,6.4-5.9C45,46.7,42.4,44.3,38.6,44.3z"/>
	</g>
	<g>
		<path class="st0" d="M156.9,49.3c1.3-3,1.6-6.4,0.6-10l0-0.1c-1-3.1-2.9-5.9-5.6-7.9c-3.9-3-9.2-5.1-14.8-5.9
			c1.8,1.7,2.9,4.1,3,6.8c0,0,0,0,0,0c0,0.1,0,0.2,0,0.3c0,5.6-4.5,10.1-10.1,10.1h-5.6v0h-16.6c-3.1,0-5.6,2.5-5.6,5.6v11
			c0,3.1,2.5,5.6,5.6,5.6h16.4v0h3.9c0.2,0,0.5,0,0.7,0c0.2,0,0.5,0,0.7,0h0c0.1,0,0.3,0,0.4,0c0.1,0,0.2,0,0.3,0
			c1.8-0.1,1.8-0.1,1.9-0.1c4.4-0.3,8.7-1.5,12.7-3.5C149.9,58.4,154.7,54.4,156.9,49.3z"/>
		<path class="st0" d="M162,29.3c-0.7-7.4-3.9-14.2-9.2-19.5c-6-6.1-14-9.4-22.5-9.5c-0.1,0-0.3,0-0.4,0c-0.1,0-0.3,0-0.4,0l0,0
			c-0.2,0-0.5,0-0.7,0c-0.3,0-0.5,0-0.7,0c0,0-3.8,0-3.8,0h-16.6c-3.1,0-5.6,2.5-5.6,5.6v4.6V27v4.6c0,3.1,2.5,5.6,5.6,5.6h11
			c3.1,0,5.6-2.5,5.6-5.6V27v-0.3c0.1-0.6,0.3-1.1,0.6-1.6c0.7-1.1,1.9-1.9,3.2-2.3c11.8-4.1,28.1,3.4,31.6,15.7l0,0.1
			c0.1,0.3,0.6,2.1,0.7,4.4c0.6-1.6,1.1-3.4,1.3-5.3c0.1-0.6,0.2-1.2,0.2-1.8c0-0.1,0-0.1,0-0.2c0-0.1,0-0.3,0-0.4
			c0-0.1,0-0.2,0-0.3c0-0.1,0-0.3,0-0.4c0-0.1,0-0.3,0-0.4c0-0.1,0-0.2,0-0.3c0-0.1,0-0.3,0-0.5c0-0.1,0-0.2,0-0.3
			c0-0.2,0-0.5,0-0.7C162.2,31.4,162.1,30.4,162,29.3z"/>
	</g>
</g>
</svg>
