<?xml version="1.0" encoding="utf-8"?>
<!-- Generator: Adobe Illustrator 22.0.0, SVG Export Plug-In . SVG Version: 6.00 Build 0)  -->
<svg version="1.1" id="Layer_1" xmlns="http://www.w3.org/2000/svg" xmlns:xlink="http://www.w3.org/1999/xlink" x="0px" y="0px"
	 viewBox="0 0 215 550" style="enable-background:new 0 0 215 550;" xml:space="preserve">
<style type="text/css">
	.st0{fill:#16263A;}
</style>
<g>
	<path class="st0" d="M171.6,25.6c0,5.7-4.6,10.3-10.3,10.3c-5.7,0-10.3-4.6-10.3-10.3c0-5.7,4.6-10.3,10.3-10.3
		C167,15.3,171.6,19.9,171.6,25.6z"/>
	<path class="st0" d="M97.6,190.4c0,5.7-4.6,10.3-10.3,10.3c-5.7,0-10.3-4.6-10.3-10.3c0-5.7,4.6-10.3,10.3-10.3
		C93,180.1,97.6,184.7,97.6,190.4z"/>
	<path class="st0" d="M203.3,163.1c0,5.7-4.6,10.3-10.3,10.3s-10.3-4.6-10.3-10.3c0-5.7,4.6-10.3,10.3-10.3S203.3,157.4,203.3,163.1
		z"/>
	<path class="st0" d="M213.6,309.5c0,5.7-4.6,10.3-10.3,10.3c-5.7,0-10.3-4.6-10.3-10.3c0-5.7,4.6-10.3,10.3-10.3
		C209,299.2,213.6,303.8,213.6,309.5z"/>
	<path class="st0" d="M132,276.2c0,5.7-4.6,10.3-10.3,10.3c-5.7,0-10.3-4.6-10.3-10.3c0-5.7,4.6-10.3,10.3-10.3
		C127.4,265.8,132,270.5,132,276.2z"/>
	<path class="st0" d="M32.4,54.6c0,5.7-4.6,10.3-10.3,10.3s-10.3-4.6-10.3-10.3s4.6-10.3,10.3-10.3S32.4,48.9,32.4,54.6z"/>
	<path class="st0" d="M22.1,319.8c0,5.7-4.6,10.3-10.3,10.3s-10.3-4.6-10.3-10.3c0-5.7,4.6-10.3,10.3-10.3S22.1,314.1,22.1,319.8z"
		/>
	<path class="st0" d="M97.6,409.2c0,5.7-4.6,10.3-10.3,10.3c-5.7,0-10.3-4.6-10.3-10.3c0-5.7,4.6-10.3,10.3-10.3
		C93,398.9,97.6,403.5,97.6,409.2z"/>
	<path class="st0" d="M183.8,524.4c0,5.7-4.6,10.3-10.3,10.3c-5.7,0-10.3-4.6-10.3-10.3s4.6-10.3,10.3-10.3
		C179.2,514.1,183.8,518.7,183.8,524.4z"/>
	<path class="st0" d="M32.4,493.7c0,5.7-4.6,10.3-10.3,10.3s-10.3-4.6-10.3-10.3c0-5.7,4.6-10.3,10.3-10.3S32.4,488,32.4,493.7z"/>
</g>
</svg>
