<?xml version="1.0" encoding="utf-8"?>
<!-- Generator: Adobe Illustrator 22.0.0, SVG Export Plug-In . SVG Version: 6.00 Build 0)  -->
<svg version="1.1" id="Layer_1" xmlns="http://www.w3.org/2000/svg" xmlns:xlink="http://www.w3.org/1999/xlink" x="0px" y="0px"
	 viewBox="0 0 204 40.3" style="enable-background:new 0 0 204 40.3;" xml:space="preserve">
<style type="text/css">
	.st0{fill:#FFFFFF;}
</style>
<g>
	<path class="st0" d="M113.9,0.2h-5.2c-2.1,0-3.8,1.9-3.8,4.2v31.5c0,2.3,1.7,4.2,3.8,4.2h5.2c2.1,0,3.8-1.9,3.8-4.2V4.4
		C117.7,2.1,116,0.2,113.9,0.2z"/>
	<path class="st0" d="M9.4,0.2H4.2c-2.1,0-3.8,1.9-3.8,4.2v31.5c0,2.3,1.7,4.2,3.8,4.2h5.2c2.1,0,3.8-1.9,3.8-4.2V4.4
		C13.2,2.1,11.5,0.2,9.4,0.2z"/>
	<path class="st0" d="M52.8,0.9h-4.9c-1.6,0-2.9,1.3-2.9,2.9v15.6L32.7,2.3c0-0.1-0.1-0.1-0.1-0.2c-0.5-0.7-1.3-1.2-2.2-1.2H25
		c-1.4,0-2.6,1.2-2.6,2.6v32.4c0,1.4,1.2,2.6,2.6,2.6h5.4c1.4,0,2.6-1.2,2.6-2.6v-15L45.3,38c0.3,0.4,2,1.3,2.6,1.3h4.9
		c1.6,0,2.9-1.3,2.9-2.9V3.8C55.6,2.2,54.3,0.9,52.8,0.9z"/>
	<path class="st0" d="M203.5,18.6c-0.4-4.4-2.4-8.6-5.5-11.8c-3.6-3.7-8.5-5.7-13.6-5.8c-0.1,0-0.2,0-0.2,0c-0.1,0-0.2,0-0.3,0h0
		c-0.1,0-0.3,0-0.4,0c-0.2,0-0.3,0-0.4,0h-2.3v0h-10c-1.9,0-3.4,1.5-3.4,3.4v2.8v10v2.8c0,1.9,1.5,3.4,3.4,3.4h6.6
		c1.2,0,2.2-0.6,2.9-1.6c0.8-1.3,0.4-2.8,0.5-4.2c0.2-2,2.2-3,4.1-3c0.2,0,0.4,0,0.6,0c0.6,0.1,1.1,0.3,1.7,0.6c0,0-0.1,0-0.1,0
		c1.9,1,3.2,2.9,3.3,5.2c0,0,0,0,0,0c0,0.1,0,0.1,0,0.2c0,3.4-2.7,6.1-6.1,6.1h-3.4v0h-10c-1.9,0-3.4,1.5-3.4,3.4v6.6
		c0,1.9,1.5,3.4,3.4,3.4h9.9v0h2.3c0.1,0,0.3,0,0.4,0c0.1,0,0.3,0,0.4,0h0c0.1,0,0.2,0,0.3,0c0.1,0,0.1,0,0.2,0c1.1,0,1.1,0,1.2,0
		c5.7-0.4,10.7-3.2,14-7.5c0,0,0,0,0,0c0,0,0,0,0,0.1c0,0,0.2-0.2,0.5-0.7c0.8-1.2,1.5-2.4,2.1-3.7c0.6-1.3,1.1-2.8,1.3-4.4
		c0.1-0.4,0.1-0.7,0.1-1.1c0,0,0-0.1,0-0.1c0-0.1,0-0.2,0-0.3c0-0.1,0-0.1,0-0.2c0-0.1,0-0.2,0-0.2c0-0.1,0-0.2,0-0.2
		c0-0.1,0-0.1,0-0.2c0-0.1,0-0.2,0-0.3c0-0.1,0-0.1,0-0.2c0-0.1,0-0.3,0-0.4h0C203.5,19.8,203.5,19.2,203.5,18.6z"/>
	<path class="st0" d="M163.7,36.1L150.8,2.4c-0.4-1-1.3-1.6-2.3-1.6h-8.9c-1,0-2,0.6-2.3,1.6l-12.9,33.6c-0.6,1.6,0.6,3.4,2.3,3.4h7
		c1,0,2-0.6,2.3-1.6l0.7-2c0.4-1,1.3-1.6,2.3-1.6h5.4v0h1.6c0.9,0,1.6-0.9,1.3-1.8l-1.5-4.8c-0.2-0.6-0.7-1-1.3-1h-1.6v0h-1.7
		c-0.7,0-1.1-0.7-0.9-1.3l2.9-7.5c0.3-0.8,1.5-0.8,1.8,0l1.9,5.1l0.9,2.4c0.1,0.1,2.6,7.9,3.8,11.2l0.4,1.2c0.4,1,1.3,1.6,2.3,1.6h7
		C163.2,39.4,164.4,37.7,163.7,36.1z"/>
	<path class="st0" d="M82.8,0.8H66.6c-1.3,0-2.3,1-2.3,2.3v34.1c0,1.2,1,2.3,2.3,2.3H73c1.2,0,2.3-1,2.3-2.3v-7.1c0,0,0,0,0,0V15.7
		c0,0,0,0,0,0V13c0-1.2,1-2.3,2.3-2.3h4.4c2.6,0,4.4,1.5,4.4,3.6c0,2.1-1.8,3.6-4.4,3.6h-0.1H80c-0.9,0-1.6,0.7-1.6,1.6v6.7
		c0,0.9,0.7,1.6,1.6,1.6h2.3l0,0h0.5c8.7,0,14.8-5.6,14.8-13.5C97.6,6.4,91.5,0.8,82.8,0.8z"/>
</g>
</svg>
