<?xml version="1.0" encoding="utf-8"?>
<!-- Generator: Adobe Illustrator 22.0.0, SVG Export Plug-In . SVG Version: 6.00 Build 0)  -->
<svg version="1.1" id="Layer_1" xmlns="http://www.w3.org/2000/svg" xmlns:xlink="http://www.w3.org/1999/xlink" x="0px" y="0px"
	 viewBox="0 0 18.9 18.6" style="enable-background:new 0 0 18.9 18.6;" xml:space="preserve">
<style type="text/css">
	.st0{fill:#FFFFFF;}
</style>
<path class="st0" d="M2.5,17.9l5.4-5.4c1.1,0.8,2.4,1.2,3.9,1.2c3.7,0,6.7-3,6.7-6.7c0-3.7-3-6.7-6.7-6.7C8,0.4,5,3.4,5,7.1
	c0,1.4,0.5,2.8,1.2,3.9l-5.4,5.4c-0.4,0.4-0.4,1.1,0,1.6C1.3,18.3,2,18.3,2.5,17.9z M7.2,7.1c0-2.5,2-4.4,4.5-4.4
	c2.5,0,4.4,2,4.4,4.4c0,2.5-2,4.4-4.4,4.4C9.2,11.5,7.2,9.5,7.2,7.1z"/>
</svg>
