<?xml version="1.0" encoding="utf-8"?>
<!-- Generator: Adobe Illustrator 22.0.0, SVG Export Plug-In . SVG Version: 6.00 Build 0)  -->
<svg version="1.1" id="Layer_1" xmlns="http://www.w3.org/2000/svg" xmlns:xlink="http://www.w3.org/1999/xlink" x="0px" y="0px"
	 viewBox="0 0 22 23.8" style="enable-background:new 0 0 22 23.8;" xml:space="preserve">
<style type="text/css">
	.st0{fill:#FFFFFF;}
</style>
<g>
	<path class="st0" d="M19.9,18c0.5-1.1,0.6-2.3,0.2-3.6l0,0c-0.3-1.1-1-2.1-2-2.9c-1.4-1.1-3.3-1.8-5.4-2.1c0.6,0.6,1,1.5,1.1,2.4
		c0,0,0,0,0,0c0,0,0,0.1,0,0.1c0,2-1.6,3.6-3.6,3.6h-2v0h-6c-1.1,0-2,0.9-2,2v4c0,1.1,0.9,2,2,2h5.9v0h1.4c0.1,0,0.2,0,0.3,0
		c0.1,0,0.2,0,0.3,0h0c0.1,0,0.1,0,0.2,0c0,0,0.1,0,0.1,0c0.7,0,0.7,0,0.7,0c1.6-0.1,3.2-0.5,4.6-1.3C17.4,21.3,19.1,19.8,19.9,18z"
		/>
	<path class="st0" d="M21.8,10.8c-0.3-2.7-1.4-5.1-3.3-7c-2.2-2.2-5.1-3.4-8.1-3.4c0,0-0.1,0-0.1,0c-0.1,0-0.1,0-0.2,0h0
		c-0.1,0-0.2,0-0.3,0c-0.1,0-0.2,0-0.3,0c0,0-1.4,0-1.4,0h-6c-1.1,0-2,0.9-2,2V4v6v1.7c0,1.1,0.9,2,2,2h4c1.1,0,2-0.9,2-2V9.9V9.8
		c0-0.2,0.1-0.4,0.2-0.6c0.3-0.4,0.7-0.7,1.1-0.8c4.3-1.5,10.1,1.2,11.4,5.7l0,0c0,0.1,0.2,0.8,0.3,1.6c0.2-0.6,0.4-1.2,0.5-1.9
		c0-0.2,0.1-0.4,0.1-0.6c0,0,0-0.1,0-0.1c0-0.1,0-0.1,0-0.2c0,0,0-0.1,0-0.1c0,0,0-0.1,0-0.1c0,0,0-0.1,0-0.1c0,0,0-0.1,0-0.1
		c0-0.1,0-0.1,0-0.2c0,0,0-0.1,0-0.1c0-0.1,0-0.2,0-0.3C21.8,11.5,21.8,11.2,21.8,10.8z"/>
</g>
</svg>
