<?xml version="1.0" encoding="utf-8"?>
<!-- Generator: Adobe Illustrator 22.0.0, SVG Export Plug-In . SVG Version: 6.00 Build 0)  -->
<svg version="1.1" id="Layer_1" xmlns="http://www.w3.org/2000/svg" xmlns:xlink="http://www.w3.org/1999/xlink" x="0px" y="0px"
	 viewBox="0 0 107.8 96.2" style="enable-background:new 0 0 107.8 96.2;" xml:space="preserve">
<style type="text/css">
	.st0{fill:#FFFFFF;}
	.st1{fill:#D0D0D1;}
</style>
<g>
	<g>
		<polygon class="st0" points="41.3,12.6 66.5,12.6 66.5,27.3 79.1,27.3 79.1,0.1 28.7,0.1 28.7,29 41.3,29 		"/>
		<polygon class="st0" points="66.5,29 66.5,37.8 41.3,37.8 41.3,37.8 28.7,37.8 28.7,50.4 79.1,50.4 79.1,29 		"/>
	</g>
	<g>
		<path class="st1" d="M2.3,90.7H0.7v-1H5v1H3.4v4.2H2.3V90.7z"/>
		<path class="st1" d="M9.5,92.4v2.5H8.4v-2.3c0-0.5-0.3-0.8-0.7-0.8c-0.5,0-0.8,0.3-0.8,0.8v2.3H5.7v-5.3h1.1v1.9
			c0.2-0.3,0.7-0.6,1.2-0.6C8.9,90.8,9.5,91.5,9.5,92.4z"/>
		<path class="st1" d="M13.1,93.6l0.7,0.7c-0.3,0.4-1,0.6-1.6,0.6c-1.2,0-2.1-0.9-2.1-2.1c0-1.2,0.9-2,2-2c1.2,0,1.9,0.9,1.9,2.4
			h-2.8c0.1,0.4,0.5,0.7,0.9,0.7C12.6,94,12.9,93.8,13.1,93.6z M11.3,92.5h1.7c-0.1-0.4-0.4-0.6-0.8-0.6
			C11.8,91.8,11.5,92.1,11.3,92.5z"/>
		<path class="st1" d="M16.6,90.9h1.1l0.7,2.4l0.8-2.4h0.9l0.8,2.4l0.7-2.4h1.1l-1.3,3.9h-1l-0.7-2.5L19,94.8h-1L16.6,90.9z"/>
		<path class="st1" d="M23,92.9c0-1.1,1-2,2.1-2c1.2,0,2.1,0.9,2.1,2s-1,2.1-2.1,2.1C23.9,94.9,23,94,23,92.9z M26.2,92.9
			c0-0.6-0.5-1.1-1.1-1.1c-0.6,0-1.1,0.5-1.1,1.1s0.5,1.1,1.1,1.1C25.7,94,26.2,93.5,26.2,92.9z"/>
		<path class="st1" d="M30.4,90.8v0.9c-0.8,0-1.3,0.5-1.3,1.2v1.9H28v-3.9h1.1v0.7C29.3,91.2,29.8,90.8,30.4,90.8z"/>
		<path class="st1" d="M31.1,89.6h1.1v5.3h-1.1V89.6z"/>
		<path class="st1" d="M37.1,89.6v5.3H36v-0.6c-0.3,0.4-0.8,0.7-1.3,0.7c-1,0-1.8-0.8-1.8-2.1c0-1.2,0.8-2,1.8-2
			c0.6,0,1,0.2,1.3,0.7v-1.9H37.1z M36,92.9c0-0.7-0.4-1.1-1-1.1c-0.6,0-1,0.5-1,1.1c0,0.7,0.4,1.1,1,1.1C35.6,94,36,93.5,36,92.9z"
			/>
		<path class="st1" d="M39.9,90.9H41l0.7,2.4l0.8-2.4h0.9l0.8,2.4l0.7-2.4H46l-1.3,3.9h-1l-0.7-2.5l-0.7,2.5h-1L39.9,90.9z"/>
		<path class="st1" d="M49.1,93.6l0.7,0.7c-0.3,0.4-1,0.6-1.6,0.6c-1.2,0-2.1-0.9-2.1-2.1c0-1.2,0.9-2,2-2c1.2,0,1.9,0.9,1.9,2.4
			h-2.8c0.1,0.4,0.5,0.7,0.9,0.7C48.6,94,48.9,93.8,49.1,93.6z M47.3,92.5h1.7c-0.1-0.4-0.4-0.6-0.8-0.6
			C47.8,91.8,47.5,92.1,47.3,92.5z"/>
		<path class="st1" d="M59.1,92.4v2.5H58v-2.3c0-0.5-0.3-0.8-0.7-0.8c-0.4,0-0.8,0.3-0.8,0.7v2.4h-1.1v-2.3c0-0.5-0.3-0.8-0.7-0.8
			c-0.4,0-0.8,0.3-0.8,0.7v2.4H53v-3.9h1.1v0.5c0.2-0.4,0.6-0.6,1.1-0.6c0.5,0,1,0.3,1.2,0.7c0.2-0.4,0.7-0.7,1.3-0.7
			C58.5,90.8,59.1,91.5,59.1,92.4z"/>
		<path class="st1" d="M63.5,92.5v2.3h-1.1v-0.4c-0.3,0.3-0.7,0.5-1.2,0.5c-0.8,0-1.5-0.5-1.5-1.2c0-0.8,0.7-1.3,1.6-1.3
			c0.3,0,0.7,0.1,1,0.2v-0.1c0-0.4-0.3-0.8-0.9-0.8c-0.4,0-0.7,0.1-1,0.3l-0.4-0.7c0.6-0.3,1.1-0.4,1.6-0.4
			C62.8,90.8,63.5,91.5,63.5,92.5z M62.4,93.6v-0.4c-0.3-0.1-0.5-0.1-0.8-0.1c-0.4,0-0.7,0.2-0.7,0.6c0,0.3,0.3,0.5,0.7,0.5
			C61.9,94.2,62.3,94,62.4,93.6z"/>
		<path class="st1" d="M66.7,92.7l1.5,2.2h-1.3l-1-1.5l-0.5,0.5v1h-1.1v-5.3h1.1v3.1l1.5-1.7h1.3L66.7,92.7z"/>
		<path class="st1" d="M71.5,93.6l0.7,0.7c-0.3,0.4-1,0.6-1.6,0.6c-1.2,0-2.1-0.9-2.1-2.1c0-1.2,0.9-2,2-2c1.2,0,1.9,0.9,1.9,2.4
			h-2.8c0.1,0.4,0.5,0.7,0.9,0.7C70.9,94,71.3,93.8,71.5,93.6z M69.7,92.5h1.7c-0.1-0.4-0.4-0.6-0.8-0.6
			C70.2,91.8,69.8,92.1,69.7,92.5z"/>
		<path class="st1" d="M77.7,94.6c-0.2,0.2-0.6,0.3-0.9,0.3c-0.7,0-1.2-0.5-1.2-1.2v-1.9H75v-0.9h0.5v-1.1h1.1v1.1h0.8v0.9h-0.8v1.7
			c0,0.3,0.2,0.4,0.4,0.4c0.2,0,0.3-0.1,0.4-0.1L77.7,94.6z"/>
		<path class="st1" d="M78.1,92.9c0-1.1,1-2,2.1-2c1.2,0,2.1,0.9,2.1,2s-1,2.1-2.1,2.1C79.1,94.9,78.1,94,78.1,92.9z M81.3,92.9
			c0-0.6-0.5-1.1-1.1-1.1c-0.6,0-1.1,0.5-1.1,1.1s0.5,1.1,1.1,1.1C80.8,94,81.3,93.5,81.3,92.9z"/>
		<path class="st1" d="M87.1,90.9v3.5c0,1-0.9,1.7-2.1,1.7c-0.7,0-1.3-0.2-1.7-0.5l0.4-0.8c0.3,0.2,0.7,0.4,1.2,0.4
			c0.7,0,1.2-0.3,1.2-0.8V94c-0.3,0.4-0.8,0.6-1.3,0.6c-1,0-1.7-0.8-1.7-1.9s0.7-1.9,1.7-1.9c0.5,0,1,0.2,1.3,0.6v-0.5H87.1z
			 M86,92.7c0-0.5-0.4-0.9-0.9-0.9c-0.6,0-0.9,0.4-0.9,0.9s0.4,0.9,0.9,0.9C85.6,93.6,86,93.2,86,92.7z"/>
		<path class="st1" d="M90.8,93.6l0.7,0.7c-0.3,0.4-1,0.6-1.6,0.6c-1.2,0-2.1-0.9-2.1-2.1c0-1.2,0.9-2,2-2c1.2,0,1.9,0.9,1.9,2.4H89
			c0.1,0.4,0.5,0.7,0.9,0.7C90.2,94,90.6,93.8,90.8,93.6z M89,92.5h1.7c-0.1-0.4-0.4-0.6-0.8-0.6C89.5,91.8,89.1,92.1,89,92.5z"/>
		<path class="st1" d="M94.9,94.6c-0.2,0.2-0.6,0.3-0.9,0.3c-0.7,0-1.2-0.5-1.2-1.2v-1.9h-0.5v-0.9h0.5v-1.1h1.1v1.1h0.8v0.9h-0.8
			v1.7c0,0.3,0.2,0.4,0.4,0.4c0.2,0,0.3-0.1,0.4-0.1L94.9,94.6z"/>
		<path class="st1" d="M99.3,92.4v2.5h-1.1v-2.3c0-0.5-0.3-0.8-0.7-0.8c-0.5,0-0.8,0.3-0.8,0.8v2.3h-1.1v-5.3h1.1v1.9
			c0.2-0.3,0.7-0.6,1.2-0.6C98.7,90.8,99.3,91.5,99.3,92.4z"/>
		<path class="st1" d="M102.9,93.6l0.7,0.7c-0.3,0.4-1,0.6-1.6,0.6c-1.2,0-2.1-0.9-2.1-2.1c0-1.2,0.9-2,2-2c1.2,0,1.9,0.9,1.9,2.4
			h-2.8c0.1,0.4,0.5,0.7,0.9,0.7C102.3,94,102.7,93.8,102.9,93.6z M101.1,92.5h1.7c-0.1-0.4-0.4-0.6-0.8-0.6
			C101.6,91.8,101.3,92.1,101.1,92.5z"/>
		<path class="st1" d="M107.1,90.8v0.9c-0.8,0-1.3,0.5-1.3,1.2v1.9h-1.1v-3.9h1.1v0.7C106,91.2,106.5,90.8,107.1,90.8z"/>
	</g>
	<g>
		<polygon class="st0" points="46.9,65.9 37.7,65.9 33.1,65.9 33.1,65.9 33.1,74.3 37.7,74.3 37.7,70.5 46.9,70.5 46.9,74.3 
			51.4,74.3 51.4,65.9 51.4,65.9 		"/>
		<polygon class="st0" points="46.9,77.1 37.7,77.1 37.7,75.1 33.1,75.1 33.1,84.2 37.7,84.2 37.7,81.7 46.9,81.7 51.4,81.7 
			51.4,81.7 51.4,75.1 46.9,75.1 		"/>
		<rect x="10.1" y="75.1" class="st0" width="4.6" height="9.1"/>
		<polygon class="st0" points="23.8,65.9 14.7,65.9 10.1,65.9 10.1,65.9 10.1,74.3 14.7,74.3 14.7,70.5 23.8,70.5 23.8,74.3 
			28.4,74.3 28.4,65.9 28.4,65.9 		"/>
		<rect x="23.8" y="75.1" class="st0" width="4.6" height="9.1"/>
		<rect x="56.2" y="65.9" class="st0" width="4.6" height="8.4"/>
		<rect x="56.2" y="75.1" class="st0" width="4.6" height="9.1"/>
		<rect x="0.8" y="65.9" class="st0" width="4.6" height="8.4"/>
		<rect x="0.8" y="75.1" class="st0" width="4.6" height="9.1"/>
		<polygon class="st0" points="88.6,65.8 88.6,76.4 93.2,76.4 93.2,70.4 102.4,70.4 102.4,75.8 107,75.8 107,65.8 		"/>
		<polygon class="st0" points="102.4,79.6 93.2,79.6 93.2,79.6 88.6,79.6 88.6,84.2 107,84.2 107,76.4 102.4,76.4 		"/>
		<polygon class="st0" points="70.4,70.7 78.8,70.7 79.2,74.3 83.7,74.3 83,66.2 78.4,66.2 78.5,66.2 70.8,66.2 70.8,66.2 
			66.3,66.2 65.6,74.3 70.1,74.3 		"/>
		<polygon class="st0" points="79.2,75.1 79.4,77.3 69.9,77.3 70.1,75.1 65.5,75.1 64.7,84.2 69.3,84.2 69.5,81.9 79.8,81.9 
			80,84.2 84.6,84.2 83.8,75.1 		"/>
	</g>
</g>
</svg>
