<?xml version="1.0" encoding="utf-8"?>
<!-- Generator: Adobe Illustrator 22.0.0, SVG Export Plug-In . SVG Version: 6.00 Build 0)  -->
<svg version="1.1" id="Layer_1" xmlns="http://www.w3.org/2000/svg" xmlns:xlink="http://www.w3.org/1999/xlink" x="0px" y="0px"
	 viewBox="0 0 119.1 52.7" style="enable-background:new 0 0 119.1 52.7;" xml:space="preserve">
<style type="text/css">
	.st0{fill:#FFFFFF;}
</style>
<g>
	<g>
		<path class="st0" d="M45,39.9c1-2.4,1.3-5.1,0.5-8.1l0-0.1c-0.8-2.5-2.3-4.7-4.5-6.4c-3.1-2.4-7.4-4.1-11.9-4.7
			c1.4,1.4,2.3,3.3,2.4,5.5c0,0,0,0,0,0c0,0.1,0,0.2,0,0.3c0,4.5-3.6,8.1-8.1,8.1h-4.5v0H5.4c-2.5,0-4.5,2-4.5,4.5v8.8
			c0,2.5,2,4.5,4.5,4.5h13.2v0h3.1c0.2,0,0.4,0,0.6,0c0.2,0,0.4,0,0.6,0h0c0.1,0,0.2,0,0.3,0c0.1,0,0.1,0,0.2,0
			c1.5-0.1,1.5-0.1,1.5-0.1c3.6-0.2,7-1.2,10.2-2.9C39.4,47.3,43.2,44,45,39.9z"/>
		<path class="st0" d="M49.2,23.8c-0.6-5.9-3.2-11.4-7.4-15.7c-4.8-4.9-11.3-7.6-18.1-7.7c-0.1,0-0.3,0-0.3,0c-0.1,0-0.2,0-0.3,0h0
			c-0.2,0-0.4,0-0.6,0c-0.2,0-0.4,0-0.6,0c0,0-3.1,0-3.1,0H5.4c-2.5,0-4.5,2-4.5,4.5v3.7v13.3v3.7c0,2.5,2,4.5,4.5,4.5h8.8
			c2.5,0,4.5-2,4.5-4.5v-3.7v-0.2c0.1-0.4,0.2-0.9,0.5-1.3c0.6-0.9,1.6-1.5,2.6-1.9c9.5-3.3,22.6,2.7,25.5,12.6l0,0.1
			c0.1,0.2,0.5,1.7,0.6,3.6c0.5-1.3,0.9-2.7,1.1-4.2c0.1-0.5,0.1-1,0.2-1.4c0-0.1,0-0.1,0-0.2c0-0.1,0-0.2,0-0.3c0-0.1,0-0.2,0-0.3
			c0-0.1,0-0.2,0-0.3c0-0.1,0-0.2,0-0.3c0-0.1,0-0.2,0-0.3c0-0.1,0-0.2,0-0.4c0-0.1,0-0.1,0-0.2c0-0.2,0-0.4,0-0.6
			C49.3,25.5,49.2,24.6,49.2,23.8z"/>
	</g>
	<g>
		<path class="st0" d="M89.2,37.4h-1.7c-0.7,0-1.2,0.6-1.2,1.4V49c0,0.7,0.6,1.4,1.2,1.4h1.7c0.7,0,1.2-0.6,1.2-1.4V38.7
			C90.5,38,89.9,37.4,89.2,37.4z"/>
		<path class="st0" d="M55.4,37.4h-1.7c-0.7,0-1.2,0.6-1.2,1.4V49c0,0.7,0.5,1.4,1.2,1.4h1.7c0.7,0,1.2-0.6,1.2-1.4V38.7
			C56.6,38,56.1,37.4,55.4,37.4z"/>
		<path class="st0" d="M69.4,37.6h-1.6c-0.5,0-0.9,0.4-0.9,0.9v5l-4-5.5c0,0,0,0,0-0.1c-0.1-0.2-0.4-0.4-0.7-0.4h-1.8
			c-0.5,0-0.8,0.4-0.8,0.8V49c0,0.5,0.4,0.8,0.8,0.8h1.8c0.5,0,0.8-0.4,0.8-0.8v-4.9l4,5.5c0.1,0.1,0.7,0.4,0.8,0.4h1.6
			c0.5,0,0.9-0.4,0.9-0.9V38.6C70.4,38,70,37.6,69.4,37.6z"/>
		<path class="st0" d="M118.2,43.3c-0.1-1.4-0.8-2.8-1.8-3.8c-1.2-1.2-2.7-1.8-4.4-1.9c0,0-0.1,0-0.1,0c0,0-0.1,0-0.1,0h0
			c0,0-0.1,0-0.1,0c-0.1,0-0.1,0-0.1,0h-0.7v0h-3.2c-0.6,0-1.1,0.5-1.1,1.1v0.9v3.2v0.9c0,0.6,0.5,1.1,1.1,1.1h2.1
			c0.4,0,0.7-0.2,0.9-0.5c0.3-0.4,0.1-0.9,0.2-1.4c0.1-0.7,0.7-1,1.3-1c0.1,0,0.1,0,0.2,0c0.2,0,0.4,0.1,0.5,0.2c0,0,0,0,0,0
			c0.6,0.3,1,0.9,1.1,1.7c0,0,0,0,0,0c0,0,0,0,0,0.1c0,1.1-0.9,2-2,2h-1.1v0h-3.2c-0.6,0-1.1,0.5-1.1,1.1v2.1c0,0.6,0.5,1.1,1.1,1.1
			h3.2v0h0.8c0,0,0.1,0,0.1,0c0,0,0.1,0,0.1,0h0c0,0,0.1,0,0.1,0c0,0,0,0,0.1,0c0.4,0,0.4,0,0.4,0c1.8-0.1,3.5-1,4.5-2.4
			c0,0,0,0,0,0c0,0,0,0,0,0c0,0,0.1-0.1,0.2-0.2c0.3-0.4,0.5-0.8,0.7-1.2c0.2-0.4,0.3-0.9,0.4-1.4c0-0.1,0-0.2,0-0.3c0,0,0,0,0,0
			c0,0,0-0.1,0-0.1c0,0,0,0,0-0.1c0,0,0-0.1,0-0.1c0,0,0,0,0-0.1c0,0,0,0,0-0.1c0,0,0-0.1,0-0.1c0,0,0,0,0-0.1c0,0,0-0.1,0-0.1h0
			C118.3,43.8,118.3,43.5,118.2,43.3z"/>
		<path class="st0" d="M105.4,49l-4.2-10.9c-0.1-0.3-0.4-0.5-0.8-0.5h-2.9c-0.3,0-0.6,0.2-0.8,0.5L92.6,49c-0.2,0.5,0.2,1.1,0.8,1.1
			h2.3c0.3,0,0.6-0.2,0.8-0.5l0.2-0.6c0.1-0.3,0.4-0.5,0.8-0.5h1.7v0h0.5c0.3,0,0.5-0.3,0.4-0.6l-0.5-1.6c-0.1-0.2-0.2-0.3-0.4-0.3
			h-0.5v0h-0.6c-0.2,0-0.4-0.2-0.3-0.4l0.9-2.4c0.1-0.3,0.5-0.3,0.6,0l0.6,1.6l0.3,0.8c0,0,0.9,2.5,1.2,3.6l0.1,0.4
			c0.1,0.3,0.4,0.5,0.8,0.5h2.3C105.2,50.1,105.6,49.5,105.4,49z"/>
		<path class="st0" d="M79.2,37.6h-5.3c-0.4,0-0.7,0.3-0.7,0.7v11c0,0.4,0.3,0.7,0.7,0.7H76c0.4,0,0.7-0.3,0.7-0.7v-2.3c0,0,0,0,0,0
			v-4.7c0,0,0,0,0,0v-0.9c0-0.4,0.3-0.7,0.7-0.7h1.4c0.8,0,1.4,0.5,1.4,1.2c0,0.7-0.6,1.2-1.4,1.2h0h-0.6c-0.3,0-0.5,0.2-0.5,0.5
			v2.2c0,0.3,0.2,0.5,0.5,0.5H79l0,0h0.2c2.8,0,4.8-1.8,4.8-4.4C84,39.4,82,37.6,79.2,37.6z"/>
	</g>
</g>
</svg>
