<?xml version="1.0" encoding="utf-8"?>
<!-- Generator: Adobe Illustrator 16.0.0, SVG Export Plug-In . SVG Version: 6.00 Build 0)  -->
<!DOCTYPE svg PUBLIC "-//W3C//DTD SVG 1.1//EN" "http://www.w3.org/Graphics/SVG/1.1/DTD/svg11.dtd">
<svg version="1.1" id="Layer_1" xmlns="http://www.w3.org/2000/svg" xmlns:xlink="http://www.w3.org/1999/xlink" x="0px" y="0px"
	 width="33.65px" height="24.85px" viewBox="0 0 33.65 24.85" enable-background="new 0 0 33.65 24.85" xml:space="preserve">
<g>
	<g>
		<path fill="#708DB1" d="M3.759,0C1.696,0,0,1.697,0,3.758v3.151v4.072v10.109c0,2.062,1.695,3.758,3.759,3.758h26.146
			c2.062,0,3.747-1.696,3.747-3.758V10.982V6.909V3.758C33.651,1.697,31.965,0,29.904,0H3.759z M3.759,2.104h26.146
			c0.933,0,1.646,0.724,1.646,1.654v2.104H2.104V3.758C2.104,2.826,2.825,2.104,3.759,2.104z M2.104,7.966h29.445v1.97H2.104V7.966z
			 M2.104,12.041h29.445v9.051c0,0.933-0.713,1.653-1.646,1.653H3.759c-0.934,0-1.655-0.722-1.655-1.653V12.041z M5.101,14.953
			c-0.579,0.043-1.018,0.548-0.973,1.128c0.041,0.562,0.517,0.99,1.081,0.975h7.347c0.58,0.013,1.062-0.448,1.073-1.028
			c0.014-0.579-0.446-1.063-1.029-1.073c-0.013,0-0.03,0-0.044,0H5.209C5.174,14.951,5.137,14.951,5.101,14.953z M5.209,18.103
			c-0.58-0.013-1.062,0.449-1.073,1.029c-0.015,0.581,0.445,1.063,1.026,1.075c0.016,0,0.03,0,0.047,0h3.136
			c0.582,0.013,1.063-0.449,1.076-1.029s-0.447-1.063-1.027-1.075c-0.016,0-0.031,0-0.049,0H5.209z"/>
	</g>
</g>
</svg>
