<?xml version="1.0" encoding="utf-8"?>
<!-- Generator: Adobe Illustrator 16.0.0, SVG Export Plug-In . SVG Version: 6.00 Build 0)  -->
<!DOCTYPE svg PUBLIC "-//W3C//DTD SVG 1.1//EN" "http://www.w3.org/Graphics/SVG/1.1/DTD/svg11.dtd">
<svg version="1.1" id="Layer_1" xmlns="http://www.w3.org/2000/svg" xmlns:xlink="http://www.w3.org/1999/xlink" x="0px" y="0px"
	 width="1016.5px" height="157.457px" viewBox="0 -25.543 1016.5 157.457" enable-background="new 0 -25.543 1016.5 157.457"
	 xml:space="preserve">
<g>
	<path fill="#708DB1" d="M17.788,102.982c1.219-1.22,1.219-1.22,2.439-2.438c2.439-1.22,6.098-1.22,8.537-1.22
		c28.049,0,56.098,0,82.927,0c4.878,0,9.756-1.221,14.634,3.657c-2.439,3.658-4.878,2.439-8.537,2.439c-32.927,0-67.073,0-100,0
		C17.788,104.202,17.788,102.982,17.788,102.982z"/>
	<path fill="#708DB1" d="M369.006-15.312c-20.73,15.854-41.463,31.708-60.976,47.563c-7.317,4.878-4.878,9.756,0,15.854
		c13.417,17.073,26.83,34.146,39.024,50c-2.438,4.878-7.315,3.658-10.976,3.658c-18.293,0-36.585,0-54.878,0
		c-1.22,0-2.439,0-3.659,0c-7.317-9.756-15.854-20.73-23.17-30.486c-4.878-6.099-7.317-4.879-12.195-1.221
		c-13.415,10.977-26.829,21.951-40.244,31.707c-17.073,1.221-32.927,0-50,1.221c-2.438,0-3.658-1.221-3.658-3.658
		c23.17-19.514,47.561-39.023,71.951-57.316c3.659-3.659,4.878-4.878,1.22-9.756C209.25,17.618,197.054,1.766,184.86-14.089
		c0-3.657,0-4.878,3.658-4.878c21.951,1.221,42.683-1.221,64.634,1.221c6.098,8.535,13.415,17.072,19.512,26.828
		c3.659,6.099,6.098,4.879,9.756,1.221c10.976-9.757,23.17-18.293,34.146-28.049c15.854-3.659,31.707-1.221,48.78-1.221
		C365.348-18.97,367.787-17.749,369.006-15.312z"/>
	<path fill="#708DB1" d="M564.129,52.982c-12.195,13.415-20.732,29.271-30.488,43.902c-3.658,6.098-23.17,10.977-29.268,7.316
		c-2.439-1.221-2.439-4.878-2.439-7.316c-3.657-15.854-8.536-32.928-12.194-51.221c-2.438,7.316-3.658,12.194-4.878,17.073
		c-1.222,0-1.222-1.22-1.222-1.22s0,0,0,1.22c0,2.438,0,3.658,1.222,6.099c-1.222,7.316-2.438,15.854-4.879,21.95
		c-1.221-1.221-1.221-2.438,0-3.657c-2.438,1.22-2.438,2.438-2.438,2.438c0,2.439,0,4.88,0,6.1c0,6.098-2.439,8.536-9.757,8.536
		c-8.536-1.221-19.512,3.657-24.39-2.438c-3.659-3.658,2.438-15.854,4.878-23.171c4.878-15.854,8.534-32.928,13.412-48.781
		c2.439-7.316,7.317-8.536,13.416-8.536c14.635,0,29.269,1.22,43.902-1.22c4.877,13.415,4.877,26.83,9.756,41.464
		c10.977-13.415,20.732-25.61,30.488-39.025c9.756-3.657,19.512-1.22,29.268-2.438c6.1,0,12.195,0,18.293,0
		c3.658,0,7.316,1.22,7.316,6.098c-6.098,23.172-13.414,47.563-21.951,70.732c-9.756,6.098-21.951,2.438-32.926,2.438
		c-3.66,0-2.439-4.878-3.66-7.316c0-6.099,1.221-10.977,3.66-15.854c3.658,2.438,3.658,3.657,3.658,4.878c0-2.438,0-3.658,0-6.099
		c1.219-7.316,2.438-13.415,3.658-20.73l1.219-1.221v-1.22c0,0,0,0-1.219,0S565.348,52.982,564.129,52.982z"/>
	<path fill="#708DB1" d="M126.323,102.982c-31.708,0-62.195,0-93.903,0c-4.878,0-8.537,0-12.195-2.438
		c7.317-26.829,14.634-52.438,24.39-78.05c31.708-1.22,63.415,2.438,95.122,1.221c2.439,0,6.098,0,7.317,2.438
		c0,3.657-1.219,7.316-3.658,9.756c-9.756-2.438-19.513,0-30.488,0c-9.756,0-18.292,0-26.829,0c18.293,0,37.805-2.438,58.537,1.221
		c-19.512,2.438-39.024,0-57.317,1.22c-4.878,0-8.537,0-9.756,6.099c-1.219,4.878-1.219,6.098,4.878,6.098
		c12.195,0,24.391,0,35.366,0c2.439,0,8.537-2.438,7.317,3.658c-1.22,4.879,1.22,12.194-8.537,12.194c-12.195,0-23.17,1.22-35.366,0
		c-9.756-1.22-14.634,2.438-14.634,12.194c0,2.438-1.219,4.879-1.219,7.316c2.439,3.657,7.317,1.221,9.756,1.221
		c14.634,0,30.488,0,45.122,0c3.658,0,7.317-1.221,9.756,2.438C129.982,94.446,131.202,99.324,126.323,102.982z"/>
	<path fill="#708DB1" d="M1004.373,27.372c-12.195,14.635-26.83,25.609-41.465,37.806c-6.1,4.878-10.977,12.195-12.195,20.73
		c-1.219,3.657-2.438,7.316-3.658,10.977c-2.438,3.658-6.098,6.098-12.193,6.098c-8.535-1.22-17.072,2.439-25.609-2.438
		c0-2.438,0-6.098,1.221-8.536c1.221,1.22,1.221,2.438,0,2.438c1.221,0,1.221-1.221,1.221-2.438c0-2.439,0-3.658-1.221-6.099
		c1.221-4.878,1.221-9.756,2.438-14.635c1.219-4.878,0-8.536-3.658-12.193c-9.756-12.195-18.293-24.393-29.27-39.025
		c14.635,0,26.828,0,39.023,0c3.658,0,4.879,2.438,7.318,4.878c3.656,6.099,7.314,10.977,10.975,17.074
		c3.658,7.316,7.316,6.098,12.195,1.22c7.314-7.317,15.854-13.416,23.17-20.732c7.316,0,14.635,0,20.73,0
		C1000.715,22.493,1004.373,21.274,1004.373,27.372z"/>
	<path fill="#708DB1" d="M432.421,24.934c-7.317,26.83-14.635,52.439-24.391,78.049c-10.978,2.439-21.951,0-32.929,1.221
		c-2.438,0-3.656-1.221-4.878-2.438c7.317-26.829,13.414-52.438,23.171-78.049c9.758,1.22,18.292,0,28.051,0
		C425.104,22.493,428.762,21.274,432.421,24.934z"/>
	<path fill="#708DB1" d="M728.762,24.934c-23.17,0-46.34,0-70.729,0c-4.879,0-10.979,0-15.855,2.438
		c0-3.658,1.221-6.099,4.879-6.099c28.049,1.22,56.1-1.22,85.365,1.22c0,0,0,0,1.219,0
		C732.422,23.714,728.762,22.493,728.762,24.934z"/>
	<path fill="#708DB1" d="M621.445,100.543c28.049,0,54.879,0,82.928,0c1.219,2.438,4.877,0,6.098,2.438
		c-6.098,2.439-12.193,1.221-18.293,1.221c-21.951,0-43.9,0-65.854,0C625.104,104.202,619.006,106.641,621.445,100.543z"/>
	<path fill="#708DB1" d="M520.227,21.274c0,2.438,0,3.658-3.656,3.658c-12.195-1.22-24.393,0-35.367,0
		c-7.317,0-13.415,0-18.293,6.099c0-7.316,3.659-10.977,10.976-9.757C488.519,21.274,504.373,18.836,520.227,21.274z"/>
	<path fill="#708DB1" d="M369.006-15.312c-9.756-4.878-19.512-1.219-28.049-2.438c-8.536,0-17.073,0-24.39,0
		c1.219-2.439,4.878-3.659,7.314-3.659c17.073,0,34.146,0,52.439,0C373.884-17.749,371.446-16.529,369.006-15.312z"/>
	<path fill="#708DB1" d="M615.348,28.592c-2.438-3.658-6.098-3.658-10.975-3.658c-14.635,0-29.271,0-45.123,0
		c1.221-3.658,3.658-3.658,7.318-3.658c14.633,0,29.268,0,43.9,0C620.227,21.274,617.787,23.714,615.348,28.592z"/>
	<path fill="#708DB1" d="M147.055,26.151c-2.439-2.438-7.317-1.22-10.976-1.22c-26.829,0-54.878,0-81.707,0
		c-3.659,0-7.317,1.22-10.976-2.438l0,0c14.634-2.438,28.049-1.22,42.683,0c19.512,0,37.805,0,57.317,0
		C147.055,21.274,149.495,22.493,147.055,26.151z"/>
	<path fill="#708DB1" d="M558.031,94.446c2.438,3.657,4.877,6.098,9.756,6.098c8.537-1.22,18.293,0,26.83-1.22
		c0,4.878-2.439,4.878-6.1,4.878c-7.316,0-15.854-1.221-23.172,0C556.811,105.422,554.373,101.763,558.031,94.446z"/>
	<path fill="#708DB1" d="M251.934-17.749c-19.512,0-40.244,0-59.756,0c-3.659,0-7.317-1.221-8.537,3.657
		c-1.22-1.221-3.659-2.438-3.659-4.878c0,0,2.439-1.221,3.659-1.221c21.951,0,43.902,0,65.854,0
		C250.713-20.188,250.713-18.97,251.934-17.749z"/>
	<path fill="#708DB1" d="M432.421,24.934c-9.756,0-19.513,0-29.269,0c-3.658,0-7.317,1.221-9.758-2.438
		c12.194-2.438,24.392,0,36.585-1.22C432.421,21.274,432.421,22.493,432.421,24.934z"/>
	<path fill="#708DB1" d="M910.471,100.543c7.316,0,15.854,0,23.17,0c4.879,0,9.758-1.22,13.414-3.658
		c0,4.878-1.219,8.537-8.535,8.537c-8.537,0-15.854,0-24.391,0C911.689,104.202,909.25,105.422,910.471,100.543z"/>
	<path fill="#708DB1" d="M276.323,102.982h1.219c18.293-1.22,36.585,0,54.878-1.22c4.878,0,9.756,0,14.634-1.22
		c1.222,1.22,3.658,3.658,0,3.658c-23.171,0-46.341,0-69.512,0L276.323,102.982z"/>
	<path fill="#708DB1" d="M348.275,100.543c-2.439,2.438-6.1,1.22-9.758,1.22c-20.73,0-40.244,0-60.976,0
		c13.415-3.658,28.049,0,41.463-1.22c8.537-1.22,18.293,2.438,26.829-2.438C347.055,99.324,347.055,99.324,348.275,100.543z"/>
	<path fill="#708DB1" d="M131.202,90.787c-7.317-3.657-14.634-2.438-21.951-2.438c-10.976,0-23.171,0-34.146,0
		c-3.659,0-7.317,1.22-8.537-2.438c19.512,0,40.244,0,59.756,0C128.762,85.909,133.641,83.471,131.202,90.787z"/>
	<path fill="#708DB1" d="M147.055,99.324c2.439,3.657,6.098,2.438,9.756,2.438c14.634,0,29.268,0,42.683,0
		c-7.317,3.659-14.634,1.22-20.731,1.22c-9.756,0-20.732,0-30.488,0c-1.22,0-3.659,1.221-3.659-1.22
		C144.616,101.763,145.836,100.543,147.055,99.324z"/>
	<path fill="#708DB1" d="M836.08,101.763c1.219,0-2.439-7.315,3.658-2.438c7.314,4.878,30.486,1.22,35.363-4.878
		c3.66,6.098,1.223,9.756-6.098,8.535C856.811,101.763,845.836,105.422,836.08,101.763z"/>
	<path fill="#708DB1" d="M86.08,22.493c-14.634,0-28.049,0-42.683,0C58.03,20.056,72.666,21.274,86.08,22.493z"/>
	<path fill="#708DB1" d="M858.031,21.274c-13.414,1.22-26.83,2.438-40.244,0C831.201,21.274,845.836,17.615,858.031,21.274z"/>
	<path fill="#708DB1" d="M370.226,100.543c12.195,4.879,25.609,1.22,37.807,2.438c-12.195,4.878-25.609,1.221-37.807,1.221
		C367.787,104.202,370.226,101.763,370.226,100.543z"/>
	<path fill="#708DB1" d="M792.178,87.129c1.219-3.658,4.877-2.439,7.316-2.439c10.977,1.221,21.951-2.438,31.707,2.439
		C819.006,87.129,805.592,87.129,792.178,87.129z"/>
	<path fill="#708DB1" d="M751.934,96.885c1.221,4.878,4.877,3.658,8.537,3.658c6.1,1.22,13.414-2.438,19.512,2.438
		c-8.535,0-17.072,0-25.607,1.221c-2.439,0-4.879,1.221-6.1-1.221C748.275,99.324,750.713,98.104,751.934,96.885z"/>
	<path fill="#708DB1" d="M1004.373,27.372c-4.879-4.879-10.979-1.221-15.855-2.438c-3.658-1.22-8.535,1.221-12.193-2.438l0,0
		c9.756-2.438,19.512,0,29.268-1.22c2.439,0,3.66,0,3.66,3.658C1008.031,27.372,1005.592,26.151,1004.373,27.372z"/>
	<path fill="#708DB1" d="M1008.031,24.934c-10.979-4.878-21.951-1.22-32.93-2.438c10.979-3.657,21.951-1.22,32.93-1.22
		C1011.689,21.274,1010.471,23.714,1008.031,24.934z"/>
	<path fill="#708DB1" d="M710.471,102.982c-2.438,0-4.879,0-6.098-2.438c3.658,0,8.535-1.22,12.195,1.22
		C714.129,102.982,712.908,102.982,710.471,102.982z"/>
	<path fill="#708DB1" d="M477.543,96.885c-2.439-2.438-1.22-4.878-1.22-7.317c0-1.219,1.22-1.219,1.22,0v1.221
		C477.543,93.227,477.543,94.446,477.543,96.885z"/>
	<path fill="#708DB1" d="M483.64,68.836c-2.438-1.221-1.219-3.658-1.219-6.099c0-1.221,0-2.438,1.219-1.221
		c1.222,0,1.222,1.221,1.222,2.438C483.64,65.178,483.64,66.397,483.64,68.836z"/>
	<path fill="#708DB1" d="M869.006,70.056c-3.658-2.438-2.438-4.878-1.219-7.316C867.787,65.178,867.787,67.616,869.006,70.056z"/>
	<path fill="#708DB1" d="M567.787,54.202c-1.219,0-1.219,0-2.439,0c-1.219,0-1.219,0-1.219-1.221
		c-1.221-3.657,1.219-4.878,2.439-6.098C570.227,49.324,569.006,51.763,567.787,54.202z"/>
	<path fill="#708DB1" d="M562.908,74.934c2.438,2.439,2.438,4.878,0,9.756c0-2.438-1.219-4.878-1.219-6.098
		C561.689,77.373,561.689,76.152,562.908,74.934z"/>
	<path fill="#708DB1" d="M728.762,24.934c1.221-1.22,2.439-2.438,4.879-2.438c1.221,0,3.658,0,4.879,1.221
		C734.859,26.151,731.201,23.714,728.762,24.934z"/>
	<path fill="#708DB1" d="M912.908,87.129c2.438,2.438,1.221,4.878,1.221,7.316c0,0-1.221,0-1.221,1.219
		c0-1.219-1.219-1.219-1.219-2.438C911.689,90.787,912.908,88.349,912.908,87.129z"/>
	<path fill="#708DB1" d="M567.787,54.202c0-2.438,0-4.878,0-7.316C570.227,49.324,572.664,51.763,567.787,54.202z"/>
	<ellipse fill="#708DB1" cx="682.422" cy="89.567" rx="21.951" ry="1.219"/>
	<path fill="#708DB1" d="M701.934,70.056c-10.977-3.658-20.73-1.22-31.707-1.22C681.201,66.397,692.178,62.738,701.934,70.056z"/>
	<path fill="#708DB1" d="M673.885,54.202c9.756,0,19.512,0,29.27-1.221c-9.758,6.099-19.514,1.221-29.27,2.439
		C673.885,55.422,673.885,55.422,673.885,54.202C673.885,55.422,673.885,54.202,673.885,54.202z"/>
	<path fill="#708DB1" d="M703.152,38.349c-8.535,0-18.293,0-26.828,0c9.756-4.878,19.512-1.22,29.268-2.438
		C705.592,37.129,704.373,38.349,703.152,38.349z"/>
	<path fill="#708DB1" d="M144.616,37.129c-20.732,0-41.463,0-62.195,0c0-1.221,0-1.221,0-2.439
		C103.152,35.908,123.884,31.03,144.616,37.129L144.616,37.129z"/>
	<path fill="#708DB1" d="M119.006,54.202c-13.415,0-28.049,0-41.463,0v-1.221C92.177,52.982,105.591,52.982,119.006,54.202
		C119.006,52.982,119.006,54.202,119.006,54.202z"/>
	<path fill="#708DB1" d="M869.006,70.056c-3.658-2.438-1.219-4.878-1.219-7.316c-2.439-13.414-6.1-26.83-8.537-41.464
		c-13.414-1.22-26.828,1.22-40.244-1.22c-9.756,0-9.756,8.536-14.633,13.415c-18.293,19.512-34.146,41.463-51.221,62.195
		c-2.439,4.878,1.221,4.878,4.879,4.878c7.314,0,15.854-1.22,23.17,1.22c6.098-3.658,8.537-9.756,12.195-14.634
		c12.193-3.658,25.607-2.439,39.023,0c3.658,4.878,1.219,9.756,3.658,14.634c9.756,0,19.512,0,30.486,0
		c6.1,0,7.316-2.438,8.537-7.315C872.666,85.909,871.445,77.373,869.006,70.056z M827.543,68.836
		c-7.316-1.221-14.635,2.438-21.951-1.221c6.098-9.757,9.756-19.513,19.512-25.608c7.318,2.438,6.1,6.098,4.879,10.976
		c0,3.658,0,8.536,1.221,12.195C832.422,67.616,831.201,68.836,827.543,68.836z"/>
	<path fill="#708DB1" d="M806.811,67.616c7.318,0,15.855,0,23.172,1.221c1.221-1.221,1.221-1.221,2.439,0
		C823.885,71.275,815.348,72.494,806.811,67.616z"/>
	<path fill="#708DB1" d="M829.982,52.982c-1.221-3.657,0-8.535-3.656-9.756C832.422,42.007,833.641,44.446,829.982,52.982z"/>
	<path fill="#708DB1" d="M832.422,68.836c-1.221,0-1.221,0-2.439,0c1.221-1.221,1.221-2.438,2.439-3.658
		c0-1.221,0-3.659,1.219-6.099C834.859,63.957,834.859,66.397,832.422,68.836z"/>
	<path fill="#708DB1" d="M751.934,38.349c0-8.537-6.098-13.415-14.635-15.854c-3.658,1.221-8.537-1.22-12.195,0
		c-23.17,0-47.561,0-70.729,0c-4.879,0-9.756,0-12.195,3.659c-7.316,24.391-14.635,48.78-20.73,74.391
		c3.658,3.658,7.314,2.438,10.977,2.438c23.17,0,46.34,0,69.512,0c4.879,1.221,9.756-2.438,14.637,0
		c6.098,0,10.975-2.438,15.854-6.098c7.316-6.099,13.414-12.195,12.195-21.951c0-8.536-8.537-8.536-13.416-10.977v-1.22
		C739.738,56.641,751.934,51.763,751.934,38.349z M692.178,87.129c-8.537,0-18.293,0-28.049,0
		c2.439-7.317,4.877-12.195,6.098-18.293c10.977,0,21.951-3.658,31.707,1.22C706.811,82.251,703.152,87.129,692.178,87.129z
		 M704.373,52.982c-9.756,3.658-19.514,2.439-29.271,1.221c-1.219-4.878,2.439-9.756,2.439-15.854c8.537-2.438,18.293-2.438,26.83,0
		c2.438,1.219,7.314,1.219,7.314,6.099C710.471,50.543,708.031,51.763,704.373,52.982z"/>
</g>
</svg>
