<?xml version="1.0" encoding="utf-8"?>
<!-- Generator: Adobe Illustrator 16.0.0, SVG Export Plug-In . SVG Version: 6.00 Build 0)  -->
<!DOCTYPE svg PUBLIC "-//W3C//DTD SVG 1.1//EN" "http://www.w3.org/Graphics/SVG/1.1/DTD/svg11.dtd">
<svg version="1.1" id="Layer_1" xmlns="http://www.w3.org/2000/svg" xmlns:xlink="http://www.w3.org/1999/xlink" x="0px" y="0px"
	 width="1000px" height="131.914px" viewBox="0 436.586 1000 131.914" enable-background="new 0 436.586 1000 131.914"
	 xml:space="preserve">
<g>
	<path fill="#999999" d="M3.659,563.421c1.219-1.22,1.219-1.22,2.439-2.438c2.439-1.219,6.098-1.219,8.537-1.219
		c28.049,0,56.098,0,82.927,0c4.878,0,9.756-1.221,14.634,3.657c-2.439,3.658-4.878,2.439-8.537,2.439c-32.927,0-67.073,0-100,0
		C3.659,564.641,3.659,563.421,3.659,563.421z"/>
	<path fill="#999999" d="M354.878,445.127c-20.731,15.854-41.463,31.708-60.976,47.563c-7.317,4.878-4.878,9.756,0,15.854
		c13.416,17.073,26.829,34.146,39.024,50c-2.438,4.878-7.316,3.658-10.976,3.658c-18.293,0-36.585,0-54.878,0
		c-1.22,0-2.439,0-3.659,0c-7.317-9.756-15.854-20.73-23.17-30.486c-4.878-6.099-7.317-4.879-12.195-1.221
		c-13.415,10.977-26.829,21.951-40.244,31.707c-17.073,1.221-32.927,0-50,1.221c-2.438,0-3.658-1.221-3.658-3.658
		c23.17-19.514,47.561-39.024,71.951-57.317c3.659-3.659,4.878-4.878,1.22-9.756c-12.195-14.635-24.391-30.488-36.585-46.342
		c0-3.658,0-4.878,3.658-4.878c21.951,1.22,42.683-1.221,64.634,1.22c6.098,8.536,13.415,17.073,19.512,26.829
		c3.659,6.098,6.098,4.878,9.756,1.22c10.976-9.757,23.17-18.293,34.146-28.049c15.854-3.659,31.707-1.22,48.78-1.22
		C351.22,441.469,353.658,442.689,354.878,445.127z"/>
	<path fill="#999999" d="M550,513.421c-12.195,13.415-20.731,29.27-30.488,43.902c-3.658,6.098-23.17,10.977-29.268,7.317
		c-2.439-1.221-2.439-4.878-2.439-7.317c-3.657-15.854-8.535-32.927-12.194-51.22c-2.438,7.316-3.658,12.194-4.878,17.073
		c-1.221,0-1.221-1.22-1.221-1.22s0,0,0,1.22c0,2.438,0,3.658,1.221,6.098c-1.221,7.317-2.438,15.854-4.879,21.951
		c-1.22-1.221-1.22-2.438,0-3.658c-2.438,1.22-2.438,2.438-2.438,2.438c0,2.439,0,4.88,0,6.099c0,6.098-2.439,8.537-9.757,8.537
		c-8.536-1.221-19.512,3.657-24.39-2.439c-3.659-3.658,2.438-15.854,4.878-23.171c4.878-15.854,8.535-32.927,13.413-48.781
		c2.439-7.316,7.317-8.536,13.416-8.536c14.634,0,29.269,1.22,43.901-1.22c4.878,13.415,4.878,26.83,9.756,41.464
		c10.977-13.415,20.732-25.61,30.488-39.025c9.756-3.658,19.512-1.22,29.269-2.438c6.099,0,12.194,0,18.292,0
		c3.659,0,7.317,1.22,7.317,6.098c-6.098,23.172-13.415,47.562-21.951,70.732c-9.756,6.098-21.951,2.439-32.927,2.439
		c-3.659,0-2.439-4.878-3.659-7.317c0-6.098,1.22-10.976,3.659-15.854c3.658,2.438,3.658,3.657,3.658,4.878c0-2.439,0-3.658,0-6.099
		c1.22-7.316,2.438-13.415,3.659-20.73l1.219-1.221v-1.22c0,0,0,0-1.219,0C551.22,512.201,551.22,513.421,550,513.421z"/>
	<path fill="#999999" d="M112.195,563.421c-31.708,0-62.195,0-93.903,0c-4.878,0-8.537,0-12.195-2.438
		c7.317-26.829,14.634-52.438,24.39-78.049c31.708-1.22,63.415,2.438,95.122,1.22c2.439,0,6.098,0,7.317,2.439
		c0,3.657-1.219,7.316-3.658,9.756c-9.756-2.438-19.513,0-30.488,0c-9.756,0-18.292,0-26.829,0c18.293,0,37.805-2.438,58.537,1.22
		c-19.512,2.438-39.024,0-57.317,1.22c-4.878,0-8.537,0-9.756,6.099c-1.219,4.878-1.219,6.097,4.878,6.097
		c12.195,0,24.391,0,35.366,0c2.439,0,8.537-2.438,7.317,3.659c-1.22,4.878,1.22,12.194-8.537,12.194c-12.195,0-23.17,1.22-35.366,0
		c-9.756-1.22-14.634,2.438-14.634,12.194c0,2.439-1.219,4.879-1.219,7.317c2.439,3.657,7.317,1.22,9.756,1.22
		c14.634,0,30.488,0,45.122,0c3.658,0,7.317-1.22,9.756,2.438C115.854,554.885,117.073,559.763,112.195,563.421z"/>
	<path fill="#999999" d="M990.244,487.811c-12.195,14.634-26.83,25.609-41.464,37.805c-6.099,4.878-10.977,12.195-12.195,20.731
		c-1.22,3.657-2.438,7.316-3.658,10.976c-2.438,3.658-6.098,6.098-12.194,6.098c-8.536-1.22-17.073,2.439-25.609-2.438
		c0-2.438,0-6.097,1.22-8.536c1.22,1.22,1.22,2.439,0,2.439c1.22,0,1.22-1.221,1.22-2.439c0-2.439,0-3.658-1.22-6.098
		c1.22-4.878,1.22-9.756,2.438-14.635c1.219-4.878,0-8.536-3.658-12.194c-9.757-12.195-18.293-24.392-29.27-39.025
		c14.635,0,26.829,0,39.024,0c3.658,0,4.878,2.438,7.317,4.878c3.658,6.099,7.315,10.977,10.975,17.074
		c3.659,7.317,7.317,6.098,12.195,1.22c7.316-7.317,15.854-13.416,23.171-20.732c7.317,0,14.634,0,20.73,0
		C986.586,482.932,990.244,481.713,990.244,487.811z"/>
	<path fill="#999999" d="M418.293,485.372c-7.317,26.83-14.635,52.44-24.391,78.049c-10.977,2.439-21.951,0-32.928,1.221
		c-2.438,0-3.657-1.221-4.878-2.439c7.317-26.829,13.414-52.438,23.171-78.049c9.757,1.22,18.292,0,28.05,0
		C410.976,482.932,414.634,481.713,418.293,485.372z"/>
	<path fill="#999999" d="M714.634,485.372c-23.171,0-46.341,0-70.73,0c-4.878,0-10.977,0-15.854,2.439
		c0-3.659,1.22-6.099,4.878-6.099c28.049,1.22,56.099-1.22,85.366,1.22c0,0,0,0,1.219,0
		C718.293,484.152,714.634,482.932,714.634,485.372z"/>
	<path fill="#999999" d="M607.317,560.981c28.049,0,54.878,0,82.927,0c1.219,2.438,4.878,0,6.098,2.438
		c-6.098,2.439-12.194,1.221-18.293,1.221c-21.951,0-43.901,0-65.854,0C610.976,564.641,604.878,567.079,607.317,560.981z"/>
	<path fill="#999999" d="M506.098,481.713c0,2.438,0,3.658-3.657,3.658c-12.195-1.22-24.392,0-35.366,0
		c-7.317,0-13.415,0-18.293,6.099c0-7.317,3.659-10.977,10.976-9.757C474.391,481.713,490.244,479.274,506.098,481.713z"/>
	<path fill="#999999" d="M354.878,445.127c-9.756-4.878-19.512-1.219-28.049-2.438c-8.536,0-17.073,0-24.39,0
		c1.219-2.439,4.878-3.659,7.315-3.659c17.073,0,34.146,0,52.439,0C359.756,442.689,357.317,443.909,354.878,445.127z"/>
	<path fill="#999999" d="M601.22,489.03c-2.438-3.658-6.098-3.658-10.976-3.658c-14.635,0-29.27,0-45.122,0
		c1.22-3.658,3.658-3.658,7.317-3.658c14.634,0,29.268,0,43.901,0C606.098,481.713,603.658,484.152,601.22,489.03z"/>
	<path fill="#999999" d="M132.927,486.59c-2.439-2.438-7.317-1.22-10.976-1.22c-26.829,0-54.878,0-81.707,0
		c-3.659,0-7.317,1.22-10.976-2.438l0,0c14.634-2.438,28.049-1.22,42.683,0c19.512,0,37.805,0,57.317,0
		C132.927,481.713,135.366,482.932,132.927,486.59z"/>
	<path fill="#999999" d="M543.902,554.885c2.438,3.657,4.878,6.097,9.756,6.097c8.537-1.219,18.293,0,26.83-1.219
		c0,4.878-2.439,4.878-6.099,4.878c-7.316,0-15.854-1.221-23.171,0C542.683,565.86,540.244,562.201,543.902,554.885z"/>
	<path fill="#999999" d="M237.805,442.689c-19.512,0-40.244,0-59.756,0c-3.659,0-7.317-1.22-8.537,3.658
		c-1.22-1.221-3.659-2.438-3.659-4.878c0,0,2.439-1.221,3.659-1.221c21.951,0,43.902,0,65.854,0
		C236.585,440.25,236.585,441.469,237.805,442.689z"/>
	<path fill="#999999" d="M418.293,485.372c-9.756,0-19.513,0-29.269,0c-3.658,0-7.317,1.221-9.757-2.438
		c12.194-2.438,24.391,0,36.585-1.22C418.293,481.713,418.293,482.932,418.293,485.372z"/>
	<path fill="#999999" d="M896.342,560.981c7.316,0,15.854,0,23.17,0c4.879,0,9.758-1.219,13.415-3.658
		c0,4.878-1.22,8.537-8.536,8.537c-8.537,0-15.854,0-24.391,0C897.561,564.641,895.122,565.86,896.342,560.981z"/>
	<path fill="#999999" d="M262.195,563.421h1.219c18.293-1.22,36.585,0,54.878-1.22c4.878,0,9.756,0,14.634-1.22
		c1.221,1.22,3.658,3.659,0,3.659c-23.171,0-46.341,0-69.512,0L262.195,563.421z"/>
	<path fill="#999999" d="M334.146,560.981c-2.439,2.438-6.099,1.22-9.757,1.22c-20.731,0-40.244,0-60.976,0
		c13.415-3.658,28.049,0,41.463-1.22c8.537-1.219,18.293,2.438,26.829-2.438C332.927,559.763,332.927,559.763,334.146,560.981z"/>
	<path fill="#999999" d="M117.073,551.226c-7.317-3.658-14.634-2.438-21.951-2.438c-10.976,0-23.171,0-34.146,0
		c-3.659,0-7.317,1.22-8.537-2.438c19.512,0,40.244,0,59.756,0C114.634,546.348,119.512,543.909,117.073,551.226z"/>
	<path fill="#999999" d="M132.927,559.763c2.439,3.657,6.098,2.438,9.756,2.438c14.634,0,29.268,0,42.683,0
		c-7.317,3.659-14.634,1.22-20.731,1.22c-9.756,0-20.732,0-30.488,0c-1.22,0-3.659,1.221-3.659-1.22
		C130.488,562.201,131.708,560.981,132.927,559.763z"/>
	<path fill="#999999" d="M821.951,562.201c1.22,0-2.438-7.315,3.658-2.438c7.316,4.878,30.487,1.219,35.365-4.878
		c3.659,6.097,1.221,9.756-6.098,8.535C842.683,562.201,831.707,565.86,821.951,562.201z"/>
	<path fill="#999999" d="M71.951,482.932c-14.634,0-28.049,0-42.683,0C43.902,480.494,58.537,481.713,71.951,482.932z"/>
	<path fill="#999999" d="M843.902,481.713c-13.414,1.22-26.829,2.438-40.244,0C817.073,481.713,831.707,478.054,843.902,481.713z"/>
	<path fill="#999999" d="M356.098,560.981c12.195,4.879,25.609,1.22,37.806,2.438c-12.195,4.878-25.609,1.221-37.806,1.221
		C353.658,564.641,356.098,562.201,356.098,560.981z"/>
	<path fill="#999999" d="M778.049,547.567c1.22-3.658,4.878-2.439,7.317-2.439c10.976,1.221,21.951-2.438,31.707,2.439
		C804.878,547.567,791.464,547.567,778.049,547.567z"/>
	<path fill="#999999" d="M737.805,557.323c1.221,4.878,4.878,3.658,8.537,3.658c6.099,1.22,13.414-2.438,19.512,2.438
		c-8.535,0-17.072,0-25.608,1.221c-2.439,0-4.878,1.22-6.099-1.221C734.146,559.763,736.585,558.543,737.805,557.323z"/>
	<path fill="#999999" d="M990.244,487.811c-4.879-4.879-10.977-1.221-15.854-2.439c-3.659-1.22-8.536,1.221-12.194-2.438l0,0
		c9.756-2.438,19.512,0,29.268-1.22c2.439,0,3.659,0,3.659,3.658C993.902,487.811,991.463,486.59,990.244,487.811z"/>
	<path fill="#999999" d="M993.902,485.372c-10.977-4.878-21.951-1.22-32.928-2.438c10.977-3.658,21.951-1.22,32.928-1.22
		C997.561,481.713,996.342,484.152,993.902,485.372z"/>
	<path fill="#999999" d="M696.342,563.421c-2.438,0-4.879,0-6.098-2.438c3.658,0,8.536-1.219,12.195,1.22
		C700,563.421,698.78,563.421,696.342,563.421z"/>
	<path fill="#999999" d="M463.415,557.323c-2.439-2.438-1.22-4.878-1.22-7.317c0-1.219,1.22-1.219,1.22,0v1.221
		C463.415,553.665,463.415,554.885,463.415,557.323z"/>
	<path fill="#999999" d="M469.512,529.274c-2.438-1.22-1.219-3.658-1.219-6.098c0-1.221,0-2.438,1.219-1.221
		c1.221,0,1.221,1.221,1.221,2.439C469.512,525.616,469.512,526.836,469.512,529.274z"/>
	<path fill="#999999" d="M854.878,530.494c-3.658-2.438-2.438-4.878-1.22-7.316C853.658,525.616,853.658,528.055,854.878,530.494z"
		/>
	<path fill="#999999" d="M553.658,514.641c-1.219,0-1.219,0-2.438,0c-1.219,0-1.22,0-1.22-1.221c-1.22-3.657,1.22-4.878,2.439-6.098
		C556.098,509.763,554.878,512.201,553.658,514.641z"/>
	<path fill="#999999" d="M548.78,535.372c2.438,2.439,2.438,4.878,0,9.756c0-2.438-1.22-4.878-1.22-6.098
		C547.561,537.812,547.561,536.591,548.78,535.372z"/>
	<path fill="#999999" d="M714.634,485.372c1.22-1.22,2.439-2.438,4.878-2.438c1.221,0,3.659,0,4.879,1.22
		C720.731,486.59,717.073,484.152,714.634,485.372z"/>
	<path fill="#999999" d="M898.78,547.567c2.438,2.438,1.22,4.878,1.22,7.317c0,0-1.22,0-1.22,1.219c0-1.219-1.22-1.219-1.22-2.438
		C897.561,551.226,898.78,548.787,898.78,547.567z"/>
	<path fill="#999999" d="M553.658,514.641c0-2.439,0-4.878,0-7.317C556.098,509.763,558.536,512.201,553.658,514.641z"/>
	<ellipse fill="#999999" cx="668.293" cy="550.006" rx="21.951" ry="1.219"/>
	<path fill="#999999" d="M687.805,530.494c-10.976-3.658-20.73-1.22-31.707-1.22C667.073,526.836,678.049,523.177,687.805,530.494z"
		/>
	<path fill="#999999" d="M659.756,514.641c9.756,0,19.513,0,29.27-1.221c-9.757,6.099-19.514,1.221-29.27,2.439
		C659.756,515.86,659.756,515.86,659.756,514.641C659.756,515.86,659.756,514.641,659.756,514.641z"/>
	<path fill="#999999" d="M689.024,498.787c-8.536,0-18.294,0-26.829,0c9.756-4.878,19.512-1.22,29.269-2.438
		C691.464,497.567,690.244,498.787,689.024,498.787z"/>
	<path fill="#999999" d="M130.488,497.567c-20.732,0-41.463,0-62.195,0c0-1.22,0-1.22,0-2.439
		C89.024,496.347,109.756,491.469,130.488,497.567L130.488,497.567z"/>
	<path fill="#999999" d="M104.878,514.641c-13.415,0-28.049,0-41.463,0v-1.221C78.049,513.421,91.463,513.421,104.878,514.641
		C104.878,513.421,104.878,514.641,104.878,514.641z"/>
	<path fill="#999999" d="M854.878,530.494c-3.658-2.438-1.22-4.878-1.22-7.316c-2.438-13.414-6.098-26.83-8.536-41.464
		c-13.415-1.22-26.829,1.22-40.244-1.22c-9.756,0-9.756,8.536-14.634,13.415c-18.293,19.512-34.146,41.463-51.22,62.195
		c-2.439,4.878,1.22,4.878,4.878,4.878c7.316,0,15.854-1.219,23.171,1.22c6.098-3.658,8.536-9.756,12.194-14.634
		c12.195-3.658,25.609-2.439,39.024,0c3.658,4.878,1.219,9.756,3.658,14.634c9.756,0,19.512,0,30.487,0
		c6.099,0,7.316-2.438,8.537-7.315C858.537,546.348,857.317,537.812,854.878,530.494z M813.415,529.274
		c-7.317-1.22-14.635,2.438-21.952-1.22c6.098-9.757,9.757-19.513,19.513-25.609c7.317,2.439,6.099,6.098,4.878,10.976
		c0,3.658,0,8.536,1.221,12.195C818.293,528.055,817.073,529.274,813.415,529.274z"/>
	<path fill="#999999" d="M792.683,528.055c7.317,0,15.854,0,23.171,1.22c1.221-1.22,1.221-1.22,2.439,0
		C809.756,531.714,801.22,532.933,792.683,528.055z"/>
	<path fill="#999999" d="M815.854,513.421c-1.22-3.657,0-8.535-3.657-9.756C818.293,502.445,819.512,504.885,815.854,513.421z"/>
	<path fill="#999999" d="M818.293,529.274c-1.22,0-1.22,0-2.439,0c1.221-1.22,1.221-2.438,2.439-3.658c0-1.22,0-3.659,1.219-6.098
		C820.731,524.396,820.731,526.836,818.293,529.274z"/>
	<path fill="#999999" d="M737.805,498.787c0-8.537-6.098-13.415-14.634-15.854c-3.659,1.22-8.537-1.22-12.195,0
		c-23.171,0-47.561,0-70.73,0c-4.878,0-9.756,0-12.195,3.659c-7.316,24.39-14.634,48.78-20.73,74.39
		c3.657,3.659,7.315,2.438,10.976,2.438c23.171,0,46.341,0,69.512,0c4.878,1.221,9.756-2.438,14.636,0
		c6.098,0,10.976-2.438,15.854-6.098c7.316-6.098,13.414-12.195,12.195-21.951c0-8.536-8.537-8.536-13.415-10.976v-1.22
		C725.609,517.079,737.805,512.201,737.805,498.787z M678.049,547.567c-8.537,0-18.293,0-28.049,0
		c2.439-7.317,4.878-12.195,6.098-18.293c10.977,0,21.951-3.658,31.707,1.22C692.683,542.689,689.024,547.567,678.049,547.567z
		 M690.244,513.421c-9.756,3.658-19.513,2.439-29.27,1.221c-1.22-4.878,2.439-9.756,2.439-15.855c8.536-2.438,18.292-2.438,26.829,0
		c2.438,1.219,7.315,1.219,7.315,6.099C696.342,510.981,693.902,512.201,690.244,513.421z"/>
</g>
</svg>
