<?xml version="1.0" encoding="utf-8"?>
<!-- Generator: Adobe Illustrator 16.0.0, SVG Export Plug-In . SVG Version: 6.00 Build 0)  -->
<!DOCTYPE svg PUBLIC "-//W3C//DTD SVG 1.1//EN" "http://www.w3.org/Graphics/SVG/1.1/DTD/svg11.dtd">
<svg version="1.1" id="Layer_1" xmlns="http://www.w3.org/2000/svg" xmlns:xlink="http://www.w3.org/1999/xlink" x="0px" y="0px"
	 width="1000px" height="1000px" viewBox="0 0 1000 1000" enable-background="new 0 0 1000 1000" xml:space="preserve">
<g>
	<path fill="#999999" d="M920,472c8-12,8-24,4-40c0-24,0-44,0-68c0-4,0-8,4-12h4c8,8,16,12,20,24c-8,8-8,20-8,32c4,32,0,68,4,100
		c0,8-4,12-4,20c0,4-4,4-8,8c-12,8-16,8-16-8C916,512,916,492,920,472z"/>
	<path fill="#999999" d="M968,396c20,24,24,52,16,80c-4,8-8,20-16,24c-4,4-8,12-16,12c-4-12-4-24-4-32c4-8,0-16,0-20c0-16,0-32,0-44
		C960,408,960,400,968,396z"/>
	<path fill="#999999" d="M960,412c0,16,0,32,0,48c-4,8,0,12-4,20c0,12-4,24,4,36c0,0,0,0,4,0c-4,4-8,4-12,8c-4,0-8,4-8,8l0,0
		c0-16,0-36,0-52c0-28,0-60-4-88c0-8,0-16,12-12c4,4,12,12,16,16C956,396,960,404,960,412z"/>
	<path fill="#999999" d="M960,412c-4-8-8-16,8-16c0,0,4,0,0,4C964,400,964,408,960,412z"/>
	<path fill="#999999" d="M928,356c0-4-4-8-4-12C928,344,928,348,928,356L928,356z"/>
	<path fill="#999999" d="M940,532c0-4,4-8,8-8C948,528,944,528,940,532z"/>
	<g>
		<path fill="#999999" d="M104,512c-8,40-16,80-24,116c0,8-4,12-12,12c-16,0-28,0-44,0c-12,0-12-4-8-12c12-72,24-140,40-212
			c4-12,0-24-12-32c-4,0-8-8-12-12c36,0,68,0,96,0c8,0,4,4,4,8c-8,32-12,64-20,100c8,0,8-4,12-8c36-32,72-64,104-92c8-4,12-8,20-8
			c20,0,44,0,68,0c-28,24-56,44-84,68c-16,12-32,28-48,40c-8,4-8,8-4,16c24,44,52,84,76,128c8,16,8,16-8,16c-20,0-40,0-60,0
			c-8,0-12-4-16-8c-16-32-36-68-52-100C112,524,112,520,104,512z"/>
		<path fill="#999999" d="M396,644c-24,0-48,0-72-12c-48-20-68-68-56-124c12-76,76-128,156-140c36-4,72-4,108,4c12,4,16,8,12,24
			c0,4-4,8-4,16c-4,16-16,20-28,12c-32-16-64-20-100-12c-24,8-40,16-48,32c-20,32-32,68-24,104c4,32,28,52,56,52c28,4,56-4,80-16
			c8-4,12-8,20,0s0,12,0,20c-4,24-16,32-40,36C436,640,416,644,396,644z"/>
		<path fill="#999999" d="M396,720c4,4,12,12,12,16c4,24,0,52,0,76c0,4,0,8-4,12c-8-8-16-20-24-28c-8-20-4-44,0-64
			C380,724,384,716,396,720z"/>
		<path fill="#999999" d="M820,316c-8-8-16-16-24-28c-4-20,0-40,0-60c0-8,0-16,12-16c8,8,16,16,24,28c-8,0-4,8-4,12c0,16-4,36-4,52
			C824,308,824,312,820,316z"/>
		<path fill="#999999" d="M276,272c0,12,0,20,0,32c0,8-4,16-12,16s-8-8-8-12c0-20,0-40,0-60c0-4,0-8,4-12s4-8,12-8c4,0,4,8,4,12
			C276,248,276,260,276,272L276,272z"/>
		<path fill="#999999" d="M812,212c-12,4-12,12-12,20c0,12,0,28,0,40c0,4,0,8,0,16c-8-4-12-12-16-20c-4-24,0-48,0-72c0-4,0-12,8-8
			C796,196,804,204,812,212z"/>
		<path fill="#999999" d="M840,248c4,8,16,12,20,24c-8,20-4,40-4,60c0,8,0,16-4,20c-4-4-12-12-16-16c-8-8-8-16-8-28c0-16,0-32,0-44
			C832,256,832,248,840,248z"/>
		<path fill="#999999" d="M792,188c-8,0-4,8-8,12c0,20,4,44-4,64c-8-8-12-16-20-24c0-20,0-40,4-60c0-4,0-12,12-12
			C780,176,788,180,792,188z"/>
		<path fill="#999999" d="M852,352c0-24,0-44,0-68c0-8,0-12,8-12c8,8,12,12,20,20c0,20-8,36-4,56c0,8,0,16-8,20
			C860,360,856,356,852,352z"/>
		<path fill="#999999" d="M592,256c-8,4-12,8-20,12s-12-4-12-8c-4-20,0-40,8-60c8-8,12-12,20-16C596,208,596,232,592,256z"/>
		<path fill="#999999" d="M896,312c4,4,4,4,8,8c0,24,0,48,0,72c0,4,0,8-4,12c-8-4-12-12-20-20c-8-24-4-48,0-72c0-4,4-8,8-8l0,0
			C888,308,892,308,896,312z"/>
		<path fill="#999999" d="M728,132c4,4,12,0,16,8c4,24,0,48,0,68c0,4,0,8-4,12c-4-4-8-8-12-12c-4-8-16-12-12-20c4-16-4-36,4-52
			C724,128,728,128,728,132z"/>
		<path fill="#999999" d="M392,272c0,12,0,20,0,32c0,8-4,12-12,16c-8,0-4-12-4-16c0-20,0-40,0-60c0-4,0-8,4-12s4-8,12-8
			c4,0,4,8,4,12C392,248,392,260,392,272L392,272z"/>
		<path fill="#999999" d="M148,272c0,12,0,20,0,32c0,8-4,16-12,16s-8-8-8-12c0-20,0-40,0-60c0-4,0-8,0-8c4-4,4-12,12-8c4,0,4,8,4,12
			C148,248,148,260,148,272z"/>
		<path fill="#999999" d="M12,276c0-12,0-20,0-32c0-8,4-16,12-16s8,8,8,16c0,20,0,40,0,60c0,4,0,8-4,12c-4,0-8,4-12,0c-4,0-4-4-4-8
			C12,296,12,288,12,276z"/>
		<path fill="#999999" d="M200,284c-8,0-16,0-24,0c-4,0-12,0-12-8c0-4,4-12,8-12c20-4,44-4,64,0c8,0,8,4,4,12c-4,4-8,8-16,8
			S208,284,200,284z"/>
		<path fill="#999999" d="M524,872c-16,8-32,8-48,4c-8-20-4-36-4-56c0-4,4-8,8-4c4,0,8,4,12,4c8,4,8,12,8,16c0,8,0,12,0,20
			c0,16,0,16,16,12C516,868,520,868,524,872z"/>
		<path fill="#999999" d="M920,472c8,16,0,32,4,48c0,4,0,12,0,16c4,4,8-4,12-4c-4,8-12,12-16,16s-8,4-12,8l0,0c-4,0-8-4-8-8
			c-4-20,0-40,4-60c0-4,4-4,4-8C912,480,916,476,920,472z"/>
		<path fill="#999999" d="M680,672c4-8,12-12,20-16c0,24-4,52-4,76c-4,8-12,12-20,16c-8,0-8-8-8-12c0-16,4-36,4-52
			C676,680,680,676,680,672z"/>
		<path fill="#999999" d="M864,596c-4,8-12,12-16,16c-8-4-8-12-8-16c0-20,0-40,0-56c8-4,12-12,20-16c8,4,4,12,8,20
			C872,560,864,576,864,596z"/>
		<path fill="#999999" d="M116,288c-4,4-8,8-20,4c-12-8-28-16-44-24c-4,0-12-4-8-12c0-4,8-8,12-8c20,8,40,16,56,28
			C116,280,116,284,116,288z"/>
		<path fill="#999999" d="M304,252c8,4,20,8,28,16c8,4,16,8,20,12c8,0,12,0,8,8c0,4-8,8-12,4c-20-8-36-16-56-24c-4,0-8-4-4-8
			C292,252,296,252,304,252z"/>
		<path fill="#999999" d="M612,168c4-4,8-8,16-12c8,16,4,36,4,52c0,8,4,12,8,12c-8,8-20,16-28,24c-12-4-12-8-12-16c4-16,4-32,0-48
			C604,176,604,172,612,168z"/>
		<path fill="#999999" d="M524,240l4-4c8,0,8,8,8,12c0,12,0,20,0,32c0,4,0,12,4,16c-8,8-16,12-24,16c-8,0-8-8-12-12c0-12,0-28,0-40
			C512,248,520,244,524,240z"/>
		<path fill="#999999" d="M776,172c-8,4-8,12-8,20c0,16,0,36-8,52c-4-4-8-8-12-16c-8-24-8-48,4-68c0-4,4-8,8-4
			C768,160,772,164,776,172z"/>
		<path fill="#999999" d="M708,652c8-4,12-12,20-16c12,12,8,24,4,36c0,12-4,20,0,32c-4,4-8,8-12,12c-12,4-12-4-12-12
			C704,684,704,668,708,652z"/>
		<path fill="#999999" d="M760,680c-4,8-12,8-16,16c-8,4-8-4-8-8c0-20,0-36,0-56c0-4,4-8,8-12s8-8,12-8c12,4,12,16,8,28
			S760,668,760,680z"/>
		<path fill="#999999" d="M668,756c-4,4-12,12-16,16c-12,4-12-4-12-12c0-20,4-44,8-64c4-4,8-8,12-12c8,4,8,8,8,16
			C668,720,668,740,668,756z"/>
		<path fill="#999999" d="M448,784c8,4,12,12,16,20c0,20,0,44-8,64c-4,0-12-4-16-8c-8-24-4-48,0-72C444,784,444,784,448,784z"/>
		<path fill="#999999" d="M840,540c8,16,0,36,4,52c0,4-4,12,4,16c-4,8-8,8-16,12s-8,0-8-4c0-16-4-32-4-48c0-4,4-12,8-16l0,0
			C832,548,836,544,840,540L840,540z"/>
		<path fill="#999999" d="M928,356c0,24-4,48-4,72c0,4-4,8-4,12c0,0,0-4-4-4c0-8-8-12-12-16l0,0c0-20,0-40,0-60c0-8,0-16,12-16l4,4
			C924,348,928,348,928,356z"/>
		<path fill="#999999" d="M460,292c8-8,16-16,24-20c12,8,4,16,8,24c0,8-4,16,8,16c4,0,12,0,16,4c-20,4-40,0-60,0
			C448,308,452,300,460,292z"/>
		<path fill="#999999" d="M660,200c-4,4-12,12-16,16c-8,4-12-4-12-12c0-16,0-32,0-48c0-8,4-12,8-16s8-8,12-8c8,16,4,28,4,44
			C656,188,656,192,660,200z"/>
		<path fill="#999999" d="M404,824c-4-8,0-16,0-24c0-20,0-36,0-56c0-4,0-4,4-8c8,4,12,8,16,16c0,24,0,48,0,72c0,4,0,8-4,12
			C412,836,408,828,404,824z"/>
		<path fill="#999999" d="M592,748c4-4,8-8,16-12c8,4,8,16,8,24c0,16,0,28,0,44c-4,4-8,8-12,12c-8,4-12,4-12-4
			C588,788,584,768,592,748z"/>
		<path fill="#999999" d="M592,748c0,20,0,40,0,60c0,8,4,8,8,8c-4,8-12,12-20,16s-8-4-8-8c0-16,0-32,0-48c0-8,8-12,16-20
			C588,752,588,748,592,748z"/>
		<path fill="#999999" d="M548,780c4-4,8-8,16-12c4,8,0,20,0,28c0,16,0,28,4,44c-4,8-12,12-20,16c-4,0-8-4-8-8c-4-20,0-40,4-60
			C544,788,548,784,548,780z"/>
		<path fill="#999999" d="M364,684C368,688,368,688,364,684c0,20,4,40-4,56c0,8,0,16-8,16c-4-4-8-8-12-16c-8-20-4-36,0-52
			c0-8,8-4,12-8C360,684,360,684,364,684z"/>
		<path fill="#999999" d="M612,168c0,4-4,8-4,12c0,16,4,32,0,48c0,4-4,12,4,16c-4,4-8,8-16,12c-4-4-4-8-4-16c0-20-4-40,4-56
			C596,176,604,172,612,168z"/>
		<path fill="#999999" d="M364,684c-4,0-4,0-8,0c-20,4-20,4-20,24c0,8,0,16-8,20c-12-12-20-24-32-36c-4-4-4-8,4-8
			C320,684,344,680,364,684z"/>
		<path fill="#999999" d="M820,632c-4,8-12,12-20,12c-4,0-8-4-8-8c-4-24-4-44,8-68c8-4,12-12,20-16C816,580,816,608,820,632z"/>
		<path fill="#999999" d="M640,780c-4,4-8,8-12,12c-8,4-12,0-12-8c0-20,0-40,8-60c4-4,8-8,16-12c4,4,4,12,4,20
			C640,744,640,764,640,780z"/>
		<path fill="#999999" d="M396,720c-12,4-12,12-12,20c0,16,0,36,0,52c-4-4-8-8-12-16s-4-16-4-24c0-16,0-32,0-48c0-4,0-12,8-16l0,0
			c4,4,4,8,8,12C388,708,392,712,396,720z"/>
		<path fill="#999999" d="M548,780c-4,24-12,52-4,76c-4,4-8,8-12,8s-8-4-8-8c0-16,0-36,0-52c0-4,4-8,8-12C536,792,544,784,548,780z"
			/>
		<path fill="#999999" d="M840,248c-4,4-4,8-4,12c0,20,0,40,0,60c0,4,4,8,4,12c-4-8-12-12-16-20c0-24,4-48,4-72c0-12,4-4,8-4
			C836,244,840,244,840,248z"/>
		<path fill="#999999" d="M680,124c12-4,24-4,36,0c-4,4-12,4-20,4s-8,4-8,12c0,16-4,28-4,44c-4,4-8,4-16,8c-8,0-8-4-8-12
			c0-16,0-28,0-44c0-4,0-8,8-12C672,128,676,128,680,124z"/>
		<path fill="#999999" d="M692,124c8,0,12,0,20,0s12,0,16,4h-4c-4,0-8,4-8,8c-4,12-4,20-4,32c0,4,0,12-4,16c0,0-4,0-4-4
			c-12,0-16-8-16-20C692,152,684,140,692,124z"/>
		<path fill="#999999" d="M868,516c4-4,12-12,16-16c8,4,8,12,8,20c0,16,0,32-4,48c-4,4-8,8-12,12c-4,0-8-4-8-4
			C872,556,868,536,868,516z"/>
		<path fill="#999999" d="M512,872c-16,4-20,4-20-12c0-12,4-28-4-40c8,0,16-4,24-8C520,828,520,852,512,872z"/>
		<path fill="#999999" d="M512,872c0-20,0-44,4-64c4-4,8-8,16-12c-4,24-4,48,0,68c-4,0-8,4-12,4C520,872,516,872,512,872z"/>
		<path fill="#999999" d="M920,340c-8,4-8,8-8,16c0,16,0,28,0,44c0,4,0,12-4,16c-4-4-8-4-8-8c0-24,0-48,0-72c0-4,0-12,4-16
			C908,324,916,332,920,340z"/>
		<path fill="#999999" d="M420,840c0-28-4-56,4-84c8,4,12,12,16,16c-4,20,0,40,0,64c0,8,0,12-4,20C424,848,420,844,420,840z"/>
		<path fill="#999999" d="M432,852c0-24,0-44,0-68c0-4,0-12,8-12c4,4,8,8,12,16c-8,12-12,24-12,40c0,12,0,20,0,32
			C436,860,432,856,432,852z"/>
		<path fill="#999999" d="M760,680c-12-8-4-24-4-32c0-12,4-24-4-32c4-4,12-12,16-16c8,4,8,8,8,16c-4,20,0,36,0,56
			C772,672,768,676,760,680z"/>
		<path fill="#999999" d="M708,652c8,16,0,32,4,48c0,8,0,12,8,16c-4,8-12,12-20,16c-8-16-4-36-4-52c0-8,0-16,4-24
			C704,652,704,652,708,652z"/>
		<path fill="#999999" d="M888,304c-8,0-8,8-8,12c0,24,0,44,0,68c-8-4-12-12-16-20c4-4,8-12,4-20c-4-16,4-32,4-48c0-4,0-8,4-8
			C884,296,884,296,888,304z"/>
		<path fill="#999999" d="M776,668c-4-4-4-8-4-12c0-16-4-32,4-44c0-4,0-8-4-12c4-4,12-12,16-16c4,24,0,44,0,68v4
			C784,660,780,664,776,668z"/>
		<path fill="#999999" d="M516,316c-4,0-12,0-16,0c-4-12,0-52,4-64c8-4,12-12,20-16c-16,20-8,44-8,68c0,4,4,4,4,4
			C520,312,520,316,516,316z"/>
		<path fill="#999999" d="M668,756c-4-4-4-12-4-16c0-16,4-36-4-52c8-4,12-12,20-16c-4,24-8,52-4,76C676,752,672,756,668,756z"/>
		<path fill="#999999" d="M892,572c-8-4-4-8-4-12c4-20,4-40,0-60c8-8,12-12,20-16c-4,24-12,52-4,76C904,568,896,568,892,572z"/>
		<path fill="#999999" d="M620,724c0,20-4,40-4,60c0,8,0,12,8,12c-4,4-8,8-16,12c-8,0-4-8-4-12c0-16,0-36-4-52
			C608,732,616,724,620,724z"/>
		<path fill="#999999" d="M788,656l-4-4c0-24-4-48,4-68c4-4,8-8,16-12c-4,20-8,40-4,60c0,4,0,8,4,12C800,652,792,652,788,656z"/>
		<path fill="#999999" d="M456,868c4-20,0-44,8-64c4,4,8,4,16,8c-8,0-8,8-8,12c0,16,0,32,0,48C468,876,460,872,456,868z"/>
		<path fill="#999999" d="M820,632c-8,0-8-8-8-12c0-16,0-28,0-44c0-8,8-12,8-20l4-4c-8,20,0,44,0,64c0,4,4,4,4,4
			C828,624,824,628,820,632z"/>
		<path fill="#999999" d="M372,692c-4,4-4,8-4,16c0,24,0,48,0,72c-4-4-8-12-16-20c12-20,8-40,8-60c0-4-4-12,8-12L372,692z"/>
		<path fill="#999999" d="M568,840c-4,0-8-4-8-8c0-20-4-44,4-64c8-4,12-12,20-16c-20,20-8,48-12,72c0,4,4,4,4,4
			C576,836,572,840,568,840z"/>
		<path fill="#999999" d="M640,144c-12,20-4,44-4,68c0,4,4,4,8,4c-4,0-4,4-8,4s-8,0-12,4c0-24,0-44,0-68C628,152,636,144,640,144z"
			/>
		<path fill="#999999" d="M564,276c-4,4-8,8-16,12c-4,0-8-4-8-4c0-20-4-44,4-64c4-4,8-8,12-8c4,4,4,12,4,16C564,244,564,260,564,276
			z"/>
		<path fill="#999999" d="M868,516c8,20,8,36,4,56c0,4,0,8,4,8c-4,4-8,8-16,12c-8-4-4-8-4-12c4-20,8-40,0-60
			C864,520,868,520,868,516z"/>
		<path fill="#999999" d="M760,156c-8,8-12,20-12,32c0,16,0,28,0,44c-4-4-8-4-8-8c0-20,0-44,0-64c0-4,0-12,4-16l0,0c4,4,8,8,12,8
			C760,148,760,152,760,156z"/>
		<path fill="#999999" d="M548,220c0,20,0,36,0,56c0,4,0,12,4,16c-4,0-4,4-8,4c-8,0-8,0-8-8c0-12,0-24,0-40c0-8,0-12-8-16
			C536,228,540,224,548,220z"/>
		<path fill="#999999" d="M680,124c0,4-4,4-8,4c-8,0-8,4-8,12c0,12,4,28,0,40c0,4,0,8,4,12c-4,0-4,4-8,4c-8,0-8,0-8-8
			c0-20,0-40,0-60C660,128,668,124,680,124z"/>
		<path fill="#999999" d="M640,780c-8,0-4-8-4-12c0-20,0-36,0-56c4-4,8-8,16-12c4,20-8,40-4,60c0,4,0,12,8,12
			C648,776,644,776,640,780z"/>
		<path fill="#999999" d="M692,124c0,12,0,28,0,40c0,8,0,16,12,20c-8,0-16,0-20,0c-8-4-4-16-4-24s4-16,4-24C680,128,684,124,692,124
			z"/>
		<path fill="#999999" d="M740,624c-4,20,0,44-4,64c0,4,0,4,4,4c0,4-8,8-12,8c-12-8-8-16-4-24c4-16,4-28,0-44
			C732,628,736,624,740,624z"/>
		<path fill="#999999" d="M504,256c-4,20,0,40-4,64c-8,0-12,0-12-12s4-24-4-36C492,268,496,260,504,256z"/>
		<path fill="#999999" d="M564,276c-4-4-4-8-4-16c0-16,0-32,0-48c4-8,8-12,12-12c0,20-8,36-4,52c0,8,0,12,8,16
			C572,272,568,276,564,276z"/>
		<path fill="#999999" d="M712,188c0-16,0-32,4-52c0-8,4-8,12-8c-8,12-8,24-8,32c0,16-4,32,8,44C724,200,716,196,712,188z"/>
		<path fill="#999999" d="M328,728c8-8,8-20,4-32s4-12,12-12c4,0,8,0,12,0c-16,4-12,20-12,32c0,8,0,20,0,28C336,740,332,736,328,728
			z"/>
		<path fill="#999999" d="M460,292c-4,8-4,16-4,24c-8,0-16,0-28,0C440,308,448,300,460,292z"/>
		<path fill="#999999" d="M908,416c4,0,12,4,12,12C916,424,912,420,908,416z"/>
		<path fill="#999999" d="M904,560c0-4,4-8,12-8C912,556,908,560,904,560z"/>
		<path fill="#999999" d="M840,540c0,4-4,8-12,8C828,548,832,544,840,540z"/>
		<path fill="#999999" d="M384,704c-4,0-8-4-8-12C376,696,380,700,384,704z"/>
		<path fill="#999999" d="M756,148c-4,0-8-4-12-8C748,140,752,144,756,148z"/>
		<path fill="#999999" d="M896,312c-4,0-8-4-8-8C892,304,892,308,896,312z"/>
		<path fill="#999999" d="M744,376c-40-8-80-4-124-4c-20,0-40,0-60,0c4,8,8,12,12,12c12,8,16,20,12,32c-16,72-28,140-44,212
			c0,8,0,12,8,12c16,0,32,0,44,0c8,0,12-4,16-12c4-24,8-48,12-72c0-8,4-12,12-12c20,0,44,0,64-4c48-8,84-44,92-92
			C800,408,784,384,744,376z M676,500c-4,0-12,0-12,0c-8,0-12,0-12,0c-8,0-12,0-12-12c4-24,8-44,12-68c0-8,4-8,12-8c12,0,28,0,40,4
			c16,4,20,16,20,28C724,476,704,496,676,500z"/>
	</g>
	<path fill="#999999" d="M956,480c0-8-4-12,4-20C956,468,960,472,956,480z"/>
</g>
</svg>
