<?xml version="1.0" encoding="utf-8"?>
<!-- Generator: Adobe Illustrator 16.0.0, SVG Export Plug-In . SVG Version: 6.00 Build 0)  -->
<!DOCTYPE svg PUBLIC "-//W3C//DTD SVG 1.1//EN" "http://www.w3.org/Graphics/SVG/1.1/DTD/svg11.dtd">
<svg version="1.1" id="Layer_1" xmlns="http://www.w3.org/2000/svg" xmlns:xlink="http://www.w3.org/1999/xlink" x="0px" y="0px"
	 width="1000px" height="220.166px" viewBox="0 386.5 1000 220.166" enable-background="new 0 386.5 1000 220.166"
	 xml:space="preserve">
<g>
	<path fill="#999999" d="M241.39,479.657L241.39,479.657c-2.222,22.223,2.222,42.223,13.333,60c0,4.443,0,8.889,6.667,8.889
		c6.667,6.667,20,6.667,28.889,11.111c0,0,2.223,0,2.223,2.223c6.667,2.222,13.333,0,20,0c2.222,0,2.222,0,4.443,0
		c4.444,4.444,11.111,2.222,15.557,0c0-2.223-2.224-4.444,0-6.667c2.222-2.223,6.666-2.223,6.666-4.444v-2.223
		c2.223-8.889,0-17.777,0-26.666v-2.223c-8.89,0-17.777,0-26.666,0c-4.444,0-6.667-2.223-6.667-6.667
		c2.223-8.89,2.223-17.777,0-24.444c0-2.222,0-4.444,2.223-4.444c20,0,37.777,0,57.777,0c2.223,0,0-2.222,0,0l0,0
		c-20,2.224-37.777,0-57.777,0c-2.223,0-2.223,0-2.223-2.222c2.223-4.444,6.667-2.223,8.889-2.223c22.223,0,44.444,0,66.667,0
		c2.223,0,4.444,2.223,2.223,4.443c-6.667,0-4.444,2.224-4.444,6.667v2.223c0,22.223,0,46.667,0,68.89c2.223-20,0-40,0-60
		c0-6.667,0-11.111,2.223-17.778c2.223,0,2.223,0,2.223,0c0,31.111,0,60,0,91.111c0,8.889-4.444,8.889-8.89,11.111
		c-4.444,0-6.666,2.222-8.889,4.443c-4.444,2.224-11.111,2.224-15.557,4.444c-2.222,0-2.222,0-4.443,0
		c-4.444,4.444-8.89,0-13.333,4.444c-2.224,0-4.444,0-4.444,0c-2.223,2.223-6.667,0-11.111,2.223c-13.333,0-26.667,0-40-2.223
		c0,0-2.222,0-2.222-2.223s-2.222,0-4.445,0c0,0,0,0-2.222,0h-2.222c-6.667,0-13.333-2.223-17.778-4.444
		c-31.111-15.556-51.111-40-55.555-75.556c-2.223-8.89-4.445-20-2.223-28.89c0-2.222,0-2.222,0-4.444
		c2.223-22.222,11.111-42.222,24.445-57.776c17.778-20,42.222-28.89,66.667-33.333c26.667-4.444,53.333,0,77.777,11.111
		c4.444,2.223,8.89,6.667,15.556,11.111c4.444,2.223,6.667,6.667,2.223,11.111c-4.443,4.443-8.889,11.11-15.556,13.333
		c-2.223,0,0,4.443-4.444,4.443c0,2.224-4.443,4.444-8.889,6.667c-2.223,0-2.223,0-4.444,0c-2.223,0-2.223-2.223-4.444-4.443l0,0
		c-6.666-2.224-13.333-4.444-20-8.89l-2.226-2.221c2.223-2.223,2.223-4.444,0-4.444c-4.443,0-6.667,0-11.11,0
		c2.223,0,6.667,0,8.889,0c2.223,0,4.444,2.223,2.223,4.444c-2.223,2.223-6.667,0-8.889,0c-6.667-2.223-13.333,0-17.778,0
		c-2.222,0-4.444,0-4.444,0c-8.889,6.667-22.222,6.667-28.889,15.556C248.057,459.657,248.057,470.769,241.39,479.657z"/>
	<path fill="#999999" d="M939.168,552.99c-2.223-2.223-6.666,0-8.89-2.223c-2.222-2.223-4.443,0-6.666-2.223l0,0l0,0
		c-2.223-2.222-6.667,0-8.89-2.222l0,0c-2.222-2.224-4.444,0-6.666-2.224c-8.891-4.443-15.556-11.11-20-17.776
		c-2.223-8.89-2.223-17.778,0-24.444c0-6.667,2.222-11.111,8.889-13.334l0,0c2.223-4.444,6.667-4.444,8.889-6.666h2.224
		c4.444,0,8.889,0,11.11,0c-2.223,0-4.444,0-4.444-2.223c17.778-2.223,37.778-4.444,53.334,11.11c4.444,4.444,4.444,6.667,0,8.89
		c0,2.223-4.444,4.443-6.667,6.667c-4.444,8.889-4.444,8.889-13.333,2.222c-6.667-4.444-11.111-4.444-17.778-4.444
		c-2.222,0-4.443,0-6.666,2.224c-6.667,8.889-4.445,11.11,4.444,13.333c6.666,2.223,11.11,2.223,17.776,4.443
		c8.89,2.224,15.557,6.667,24.444,11.111c6.667,4.444,11.111,11.111,11.111,17.777c0,4.444-2.224,11.11,0,15.556
		c0,4.444,0,6.667-2.224,8.89c0,2.223-2.222,2.223-2.222,4.444c-2.223,2.222-4.444,6.666-8.889,6.666c-2.224,0-2.224,0-2.224,2.223
		c-4.443,2.224-8.889,6.667-15.556,6.667l0,0l0,0c-2.222,2.223-6.666,0-11.11,2.223c-4.444,0-8.89,0-13.334-2.223
		c2.224-2.223,4.444-2.223,6.668,0c-4.444,0-8.89,0-13.334,0s-6.666,0-11.11-2.223c0-2.223-2.224-2.223,0-4.444
		c2.222-2.223,4.444,0,6.666-2.223c-2.222,0-4.444,0-6.666,0c-2.224,0-2.224-2.222-2.224-4.444c0-2.222,0-4.443,2.224-4.443
		l2.222-2.223c4.444,2.223,6.667,6.666,11.111,4.444c4.443,0,8.889,2.222,13.333,0c-4.444-2.223,0-2.223,0-4.444
		c2.223,0,2.223-2.223,4.444-2.223C950.279,564.102,950.279,561.88,939.168,552.99z"/>
	<path fill="#999999" d="M712.502,548.546c0-2.222,0-4.444,0-6.666c-2.224-4.444-2.224-8.89,2.222-13.334
		c2.223-2.222-2.222-6.666,0-8.889c2.223-6.667,6.667-11.111,8.89-17.777c2.223-8.89,11.11-13.334,20-17.778
		c13.333-6.666,28.89-6.666,44.444-6.666c0,0,0,0,0,2.223c-2.223,2.223-4.444,2.223-6.667,2.223c2.223,2.222,4.444,0,4.444,0
		c2.223,0,2.223,0,4.443-2.223c6.667,2.223,13.334,2.223,17.778,11.11c0,4.444-2.223,6.667-6.667,6.667c-2.222,0-4.444,0-4.444,0
		c-2.222,0-4.443,0-6.667-2.223c-6.666,0-11.11,0-17.776-2.223h-2.224c4.445,2.223,0,4.444,0,6.667s0,2.223,0,4.443
		c0,0,0,2.224-2.222,2.224c-19.999,4.444-26.666,15.556-26.666,28.889c-2.222,15.556,8.889,28.889,22.223,33.333
		c2.223,0,4.444,2.223,6.666,2.223c2.224,2.223,4.445,2.223,6.667,0c4.444-2.223,11.111-2.223,15.557-8.889
		c2.223-2.223,4.443-2.223,4.443,0c4.444,4.444,6.667,8.889,11.111,13.333c6.667,6.667,4.444,8.889-2.223,13.333
		c-6.666,2.223-15.557,6.667-22.223,6.667h-2.222c-6.666,0-11.111-2.223-17.777,0c0,0-2.223,0-2.223,2.223c-2.222,0-4.444,0-6.666,0
		c0,0,0,0-2.223-2.223s-2.223,0-4.444,0c-4.444-2.223-8.889,0-11.111-4.444l0,0l0,0c-2.222,0-4.443-2.223-6.667-4.443
		c-2.222-2.224-4.443-4.444-6.666-6.667c-8.889-6.667-13.333-15.556-13.333-24.444l0,0
		C712.502,552.99,712.502,550.769,712.502,548.546z"/>
	<path fill="#999999" d="M903.613,581.88c0,2.222-2.223,2.222-2.223,4.444c0,0,2.223,0,2.223,2.222c0,2.223,0,2.223,0,4.444
		c-2.223,0-2.223,0-4.444,0c-4.444-2.223-8.89-4.444-13.333-8.89c-2.223-2.222-2.223-4.443,0-6.666
		c2.223-6.667,6.667-11.11,13.333-13.334c2.223,0,4.444,0,6.667,2.224c6.667,8.889,17.777,11.11,28.889,11.11
		c2.223,4.444-2.222,4.444-4.444,6.666c0,0,0,0-2.222,0c-4.443-2.222-8.89,2.224-13.334,0c-4.443,0-8.889-4.443-13.333-6.666
		C901.391,579.657,901.391,579.657,903.613,581.88z"/>
	<path fill="#999999" d="M594.724,479.657c2.223,2.223,4.444,0,6.667,4.443c-2.223,2.224-4.444,2.224-6.667,2.224c0,0,0,0,2.223,0
		c2.223,2.222,8.89,0,8.89,4.443c0,6.667-6.667,2.223-11.111,2.223c-2.222,0-4.444,0-6.666,0c-2.223,0-4.444,0-6.667,0
		c-4.444-2.223-8.889,0-13.333,2.223c-4.444,0-8.89,0-13.334-2.223c0,0,0,0,0-2.223l0,0
		C561.391,475.213,579.168,479.657,594.724,479.657z"/>
	<path fill="#999999" d="M521.391,595.213c-2.223,0-2.223-2.223-2.223-4.444c0-35.556,0-73.333,0-108.889c8.89,0,17.777,0,26.667,0
		c2.223,2.222,0,6.666,2.223,11.11c-2.223,2.223-4.444,0-4.444-2.223c-2.223-2.223-2.223-4.443-4.444-4.443c-2.223,0-6.666,0-8.89,0
		c-4.443,0-4.443,2.222-4.443,6.667c0,26.666,0,53.333,0,79.999c0,15.556,2.223,15.556,13.333,15.556c2.223,0,4.444,0,6.667,2.223
		c2.223,0,2.223,2.224,2.223,2.224C536.946,595.213,530.279,592.99,521.391,595.213z"/>
	<path fill="#999999" d="M316.946,564.102c-2.223,0-2.223,0-4.443,0c-8.89,2.224-15.556,2.224-24.445,0v-2.222
		c4.445-2.223,11.111,0,15.556,0c4.444,2.222,6.666,0,8.89,0c0,0-2.224,0-4.444,0c4.444-2.223,8.889-2.223,11.11-4.444
		c2.222-2.223,4.444-2.223,6.666-2.223c0,0,2.223,0,2.223,2.223s2.222,4.444,4.444,6.666
		C330.279,566.324,323.613,564.102,316.946,564.102z"/>
	<path fill="#999999" d="M341.39,519.657L341.39,519.657L341.39,519.657c-13.333,0-24.444,0-35.556,0c0-13.333,0-24.444,0-37.777
		h2.223c0,0,0,0,0,2.222l0,0c0,2.224,0,2.224,0,4.444c2.222,8.89,2.222,15.556,0,24.444c0,6.667,2.222,6.667,6.666,6.667
		C323.613,517.436,332.501,512.99,341.39,519.657z"/>
	<path fill="#999999" d="M916.946,479.657c4.444,0,6.667,0,11.111,2.223c-6.667-4.444-13.334,4.444-17.778-2.223
		C910.279,479.657,914.724,481.88,916.946,479.657z"/>
	<path fill="#999999" d="M663.613,595.213L663.613,595.213c-4.444-2.223-6.667,2.223-6.667-2.223
		c2.223-2.223,4.444-2.223,8.89-2.223c6.667,0,13.333-2.223,20,2.223v2.223C676.946,595.213,670.279,595.213,663.613,595.213z"/>
	<path fill="#999999" d="M912.502,595.213c4.443-2.223,11.11-2.223,15.556,0c-2.223,0-6.667,0-8.89,0
		C919.168,597.436,916.946,595.213,912.502,595.213z"/>
	<path fill="#999999" d="M252.501,539.657c2.222,2.223,4.444,2.223,6.667,4.443l2.222,2.224
		C254.723,548.546,250.279,548.546,252.501,539.657z"/>
	<path fill="#999999" d="M310.279,559.657c2.224,0,4.444,0,6.667,2.223c-4.443,0-6.667,0-11.11-2.223
		C308.057,559.657,310.279,559.657,310.279,559.657z"/>
	<path fill="#999999" d="M379.167,490.769C379.167,490.769,379.167,488.546,379.167,490.769c-2.223-4.443-2.223-6.667,2.223-6.667
		c0,28.89,0,57.778,0,84.444l0,0c0,0,0,0-2.223,0c-2.223-22.222,0-42.222,0-64.444C376.946,501.88,376.946,495.213,379.167,490.769z
		"/>
	<path fill="#999999" d="M379.167,490.769c0,26.667,0,53.333,0,80C374.723,544.102,374.723,517.436,379.167,490.769z"/>
	<path fill="#999999" d="M308.057,481.88L308.057,481.88c20-2.223,40-2.223,60-2.223v2.223
		C348.057,481.88,328.057,481.88,308.057,481.88z"/>
	<path fill="#999999" d="M316.946,564.102c6.667-4.443,13.333,2.224,20-2.222C330.279,568.546,323.613,568.546,316.946,564.102z"/>
	<path fill="#999999" d="M319.167,435.213c-4.444-8.889-11.11-2.223-17.777-4.444c8.889,0,15.556,0,24.444,0
		C325.834,435.213,323.613,435.213,319.167,435.213L319.167,435.213z"/>
	<path fill="#999999" d="M341.39,548.546c0-8.889,0-20,0-28.889C343.613,530.769,343.613,539.657,341.39,548.546z"/>
	<path fill="#999999" d="M290.279,564.102c8.889,0,15.556,0,24.444,0C305.834,566.324,296.946,566.324,290.279,564.102z"/>
	<path fill="#999999" d="M308.057,510.769c0-8.889,0-15.556,0-24.443C310.279,495.213,310.279,501.88,308.057,510.769z"/>
	<path fill="#999999" d="M379.167,484.102c0,2.224,0,2.224,0,4.444c-6.666-6.666-4.444-8.889,4.444-8.889
		C381.39,481.88,381.39,484.102,379.167,484.102C381.39,484.102,381.39,484.102,379.167,484.102L379.167,484.102z"/>
	<path fill="#999999" d="M330.279,555.213l2.224-2.223c2.222,0,4.443-2.223,6.666-2.223c0,6.667-4.444,4.444-6.666,4.444
		C332.501,555.213,332.501,555.213,330.279,555.213z"/>
	<path fill="#999999" d="M274.723,597.436c-2.222,0-4.445,0-4.445,0C270.279,595.213,272.501,595.213,274.723,597.436
		c2.222-2.223,2.222-2.223,2.222,0C276.946,595.213,274.723,597.436,274.723,597.436z"/>
	<path fill="#999999" d="M105.834,555.213c-2.222-2.223-4.444-4.444-6.667-6.667c-2.222-2.222-4.444-4.444-4.444-6.666l0,0
		c-4.445-2.223-4.445-4.444-6.667-6.667c-4.444-4.444-4.444-11.111-8.889-11.111l0,0v-2.222c-6.667-4.444-13.333-8.89-17.778-15.556
		h-2.222c0,4.443,0,11.11,2.222,15.556v2.222c0,20,0,42.224,0,62.224c0,2.222,0,4.443-2.222,4.443
		c-13.333,2.223-26.667,4.444-37.778,0c-2.222-2.223,0-4.443,0-6.667c0-60,0-120,0-177.777c6.667-4.445,13.333-2.223,20-2.223
		c4.444,0,8.889,0,11.111,0c2.222,0,2.222-2.222,2.222-2.222l0,0c-8.889,0-15.556,0-24.445,0c-2.222,0-6.667-2.222-6.667,2.222
		c0,62.223,0,122.223,0,184.444c0,2.223,0,2.223,2.222,4.444c0,2.223-2.222,2.223-4.444,4.444c-2.222,0-2.222-2.223-2.222-2.223
		c0-60,0-122.223,0-182.222c0-4.444-2.222-6.667,2.222-11.111c4.444,0,8.889,0,13.333,0c6.667-2.222,11.111,0,17.778,0
		c4.444,2.222,8.889-2.222,11.111,2.222c-4.444,0-2.222,2.223-4.444,4.445c0,17.778,0,37.778,0,55.555c0,2.224,0,2.224,0,4.444
		c0,2.223-2.222,4.444,0,8.89c0,0,2.222,0,2.222,2.223c11.111-8.89,17.778-20,26.667-28.89c4.445-11.11,15.556-15.556,22.222-24.443
		c4.445-4.444,8.889-11.111,13.333-17.778c2.222-4.445,6.667-6.667,11.111-8.889s6.667-2.222,11.111-2.222
		c8.889,2.222,17.778,0,26.667,0c4.444,0,8.889,0,13.333,4.444c2.222,4.445,0,6.667-2.222,8.889
		c-4.444,6.667-6.667,11.111-8.889,13.333c-2.222,2.224-4.445,4.444-4.445,4.444c-8.889,6.667-13.333,13.334-22.222,20l0,0
		c-2.222,6.667-6.667,8.89-11.111,11.111l0,0l0,0c-2.222,8.889-6.667,11.11-13.333,15.556l0,0c-2.222,2.223-2.222,4.444-4.444,4.444
		c-6.667,11.11-6.667,11.11,0,20c6.667,6.667,15.556,11.11,17.778,22.223l0,0c11.111,8.889,20,17.777,26.667,31.11
		c11.111,11.11,22.222,24.444,31.111,35.556c0,6.667-4.445,4.444-8.889,4.444c-13.333,0-28.889,0-42.222,0
		c-2.222,0-2.222,0-2.222,2.223h-2.222c0-2.223-2.222-2.223-2.222-6.667c0-2.222-2.222-4.444-2.222-8.889v-2.223
		c2.222-2.223,4.444-2.223,6.667-6.667c-8.889,2.223-13.333-4.443-17.778-8.889c-2.222-4.444-6.667,2.222-11.111-2.223
		C110.279,559.657,108.057,557.436,105.834,555.213z"/>
	<path fill="#999999" d="M61.39,479.657h-2.222c-2.222-4.444-2.222-6.667,0-8.89c0-2.223,0-2.223,0-4.443
		c-2.222-17.778-2.222-37.778,0-57.778c0-2.222,0-6.667,2.222-8.889C61.39,426.324,61.39,452.99,61.39,479.657z"/>
	<path fill="#999999" d="M61.39,592.99L61.39,592.99c-4.444,2.223-6.667,2.223-11.111,2.223c-11.111,0-20,2.223-31.111,0
		l2.222-2.223c11.111-2.223,24.444,0,35.556,0C59.168,590.769,59.168,590.769,61.39,592.99z"/>
	<path fill="#999999" d="M861.391,490.769L861.391,490.769C861.391,492.99,861.391,492.99,861.391,490.769
		c-2.223,4.444,0,8.89-2.223,11.111h-2.223c0-2.223,0,0,0,0s-2.222,0,0,0c2.223,6.666,2.223,13.333,2.223,20
		c-2.223,20-2.223,40,2.223,57.777c0,2.223,0,4.443,2.223,8.889c0,2.223,0,4.444-2.223,4.444c-6.667,0-15.556,4.444-22.223-4.444
		c0-28.889,0-55.556,0-84.444c0-4.443,0-6.666,0-11.11c0-2.223,0-4.444,0-8.89C843.613,479.657,854.724,481.88,861.391,490.769z"/>
	<path fill="#999999" d="M841.391,459.657c-8.889-4.444-13.333-11.111-11.111-20c2.224-8.89,8.89-13.333,17.778-13.333
		s15.556,6.666,17.777,13.333c2.223,8.889-2.223,15.556-11.111,20C848.058,457.436,845.835,457.436,841.391,459.657z"/>
	<path fill="#999999" d="M801.391,497.436c4.444,2.223,4.444-4.444,6.667-4.444c4.444-2.223,4.444,2.223,6.666,4.444
		c-2.222,2.223-4.444,6.666-6.666,6.666c0,2.224-2.223,2.224-2.223,4.444c-4.444,11.111-11.111,11.111-15.557,4.444l-2.222-2.223
		c-2.223,0-6.667,0-8.89-4.443c-4.444-2.224-8.89,0-11.11-4.444c0-2.223,2.222-4.444,4.444-6.667c6.666-2.223,13.333,0,20-2.223
		c2.222,0,4.443,2.223,6.666,2.223c0,2.223,0,2.223,0,4.444L801.391,497.436C799.168,497.436,801.391,497.436,801.391,497.436z"/>
	<path fill="#999999" d="M834.724,484.102c0,2.224,0,4.444,0,8.89c2.223,11.11,0,22.223,0,35.556c0,20,0,40,0,60
		c0,2.223,0,4.444-2.222,4.444C832.502,555.213,832.502,519.657,834.724,484.102L834.724,484.102z"/>
	<path fill="#999999" d="M859.168,590.769c0-2.223,0-2.223,0-4.443c-4.444-20-2.223-40-2.223-62.224
		c0-6.666-2.223-15.556,2.223-22.222c0-2.223-2.223-6.667,2.223-8.89c0,33.334,0,66.667,0,100h-2.223
		C856.946,592.99,856.946,590.769,859.168,590.769z"/>
	<path fill="#999999" d="M834.724,484.102L834.724,484.102c-2.222-2.222,0-4.443,2.223-4.443c4.444,0,11.111,0,15.557,0
		c8.889,0,11.11,2.223,8.889,8.889C852.502,486.324,843.613,481.88,834.724,484.102z"/>
	<path fill="#999999" d="M763.613,595.213L763.613,595.213c6.666-4.444,13.333-2.223,20-2.223h2.223
		C776.946,601.88,770.279,597.436,763.613,595.213z"/>
	<path fill="#999999" d="M859.168,590.769L859.168,590.769c-8.889,4.444-17.777,4.444-24.444,2.223v-2.224l2.223-2.223h2.223
		C843.613,592.99,852.502,588.546,859.168,590.769z"/>
	<path fill="#999999" d="M832.502,592.99c8.889,0,17.776,0,24.443,0h2.223c-2.223,4.444-6.666,0-8.89,2.223
		c-2.222,2.223-6.666,2.223-8.889,0S834.724,597.436,832.502,592.99z"/>
	<path fill="#999999" d="M774.724,481.88c4.444-4.444,8.89,0,13.334-2.223h2.222l-2.222,2.223
		C785.835,484.102,779.168,484.102,774.724,481.88z"/>
	<path fill="#999999" d="M841.391,459.657c4.444-2.223,6.667-2.223,11.111,0C848.058,459.657,845.835,459.657,841.391,459.657z"/>
	<path fill="#999999" d="M779.168,572.99c-2.223,4.444-6.666,2.223-8.89,2.223l2.224-2.223
		C772.502,572.99,774.724,572.99,779.168,572.99z"/>
	<path fill="#999999" d="M592.502,492.99c4.443-2.223,6.666,2.223,11.11-2.223c-6.667,0-11.11-2.223-15.556-6.667
		c4.444-4.443,8.889-2.222,13.333-2.222c2.223,2.222,4.444,4.444,8.889,4.444c2.224,2.222,4.444,4.443,4.444,4.443
		c2.223,6.667,4.444,11.111,8.89,17.777c2.223,15.556,0,28.89,0,44.444c0,13.334,0,24.444,0,37.777
		c-8.89,2.224-17.777,2.224-28.89,0c0-15.556,0-31.11,0-46.667c0-8.889,0-17.776-2.222-28.889h2.222l0,0h-2.222
		c-4.444-4.444-6.667-11.111-13.334-11.111l-2.223-2.222c-2.223,0-6.667,0-8.889-2.223c0-2.223,0-2.223,2.222-4.444
		c2.224,2.223,6.667,2.223,8.89,0c0-2.223,0-4.444,0-4.444c2.223,0,4.444,2.223,6.667,2.223
		C588.058,492.99,590.279,492.99,592.502,492.99z"/>
	<path fill="#999999" d="M570.279,499.657C570.279,501.88,570.279,501.88,570.279,499.657c-2.222,2.223-2.222,4.443-2.222,4.443
		s0,2.224-2.223,2.224l0,0l0,0c-2.223-2.224-4.444,2.222-6.667,2.222c-6.666,2.223-8.89,8.89-8.89,15.556c0,20,0,42.224,0,62.224
		c0,2.222,2.224,6.666-2.222,6.666c0,0,0-2.223,0-4.444c0-20,0-37.776,0-57.776c0,20,2.222,37.776,0,57.776
		c-24.444,0-24.444,0-24.444-22.222c0-26.667,0-53.334,0-77.778c4.444-4.444,13.333,0,17.777-6.666
		c8.889-2.223,4.444,6.666,6.667,8.89c0,2.222,2.222,4.443,4.444,2.222c4.443-2.222,8.889,0,13.333,0v2.221
		c-2.223,0-4.444,0-4.444,0C563.613,499.657,568.058,492.99,570.279,499.657z"/>
	<path fill="#999999" d="M663.613,459.657c-8.89-2.223-13.334-8.89-11.11-17.777c0-8.89,11.11-15.556,20-13.334
		c8.889,0,17.776,6.667,17.776,15.556c0,8.89-4.443,15.557-13.333,17.778C672.502,457.436,668.058,457.436,663.613,459.657z"/>
	<path fill="#999999" d="M663.613,592.99c-2.223,0-4.444,0-6.667,0c0-37.777,0-73.333,0-111.11c8.89,0,17.777-2.223,26.667,2.222
		l-2.223,2.223c-4.444,2.222-8.889,0-13.333,0s-4.444,2.222-4.444,6.666c-2.223,24.444,0,51.11,0,75.556
		c2.223,6.667,0,11.111,4.444,17.778c2.222,2.222,0,4.443-2.223,4.443C665.835,588.546,665.835,590.769,663.613,592.99
		C665.835,590.769,665.835,590.769,663.613,592.99C665.835,590.769,665.835,592.99,663.613,592.99z"/>
	<path fill="#999999" d="M623.613,592.99L623.613,592.99c-8.89,0-17.777,4.444-26.667,0
		C605.835,592.99,614.724,592.99,623.613,592.99z"/>
	<path fill="#999999" d="M663.613,459.657c4.444-2.223,8.89-2.223,11.11,0C672.502,459.657,668.058,459.657,663.613,459.657z"/>
	<path fill="#999999" d="M483.613,428.546C485.834,428.546,485.834,428.546,483.613,428.546
		c2.223,55.556,2.223,108.89,2.223,164.444c-2.223,2.223-2.223,0-4.444,0c0,0,0-2.223,0-4.444v-2.222c0-46.667,0-93.334,0-140
		c0-4.444,0-6.667-2.223-8.89c-13.333-2.223-15.556,0-15.556,11.11c0,42.223,0,84.444,0,124.444c0,4.444,2.223,11.11-4.444,13.334
		c0-33.334,0-64.444,0-97.778c0-20,0-37.777,0-57.777c4.444-4.443,11.11-2.223,15.556-2.223S481.39,430.769,483.613,428.546z"/>
	<path fill="#999999" d="M459.167,430.769c0,51.111,0,104.444,0,155.557l2.223,2.222c0,2.223,0,2.223,0,4.445h-2.223
		c0-53.334,0-106.667,0-160C456.946,430.769,456.946,428.546,459.167,430.769C459.167,428.546,459.167,428.546,459.167,430.769
		L459.167,430.769z"/>
	<path fill="#999999" d="M456.946,592.99C456.946,592.99,459.167,592.99,456.946,592.99c8.89-4.444,17.777-4.444,24.444,0
		c2.223,0,2.223,0,4.444,0C476.946,595.213,465.834,595.213,456.946,592.99z"/>
	<path fill="#999999" d="M548.058,524.102c-2.223-6.666,2.222-11.11,6.666-15.556c2.223-2.222,2.223,0,4.444,0
		C554.724,512.99,550.279,517.436,548.058,524.102z"/>
	<path fill="#999999" d="M545.835,592.99C545.835,592.99,548.058,592.99,545.835,592.99c-8.889,2.223-17.777,2.223-24.444,2.223
		C530.279,590.769,536.946,592.99,545.835,592.99C545.835,590.769,545.835,590.769,545.835,592.99z"/>
	<path fill="#999999" d="M459.167,430.769C459.167,428.546,459.167,428.546,459.167,430.769c0-2.223,0-2.223,2.223-2.223
		c6.667,0,11.111,0,17.777,0c2.223,0,4.444,0,6.667,0C476.946,432.99,468.057,428.546,459.167,430.769z"/>
	<path fill="#999999" d="M916.946,490.769c11.111,0,20-2.223,31.111,2.223C939.168,490.769,928.058,492.99,916.946,490.769z"/>
	<path fill="#999999" d="M903.613,577.436c6.666-2.223,8.89,4.444,13.333,4.444c0,0,0,0,0,2.222l0,0h-2.223
		C908.058,586.324,908.058,579.657,903.613,577.436z"/>
	<path fill="#999999" d="M914.724,581.88C916.946,581.88,916.946,581.88,914.724,581.88c6.667,0,11.111-2.223,15.556,0
		C925.835,586.324,921.391,586.324,914.724,581.88z"/>
	<path fill="#999999" d="M903.613,581.88c-2.223,0-4.444-2.223-4.444-4.444c0-2.223,2.223-2.223,4.444-2.223
		C903.613,579.657,903.613,579.657,903.613,581.88z"/>
	<path fill="#999999" d="M903.613,588.546C903.613,588.546,901.391,586.324,903.613,588.546c2.223-2.222,4.444-2.222,8.89-2.222
		C908.058,588.546,905.835,588.546,903.613,588.546z"/>
	<path fill="#999999" d="M928.058,501.88c-2.223,0-4.444,2.222-6.667,2.222C921.391,499.657,923.613,499.657,928.058,501.88z"/>
	<path fill="#999999" d="M790.279,495.213c-6.666,4.444-13.333,0-20,2.223c-2.222,0-6.666,0-8.889,0v-2.223
		C770.279,495.213,781.391,495.213,790.279,495.213z"/>
	<path fill="#999999" d="M781.391,595.213c-6.667,0-13.333,0-20,0C768.058,588.546,774.724,590.769,781.391,595.213z"/>
	<path fill="#999999" d="M801.391,497.436c-2.223,2.223-6.667,4.444-8.889,8.89c-2.224-4.444,2.222-6.667,2.222-8.89
		C796.946,497.436,799.168,497.436,801.391,497.436z"/>
	<path fill="#999999" d="M774.724,481.88c4.444,0,11.111,0,15.556,0C785.835,486.324,779.168,486.324,774.724,481.88z"/>
	<path fill="#999999" d="M756.946,595.213c-2.223,0-2.223,0-4.443-2.223c0-2.223,2.222-4.444,4.443-4.444
		C759.168,590.769,756.946,592.99,756.946,595.213z"/>
	<path fill="#999999" d="M776.946,504.102c-2.223,0-6.667,0-8.889,0l-2.223-2.222C770.279,504.102,774.724,499.657,776.946,504.102z
		"/>
	<path fill="#999999" d="M785.835,590.769l-2.223-2.223c0-2.222,2.223-2.222,2.223,0
		C788.058,586.324,790.279,586.324,785.835,590.769C788.058,588.546,788.058,590.769,785.835,590.769z"/>
	<path fill="#999999" d="M790.279,575.213c2.224,0,4.444,0,2.224,2.223c-2.224,2.223-4.444,2.223-6.667,0
		C785.835,577.436,788.058,577.436,790.279,575.213C788.058,575.213,788.058,575.213,790.279,575.213z"/>
	<path fill="#999999" d="M790.279,575.213C790.279,575.213,788.058,575.213,790.279,575.213c-4.443,0-4.443,0-6.666-2.223
		C785.835,572.99,788.058,572.99,790.279,575.213z"/>
	<path fill="#999999" d="M736.946,535.213c4.444,2.223,2.223,4.444,2.223,8.889C736.946,539.657,736.946,537.436,736.946,535.213z"
		/>
	<path fill="#999999" d="M143.612,592.99c13.333-4.444,26.667,0,42.222-2.223c4.444,0,8.889,2.223,11.111-2.223
		c0,0,2.222,2.223,4.444,4.444c-11.111,2.223-20,0-31.111,0C161.39,592.99,152.501,595.213,143.612,592.99z"/>
	<path fill="#999999" d="M143.612,592.99c20,0,37.778,0,57.778,0c2.222,4.444-2.222,2.223-2.222,2.223h-2.222
		C179.168,595.213,161.39,595.213,143.612,592.99L143.612,592.99z"/>
	<path fill="#999999" d="M112.501,559.657c2.222,0,2.222,0,4.444,0c2.222-2.223,6.667-6.667,8.889,2.223
		c2.222,6.666,13.333,6.666,17.778,11.11c-2.222,2.223-4.444,4.444-8.889,6.667c-2.222,0-4.445-2.223-6.667,0
		c-2.222,0-2.222-2.223-4.444-2.223l0,0c-2.222-2.223-6.667-6.667-8.889-11.11C114.723,564.102,112.501,561.88,112.501,559.657
		C110.279,559.657,110.279,559.657,112.501,559.657z"/>
	<path fill="#999999" d="M930.279,581.88c-4.443,0-8.889,0-13.333,0v-2.223C921.391,584.102,928.058,572.99,930.279,581.88z"/>
	<path fill="#999999" d="M563.613,497.436C563.613,495.213,563.613,495.213,563.613,497.436c4.444-6.667,11.11-6.667,15.556-6.667
		c0,2.223,2.223,2.223,2.223,6.667C576.946,499.657,570.279,499.657,563.613,497.436z"/>
	<path fill="#999999" d="M592.502,492.99c-2.224,2.223-4.444,6.667-6.667,0C588.058,488.546,590.279,492.99,592.502,492.99z"/>
	<path fill="#999999" d="M545.835,592.99L545.835,592.99c-2.223,0-2.223-2.223-2.223-2.223c0-20,0-40,0-60h2.223
		C545.835,550.769,545.835,572.99,545.835,592.99z"/>
	<path fill="#999999" d="M539.168,481.88c0,4.444-2.223,6.666-6.666,6.666c-4.444,0-6.667,0-11.111,0c0-4.444,0-6.666,4.444-6.666
		C530.278,481.88,534.724,481.88,539.168,481.88z"/>
	<path fill="#999999" d="M663.613,590.769C663.613,588.546,659.168,592.99,663.613,590.769c0-2.223,0-2.223,2.223-2.223
		c-6.667-4.444-4.444-11.11-4.444-17.777c-2.223-26.667-2.223-53.333,0-80v-2.223c-2.223,0-4.444,0-4.444-2.222
		c0-2.224,2.223-2.224,2.223-2.224c6.667-2.222,13.334-2.222,20-2.222c2.223,8.889,0,17.777,0,26.666c0,22.223,0,46.667,0,68.89
		c0,2.223-2.223,6.666,2.223,8.89c0,2.222,0,2.222,0,4.443C676.946,592.99,670.279,592.99,663.613,590.769z"/>
	<path fill="#999999" d="M683.613,586.324c-4.445-2.223-2.223-6.667-2.223-11.111c0-22.223,0-46.667,0-68.889h2.223
		C685.835,535.213,685.835,559.657,683.613,586.324z"/>
	<path fill="#999999" d="M683.613,508.546L683.613,508.546c-2.223-8.889-2.223-17.777-2.223-24.444h2.223
		C685.835,490.769,685.835,499.657,683.613,508.546z"/>
	<path fill="#999999" d="M663.613,590.769c6.666,0,13.333,0,20,0v2.224C676.946,592.99,670.279,592.99,663.613,590.769
		L663.613,590.769z"/>
	<path fill="#999999" d="M61.39,592.99C59.168,592.99,59.168,592.99,61.39,592.99c-2.222,0-2.222,0-2.222-2.223
		C59.168,590.769,59.168,590.769,61.39,592.99c-2.222-4.444-2.222-4.444-2.222-6.666c-2.222-22.224-2.222-42.224,0-64.444v-2.223
		c0-6.667-2.222-11.111,0-17.777l2.222,2.222C61.39,532.99,61.39,564.102,61.39,592.99z"/>
	<path fill="#999999" d="M59.168,521.88c0,22.222,0,42.222,0,64.444c-2.222-2.224-2.222-6.667-2.222-8.89c0-15.556,0-31.11,0-46.667
		C56.946,528.546,56.946,524.102,59.168,521.88z"/>
	<path fill="#999999" d="M145.834,399.657c15.556,0,31.111-2.222,46.667,2.222c-2.223,2.222-4.445,4.445-8.889,4.445
		c-4.444-4.445-8.889-4.445-15.556-4.445C161.39,401.88,152.501,404.102,145.834,399.657z"/>
	<path fill="#999999" d="M59.168,408.546c0,20,0,40,0,57.778c-4.444-4.444-2.222-8.89-2.222-13.334c0-13.333,0-26.666,0-40
		C56.946,408.546,56.946,408.546,59.168,408.546z"/>
	<path fill="#999999" d="M21.39,401.88L21.39,401.88c8.889-4.444,22.222,0,33.333,0C43.612,401.88,32.501,401.88,21.39,401.88z"/>
	<path fill="#999999" d="M59.168,590.769L59.168,590.769c-13.333,2.223-24.444,2.223-37.778,2.223v-2.223l0,0
		C34.723,590.769,45.834,590.769,59.168,590.769z"/>
	<path fill="#999999" d="M59.168,501.88c0,6.666,0,11.11,0,17.777C56.946,515.213,52.501,508.546,59.168,501.88z"/>
	<path fill="#999999" d="M85.834,468.546c0,2.223,0,4.444-4.444,4.444c0,0-2.222,0-2.222-2.223s2.222-4.443,4.444-4.443
		C83.612,466.324,85.834,466.324,85.834,468.546z"/>
	<path fill="#999999" d="M136.946,588.546c-2.222-2.222-4.444-4.444-6.667-6.666c2.223-2.223,4.445-2.223,4.445-2.223
		C139.168,584.102,139.168,586.324,136.946,588.546z"/>
	<path fill="#999999" d="M134.723,579.657c-2.222,0-2.222,0-4.445,0h-2.222c0-2.223,0-4.444,2.222-4.444
		C132.501,575.213,134.723,577.436,134.723,579.657L134.723,579.657z"/>
	<path fill="#999999" d="M59.168,470.769c0,2.223,0,4.444,0,8.89C54.723,477.436,56.946,472.99,59.168,470.769z"/>
	<path fill="#999999" d="M856.946,579.657c-6.667-17.777-4.443-37.777-2.223-55.557c0-6.666,2.223-13.333,0-17.776
		c0-4.444,0-6.667,2.223-13.334c0,4.444,0,6.667,0,8.89c2.223,22.222,0,46.666,0,68.889
		C856.946,575.213,859.168,577.436,856.946,579.657z"/>
	<path fill="#999999" d="M836.946,588.546L836.946,588.546C836.946,588.546,834.724,588.546,836.946,588.546
		c-2.223-31.11-2.223-64.444-2.223-95.556c2.223,2.223,2.223,6.667,2.223,11.11C836.946,530.769,836.946,559.657,836.946,588.546z"
		/>
	<path fill="#999999" d="M856.946,579.657c0-26.667,0-53.333,0-77.777h2.223c0,28.889,0,55.556,0,84.444
		C856.946,586.324,856.946,581.88,856.946,579.657z"/>
	<path fill="#999999" d="M601.391,530.769c0,17.777,0,35.557,0,53.333l0,0C601.391,566.324,601.391,548.546,601.391,530.769
		L601.391,530.769z"/>
	<path fill="#999999" d="M563.613,497.436c6.666,0,11.11,0,17.777,0c-4.444,2.223-6.667,4.444-11.111,4.444
		c-4.443-4.444-11.11-2.223-15.556,0C556.946,495.213,561.391,497.436,563.613,497.436z"/>
	<path fill="#999999" d="M594.724,517.436c0-2.223,0-2.223,2.223-2.223c2.223,2.223,4.444,4.444,2.223,6.667
		C594.724,521.88,596.946,517.436,594.724,517.436L594.724,517.436z"/>
	<path fill="#999999" d="M579.168,504.102c-4.444,0-6.666,0-11.11,0c0,0-2.223-2.222,0-2.222
		C572.502,504.102,576.946,499.657,579.168,504.102z"/>
	<path fill="#999999" d="M661.391,437.436c0,2.223,0,4.444-2.223,6.666c-2.223,0-2.223-2.222-2.223-4.443
		C659.168,439.657,659.168,437.436,661.391,437.436z"/>
	<path fill="#999999" d="M663.613,488.546c4.444,4.444,0,11.111,0,15.556c0,22.224,0,44.444,0,66.667c0,0-2.223,0-2.223-2.223
		C661.391,541.88,659.168,515.213,663.613,488.546z"/>
	<path fill="#999999" d="M459.167,588.546C459.167,588.546,459.167,586.324,459.167,588.546c2.223-4.444,2.223-8.889,2.223-13.333
		c0-44.444,0-86.667,0-131.111c0-13.333,0-13.333,13.333-13.333c2.223,0,6.667,0,8.89,0c2.223,2.223,0,4.444,0,6.667
		c0,48.89,0,97.777,0,144.444c0,2.222,0,4.444,0,6.666l0,0C474.723,590.769,465.834,592.99,459.167,588.546z"/>
	<path fill="#999999" d="M481.39,590.769c0-53.333,0-106.667,0-157.777c2.223,2.223,2.223,6.667,2.223,8.89c0,46.666,0,93.333,0,140
		C483.613,584.102,485.834,588.546,481.39,590.769z"/>
	<path fill="#999999" d="M459.167,588.546c6.667,4.444,15.556,2.223,24.444,2.223v2.224c-8.89,0-15.556,0-24.444,0
		C459.167,590.769,459.167,590.769,459.167,588.546z"/>
</g>
</svg>
