<?xml version="1.0" encoding="utf-8"?>
<!-- Generator: Adobe Illustrator 16.0.0, SVG Export Plug-In . SVG Version: 6.00 Build 0)  -->
<!DOCTYPE svg PUBLIC "-//W3C//DTD SVG 1.1//EN" "http://www.w3.org/Graphics/SVG/1.1/DTD/svg11.dtd">
<svg version="1.1" id="Layer_1" xmlns="http://www.w3.org/2000/svg" xmlns:xlink="http://www.w3.org/1999/xlink" x="0px" y="0px"
	 width="1000px" height="294.233px" viewBox="0 339.099 1000 294.233" enable-background="new 0 339.099 1000 294.233"
	 xml:space="preserve">
<g>
	<g>
		<path fill="#999999" d="M557.143,343.357h-24.762c-9.522,0-18.095,8.571-18.095,20v151.429c0,11.429,8.571,20,18.095,20h24.762
			c9.524,0,18.097-8.571,18.097-20V363.357C575.238,351.929,566.667,343.357,557.143,343.357z"/>
		<path fill="#999999" d="M56.19,343.357H31.43c-9.524,0-18.095,8.571-18.095,20v151.429c0,11.429,7.619,20,18.095,20H56.19
			c9.524,0,18.095-8.571,18.095-20V363.357C74.287,351.929,66.667,343.357,56.19,343.357z"/>
		<path fill="#999999" d="M263.811,347.167H240c-7.619,0-13.333,5.714-13.333,13.333v74.286l-59.047-81.905c0,0,0-0.952-0.953-0.952
			c-1.905-3.81-5.714-5.714-10.476-5.714h-25.714c-6.667,0-12.381,5.714-12.381,12.381v155.238c0,6.667,5.714,12.381,12.381,12.381
			h25.714c6.667,0,12.381-5.714,12.381-12.381v-72.381l59.048,81.903c0.952,1.905,9.524,6.667,12.381,6.667h23.81
			c7.619,0,13.333-5.714,13.333-13.333V360.501C278.096,352.882,271.43,347.167,263.811,347.167z"/>
		<path fill="#999999" d="M985.715,430.977c-1.904-20.952-11.43-40.952-26.667-56.189c-17.144-17.144-40.952-27.619-64.763-27.619
			h-0.952h-0.952l0,0c-0.952,0-0.952,0-1.904,0c-0.953,0-0.953,0-1.904,0h-11.43l0,0h-47.619c-8.57,0-16.189,7.619-16.189,16.19
			v13.333v47.62v13.333c0,8.571,7.619,16.19,16.189,16.19h31.43c5.715,0,10.477-2.857,13.334-7.619
			c3.81-6.667,1.904-13.333,1.904-20c0.951-9.523,10.477-14.286,20-14.286c0.951,0,1.904,0,2.856,0
			c2.856,0.953,5.714,1.905,8.571,2.857l0,0c8.57,4.762,15.238,14.286,15.238,24.762l0,0v0.953
			c0,16.189-13.334,29.522-29.524,29.522h-16.19l0,0h-47.619c-8.57,0-16.189,7.619-16.189,16.19v31.429
			c0,8.571,7.619,16.19,16.189,16.19h47.619l0,0h11.43c0.951,0,0.951,0,1.904,0c0.952,0,0.952,0,1.904,0l0,0h0.952h0.952
			c5.715,0,5.715,0,5.715,0c27.619-1.905,51.429-15.238,67.619-36.19l0,0l0,0c0,0,0.952-0.952,2.857-2.856
			c3.809-5.714,7.618-11.43,9.522-18.096c2.856-5.715,4.762-13.334,5.714-20.952c0-1.904,0.952-3.811,0.952-4.763c0,0,0,0,0-0.952
			v-0.951v-0.952v-0.953v-0.953v-0.952v-0.952v-0.953c0-0.951,0-0.951,0-1.903l0,0C986.667,437.644,986.667,434.786,985.715,430.977
			z"/>
		<path fill="#999999" d="M796.19,514.786l-61.904-160.952c-1.905-4.763-6.667-7.619-11.429-7.619H680
			c-4.762,0-9.523,2.856-11.429,7.619l-61.904,160.952c-2.857,7.619,2.856,16.189,11.429,16.189h33.333
			c4.763,0,9.523-2.855,11.43-7.619l3.81-9.522c1.904-4.763,5.714-7.619,11.429-7.619h25.714l0,0h7.619
			c4.763,0,7.619-3.81,5.715-8.571l-6.666-22.856c-0.953-2.857-3.811-4.763-6.668-4.763h-7.618l0,0h-8.571
			c-2.857,0-5.715-2.856-3.811-6.667l13.334-36.189c1.904-2.856,7.618-2.856,8.57,0.953l9.524,23.809L720,463.357
			c0,0.953,12.381,38.097,18.096,53.334l1.904,5.714c1.904,4.762,6.667,7.618,11.429,7.618h33.333
			C793.333,530.977,799.048,523.357,796.19,514.786z"/>
		<path fill="#999999" d="M408.572,346.215h-78.096c-5.715,0-10.477,4.762-10.477,10.476v163.811
			c0,5.714,4.762,10.476,10.477,10.476h30.477c5.715,0,10.477-4.762,10.477-10.476v-34.286l0,0v-68.571l0,0v-13.333
			c0-5.714,4.763-10.476,10.477-10.476h20.953c12.381,0,20.952,7.618,20.952,17.143s-8.571,17.145-20.952,17.145h-0.953h-8.571
			c-3.81,0-7.619,3.809-7.619,7.618v32.382c0,3.809,3.811,7.618,7.619,7.618h11.429l0,0h1.905c41.904,0,70.476-26.666,70.476-64.763
			C479.048,372.882,449.524,346.215,408.572,346.215z"/>
	</g>
	<g>
		<path fill="#999999" d="M40,580.501H25.714v-8.572h38.096v8.572H49.524v37.143H40V580.501z"/>
		<path fill="#999999" d="M102.857,595.738v21.904h-9.523v-20c0-3.81-2.857-7.619-6.667-7.619s-7.619,2.857-7.619,6.667v20h-9.524
			v-46.666h9.524v16.19c1.904-2.857,5.714-4.762,10.476-4.762C98.096,582.405,102.857,588.12,102.857,595.738z"/>
		<path fill="#999999" d="M135.238,607.167l6.667,6.667c-2.857,2.856-8.571,5.714-14.286,5.714
			c-10.476,0-18.095-7.619-18.095-18.095c0-10.478,7.619-18.097,18.095-18.097s17.143,8.571,17.143,20.953H120
			c0.952,3.811,3.81,6.666,8.571,6.666C130.477,610.024,133.333,608.12,135.238,607.167z M119.048,596.691h15.238
			c-0.952-3.81-3.81-5.715-7.619-5.715C123.811,590.977,120.953,592.882,119.048,596.691z"/>
		<path fill="#999999" d="M166.667,583.357h9.524l6.667,21.905l6.667-21.905h7.619l6.667,21.905l6.667-21.905H220l-11.429,34.286
			H200l-6.667-21.904l-6.667,21.904h-8.571L166.667,583.357z"/>
		<path fill="#999999" d="M221.905,600.501c0-9.524,8.571-18.096,19.047-18.096c10.477,0,19.048,8.57,19.048,18.096
			c0,9.522-8.571,18.095-19.048,18.095C230.477,618.596,221.905,610.024,221.905,600.501z M250.477,600.501
			c0-5.715-4.762-9.524-9.524-9.524c-4.762,0-9.523,4.763-9.523,9.524c0,5.714,4.762,9.522,9.523,9.522
			C245.714,610.024,250.477,605.263,250.477,600.501z"/>
		<path fill="#999999" d="M287.62,582.405v8.57c-7.619,0-11.429,3.811-11.429,10.478v16.189h-9.524v-34.286h9.524v6.667
			C278.096,585.263,281.905,582.405,287.62,582.405z"/>
		<path fill="#999999" d="M293.333,570.977h9.524v46.667h-9.524V570.977z"/>
		<path fill="#999999" d="M346.667,570.977v46.667h-9.524v-4.762c-2.855,3.81-6.666,5.714-11.429,5.714
			c-9.522,0-16.189-7.619-16.189-18.095c0-10.478,6.667-18.096,16.189-18.096c4.763,0,8.572,1.904,11.429,5.715v-17.145
			L346.667,570.977L346.667,570.977z M337.143,600.501c0-5.715-3.81-9.524-8.57-9.524c-5.714,0-9.523,3.811-9.523,9.524
			s3.811,9.522,9.523,9.522C333.333,610.024,337.143,606.215,337.143,600.501z"/>
		<path fill="#999999" d="M370.477,583.357H380l6.667,21.905l6.666-21.905h7.619l6.667,21.905l6.667-21.905h9.522l-11.429,34.286
			h-8.571l-5.714-21.904l-6.667,21.904h-8.57L370.477,583.357z"/>
		<path fill="#999999" d="M452.381,607.167l6.667,6.667c-2.856,2.856-8.571,5.714-14.286,5.714
			c-10.476,0-18.095-7.619-18.095-18.095c0-10.478,7.619-18.097,18.095-18.097c10.478,0,17.144,8.571,17.144,20.953h-24.763
			c0.953,3.811,3.811,6.666,8.572,6.666C447.62,610.024,450.477,608.12,452.381,607.167z M436.191,596.691h15.237
			c-0.952-3.81-3.81-5.715-7.619-5.715C440.953,590.977,438.096,592.882,436.191,596.691z"/>
		<path fill="#999999" d="M540,595.738v21.904h-9.523v-20c0-3.81-2.856-6.667-5.715-6.667c-3.81,0-6.666,2.857-6.666,6.667v20.952
			h-9.523v-20c0-3.81-2.857-6.667-5.714-6.667c-3.81,0-6.667,2.857-6.667,6.667v20.952h-9.523v-34.285h9.523v4.763
			c1.904-2.857,4.761-5.715,9.522-5.715c4.763,0,8.572,2.856,10.478,6.666c1.904-3.81,5.714-6.666,11.429-6.666
			C534.286,582.405,540,588.12,540,595.738z"/>
		<path fill="#999999" d="M579.048,596.691v20.952h-9.523v-3.81c-2.856,2.856-6.666,3.81-10.477,3.81
			c-7.619,0-13.334-4.762-13.334-11.429s6.667-11.429,14.286-11.429c2.857,0,5.714,0.952,8.571,1.904v-0.952
			c0-3.811-1.904-6.666-7.619-6.666c-2.856,0-6.666,0.951-8.571,2.855l-2.857-5.713c4.763-2.857,9.523-3.81,14.285-3.81
			C572.381,582.405,579.048,588.12,579.048,596.691z M569.523,607.167v-2.856c-1.904-0.953-4.763-0.953-7.619-0.953
			c-3.81,0-6.666,1.905-6.666,4.764c0,2.855,2.856,4.762,5.714,4.762C565.714,611.929,568.571,610.024,569.523,607.167z"/>
		<path fill="#999999" d="M607.619,598.596l13.333,19.048h-11.429l-8.571-13.333l-3.811,4.763v8.57h-9.522v-46.667h9.522v26.667
			l12.382-15.237h11.429L607.619,598.596z"/>
		<path fill="#999999" d="M649.523,607.167l6.667,6.667c-2.857,2.856-8.571,5.714-14.286,5.714
			c-10.477,0-18.096-7.619-18.096-18.095c0-10.478,7.619-18.097,18.096-18.097s17.144,8.571,17.144,20.953h-24.762
			c0.952,3.811,3.81,6.666,8.571,6.666C643.81,610.024,647.619,608.12,649.523,607.167z M633.333,596.691h15.238
			c-0.952-3.81-3.811-5.715-7.619-5.715C638.096,590.977,634.286,592.882,633.333,596.691z"/>
		<path fill="#999999" d="M703.81,615.738c-1.904,1.904-4.762,2.856-7.618,2.856c-5.715,0-10.478-4.762-10.478-10.476v-17.145
			h-4.762v-7.619h4.762v-9.522h9.524v9.522h7.619v7.619h-7.619v15.24c0,1.905,1.903,3.81,2.856,3.81c0.952,0,2.856,0,2.856-0.951
			L703.81,615.738z"/>
		<path fill="#999999" d="M707.619,600.501c0-9.524,8.571-18.096,19.048-18.096c10.476,0,19.047,8.57,19.047,18.096
			c0,9.522-8.571,18.095-19.047,18.095C716.19,618.596,707.619,610.024,707.619,600.501z M736.19,600.501
			c0-5.715-4.763-9.524-9.523-9.524c-4.763,0-9.524,4.763-9.524,9.524c0,5.714,4.763,9.522,9.524,9.522
			C731.429,610.024,736.19,605.263,736.19,600.501z"/>
		<path fill="#999999" d="M786.667,583.357v30.478c0,8.571-7.619,15.238-18.096,15.238c-5.714,0-11.43-1.905-15.238-4.763
			l3.81-6.667c1.905,1.904,6.667,2.857,10.478,2.857c6.666,0,10.477-2.857,10.477-7.619v-3.811
			c-2.856,2.856-6.667,5.715-11.429,5.715c-8.571,0-15.238-6.666-15.238-16.19c0-9.522,6.667-16.19,15.238-16.19
			c4.762,0,9.523,1.905,11.429,5.716v-4.764H786.667L786.667,583.357z M777.143,598.596c0-4.762-3.81-8.571-8.57-8.571
			c-4.762,0-8.571,3.811-8.571,8.571s3.81,8.571,8.571,8.571C773.333,607.167,777.143,603.357,777.143,598.596z"/>
		<path fill="#999999" d="M819.048,607.167l6.666,6.667c-2.856,2.856-8.571,5.714-14.285,5.714
			c-10.477,0-18.096-7.619-18.096-18.095c0-10.478,7.619-18.097,18.096-18.097s17.144,8.571,17.144,20.953H803.81
			c0.952,3.811,3.811,6.666,8.571,6.666C814.286,610.024,818.096,608.12,819.048,607.167z M803.81,596.691h15.238
			c-0.952-3.81-3.81-5.715-7.619-5.715C807.62,590.977,804.762,592.882,803.81,596.691z"/>
		<path fill="#999999" d="M855.238,615.738c-1.905,1.904-4.763,2.856-7.619,2.856c-5.715,0-10.478-4.762-10.478-10.476v-17.145
			h-4.762v-7.619h4.762v-9.522h9.524v9.522h7.619v7.619h-7.619v15.24c0,1.905,1.904,3.81,2.855,3.81c0.953,0,2.857,0,2.857-0.951
			L855.238,615.738z"/>
		<path fill="#999999" d="M894.285,595.738v21.904h-9.523v-20c0-3.81-2.856-7.619-6.666-7.619c-3.811,0-7.619,2.857-7.619,6.667v20
			h-9.523v-46.666h9.523v16.19c1.904-2.857,5.715-4.762,10.477-4.762C888.571,582.405,894.285,588.12,894.285,595.738z"/>
		<path fill="#999999" d="M926.667,607.167l6.666,6.667c-2.856,2.856-8.571,5.714-14.285,5.714
			c-10.477,0-18.096-7.619-18.096-18.095c0-10.478,7.619-18.097,18.096-18.097s17.144,8.571,17.144,20.953h-24.763
			c0.952,3.811,3.811,6.666,8.571,6.666C920.952,610.024,924.762,608.12,926.667,607.167z M910.477,596.691h15.237
			c-0.952-3.81-3.81-5.715-7.618-5.715C915.238,590.977,911.429,592.882,910.477,596.691z"/>
		<path fill="#999999" d="M962.857,582.405v8.57c-7.619,0-11.43,3.811-11.43,10.478v16.189h-9.523v-34.286h9.523v6.667
			C953.333,585.263,958.096,582.405,962.857,582.405z"/>
	</g>
</g>
</svg>
