<?xml version="1.0" encoding="utf-8"?>
<!-- Generator: Adobe Illustrator 22.0.0, SVG Export Plug-In . SVG Version: 6.00 Build 0)  -->
<svg version="1.1" id="Layer_1" xmlns="http://www.w3.org/2000/svg" xmlns:xlink="http://www.w3.org/1999/xlink" x="0px" y="0px"
	 viewBox="0 0 53 60" style="enable-background:new 0 0 53 60;" xml:space="preserve">
<style type="text/css">
	.st0{fill:#AF6038;}
</style>
<g>
	<g>
		<g>
			<polygon class="st0" points="38.3,11.1 43.8,8.3 40.5,1.3 37.8,2.7 			"/>
			<polygon class="st0" points="25.7,17.5 33.2,13.6 32.8,5.2 25.3,9.1 			"/>
			<polygon class="st0" points="13.2,23.8 20.7,20 20.2,11.6 12.8,15.4 			"/>
			<polygon class="st0" points="7.7,18 0.8,21.5 4.1,28.5 8.2,26.4 			"/>
		</g>
		<g>
			<rect x="4.1" y="24.1" transform="matrix(0.978 -0.2086 0.2086 0.978 -4.9248 5.9694)" class="st0" width="43.4" height="4.5"/>
			<path class="st0" d="M52,45l-0.9-4.2l-2.9-13.5l-0.4-1.9L5.4,34.4l0.4,1.9l2.9,13.5L9.5,54c0.7,3.1,3.5,5.2,6.4,4.5L48,51.7
				C50.9,51.1,52.7,48.1,52,45z"/>
		</g>
	</g>
</g>
</svg>
