<?xml version="1.0" encoding="utf-8"?>
<!-- Generator: Adobe Illustrator 22.0.0, SVG Export Plug-In . SVG Version: 6.00 Build 0)  -->
<svg version="1.1" id="Layer_1" xmlns="http://www.w3.org/2000/svg" xmlns:xlink="http://www.w3.org/1999/xlink" x="0px" y="0px"
	 viewBox="0 0 77 77" style="enable-background:new 0 0 77 77;" xml:space="preserve">
<style type="text/css">
	.st0{fill:#FFFFFF;}
	.st1{fill:#AF6038;}
</style>
<rect class="st0" width="77" height="77"/>
<g>
	<path class="st1" d="M77,77H0V0h77V77z M5,72h67V5H5V72z"/>
</g>
<circle class="st1" cx="38.1" cy="57.4" r="1.6"/>
<circle class="st1" cx="31" cy="57.4" r="1.6"/>
<circle class="st1" cx="45.4" cy="57.4" r="1.6"/>
<g>
	<path class="st1" d="M53.5,20c0-1.1-0.9-2-2-2h-26c-1.1,0-2,0.9-2,2l-1.4,11.9H55L53.5,20z M24.4,30.1l1.2-8.9
		c0-0.8,0.8-1.5,1.7-1.5h22.1c0.9,0,1.7,0.7,1.7,1.5l1.2,8.9H24.4z"/>
	<rect x="22.1" y="32.9" class="st1" width="32.9" height="2.3"/>
	<rect x="37.9" y="33.7" class="st1" width="1.7" height="16.9"/>
	<rect x="31.2" y="49.2" class="st1" width="15.2" height="1.7"/>
</g>
</svg>
