<?xml version="1.0" encoding="utf-8"?>
<!-- Generator: Adobe Illustrator 22.0.0, SVG Export Plug-In . SVG Version: 6.00 Build 0)  -->
<svg version="1.1" id="Layer_1" xmlns="http://www.w3.org/2000/svg" xmlns:xlink="http://www.w3.org/1999/xlink" x="0px" y="0px"
	 viewBox="0 0 77 77" style="enable-background:new 0 0 77 77;" xml:space="preserve">
<style type="text/css">
	.st0{fill:#FFFFFF;}
	.st1{fill:#AF6038;}
</style>
<rect class="st0" width="77" height="77"/>
<g>
	<path class="st1" d="M77,77H0V0h77V77z M5,72h67V5H5V72z"/>
</g>
<circle class="st1" cx="38.1" cy="57.4" r="1.6"/>
<circle class="st1" cx="31" cy="57.4" r="1.6"/>
<circle class="st1" cx="45.4" cy="57.4" r="1.6"/>
<g>
	<path class="st1" d="M19.7,43.1l4.2-4.1c0.6,1.2,1.9,2,3.1,2c1.6,0,2.7-1.1,2.7-2.7v-15h6.6V39c0,4.7-3.5,8-8.4,8
		C24.8,46.9,21.4,45.3,19.7,43.1z"/>
	<path class="st1" d="M38.5,44.3l2.4-4c1.7,1.2,4.2,2.1,6.1,2.1c1.2,0,1.7-0.3,1.7-0.9c0-0.6-1-0.9-2.6-1.3
		c-3.2-0.7-6.7-1.5-6.7-5.6c0-3.4,2.7-6,7.3-6c2.7,0,5.3,1,7.3,2.3l-2.2,4C50.2,34,48.2,33,46.6,33c-0.9,0-1.5,0.5-1.5,1
		c0,0.6,0.8,0.7,2.5,1.1c3.2,0.7,6.8,1.8,6.8,5.9c0,3.6-2.9,5.9-7.6,5.9C43.8,46.9,40.6,45.9,38.5,44.3z"/>
</g>
</svg>
