<?xml version="1.0" encoding="utf-8"?>
<!-- Generator: Adobe Illustrator 22.0.0, SVG Export Plug-In . SVG Version: 6.00 Build 0)  -->
<svg version="1.1" id="Layer_1" xmlns="http://www.w3.org/2000/svg" xmlns:xlink="http://www.w3.org/1999/xlink" x="0px" y="0px"
	 viewBox="0 0 77 77" style="enable-background:new 0 0 77 77;" xml:space="preserve">
<style type="text/css">
	.st0{fill:#FFFFFF;}
	.st1{fill:#AF6038;}
</style>
<rect class="st0" width="77" height="77"/>
<g>
	<path class="st1" d="M77,77H0V0h77V77z M5,72h67V5H5V72z"/>
</g>
<circle class="st1" cx="38.1" cy="57.4" r="1.6"/>
<circle class="st1" cx="31" cy="57.4" r="1.6"/>
<circle class="st1" cx="45.4" cy="57.4" r="1.6"/>
<g>
	<g>
		<polygon class="st1" points="44.4,21.9 48,20 45.8,15.4 44.1,16.3 		"/>
		<polygon class="st1" points="36.1,26.1 41,23.6 40.7,18 35.8,20.5 		"/>
		<polygon class="st1" points="27.8,30.3 32.7,27.8 32.5,22.2 27.5,24.7 		"/>
		<polygon class="st1" points="24.2,26.4 19.6,28.7 21.8,33.4 24.5,32 		"/>
	</g>
	<g>
		<rect x="21.8" y="30.4" transform="matrix(0.978 -0.2086 0.2086 0.978 -5.8592 8.2412)" class="st1" width="28.7" height="3"/>
		<path class="st1" d="M53.4,44.2l-0.6-2.8l-1.9-8.9l-0.3-1.2l-28,6l0.3,1.2l1.9,8.9l0.6,2.8c0.4,2.1,2.3,3.4,4.2,3l21.2-4.5
			C52.7,48.3,53.9,46.3,53.4,44.2z"/>
	</g>
</g>
</svg>
