<?xml version="1.0" encoding="utf-8"?>
<!-- Generator: Adobe Illustrator 22.0.0, SVG Export Plug-In . SVG Version: 6.00 Build 0)  -->
<svg version="1.1" id="Layer_1" xmlns="http://www.w3.org/2000/svg" xmlns:xlink="http://www.w3.org/1999/xlink" x="0px" y="0px"
	 viewBox="0 0 77 77" style="enable-background:new 0 0 77 77;" xml:space="preserve">
<style type="text/css">
	.st0{fill:#FFFFFF;}
	.st1{fill:#AF6038;}
</style>
<rect class="st0" width="77" height="77"/>
<g>
	<path class="st1" d="M77,77H0V0h77V77z M5,72h67V5H5V72z"/>
</g>
<circle class="st1" cx="38.1" cy="57.4" r="1.6"/>
<circle class="st1" cx="31" cy="57.4" r="1.6"/>
<circle class="st1" cx="45.4" cy="57.4" r="1.6"/>
<g>
	<path class="st1" d="M18,43.1l4.2-4.1c0.6,1.2,1.9,2,3.1,2c1.6,0,2.7-1.1,2.7-2.7v-15h6.6V39c0,4.7-3.5,8-8.4,8
		C23.1,46.9,19.7,45.3,18,43.1z"/>
	<path class="st1" d="M57.5,29v23.3H51v-7.9c-1.4,1.6-3.3,2.5-5.6,2.5c-4.7,0-8-3.8-8-9.2c0-5.3,3.3-9.1,8-9.1
		c2.3,0,4.2,0.9,5.6,2.5V29H57.5z M51,37.7c0-2.2-1.5-3.7-3.5-3.7c-2.3,0-3.9,1.6-3.9,3.7c0,2.2,1.6,3.8,3.9,3.8
		C49.6,41.5,51,39.9,51,37.7z"/>
</g>
</svg>
