<?xml version="1.0" encoding="utf-8"?>
<!-- Generator: Adobe Illustrator 22.0.0, SVG Export Plug-In . SVG Version: 6.00 Build 0)  -->
<svg version="1.1" id="Layer_1" xmlns="http://www.w3.org/2000/svg" xmlns:xlink="http://www.w3.org/1999/xlink" x="0px" y="0px"
	 viewBox="0 0 120 28" style="enable-background:new 0 0 120 28;" xml:space="preserve">
<style type="text/css">
	.st0{fill:#61D9FA;stroke:#61D9FA;stroke-width:0.75;stroke-miterlimit:10;}
	.st1{fill:#515151;}
	.st2{font-family:'Metropolis-Medium';}
	.st3{font-size:23.3127px;}
</style>
<g>
	<g>
		<path class="st0" d="M33.6,12.3c-0.4-0.6-0.9-1.1-1.5-1.5c-1.2-0.9-2.6-1.4-4-1.9c-0.2-0.1-0.2-0.1-0.2-0.3
			c0.2-1.1,0.4-2.2,0.4-3.5c0-0.9-0.1-1.8-0.4-2.7c-0.5-1.3-1.5-2-2.8-1.9c-0.7,0-1.4,0.3-2.1,0.6c-1.4,0.6-2.5,1.5-3.6,2.5
			c-0.1,0.1-0.2,0.1-0.4,0c-0.6-0.5-1.2-1-1.8-1.5c-1.1-0.7-2.2-1.4-3.6-1.6c-1.3-0.2-2.3,0.3-3,1.5C10.2,3,10.1,3.9,10,4.9
			c0,1.2,0.1,2.4,0.4,3.6c0.1,0.3,0.1,0.3-0.2,0.4c-1.1,0.3-2.1,0.8-3.1,1.3c-0.8,0.5-1.6,1.1-2.2,1.8c-0.8,1.1-0.8,2.3,0,3.4
			c0.5,0.7,1.1,1.2,1.8,1.6c1.1,0.7,2.4,1.3,3.7,1.7c0.2,0,0.2,0.1,0.2,0.3c-0.3,1.5-0.5,3-0.4,4.5c0.1,0.8,0.2,1.6,0.7,2.3
			c0.5,0.9,1.3,1.3,2.3,1.3c0.9,0,1.7-0.3,2.6-0.7c1.3-0.6,2.4-1.5,3.4-2.5c0.1-0.1,0.2-0.1,0.3,0c0.6,0.5,1.2,1.1,1.9,1.5
			c1.1,0.8,2.3,1.4,3.7,1.6c1.1,0.1,2.1-0.3,2.7-1.3c0.5-0.8,0.7-1.8,0.7-2.8c0.1-1.3-0.1-2.7-0.4-4c0-0.2,0-0.2,0.2-0.3
			c1.1-0.3,2.1-0.8,3.1-1.3c0.9-0.5,1.7-1.1,2.3-1.9C34.2,14.5,34.3,13.4,33.6,12.3z M20.2,4.7c1.2-1.1,2.5-2.1,4.1-2.6
			c0.3-0.1,0.6-0.1,0.9-0.1c0.6,0,1,0.3,1.3,0.8c0.3,0.5,0.4,1.1,0.4,1.7C27,5.7,26.8,7,26.5,8.3c0,0.1-0.1,0.2-0.2,0.1
			c-1.2-0.3-2.4-0.5-3.6-0.6c-0.1,0-0.2,0-0.2-0.1c-0.7-1-1.5-1.9-2.4-2.8C20.1,4.8,20.1,4.7,20.2,4.7z M12.2,17.7
			c0.2-0.7,0.5-1.5,0.8-2.3c0.5,1,1.1,1.9,1.7,2.9c-0.6-0.1-1.1-0.2-1.6-0.3c-0.2,0-0.5-0.1-0.7-0.2C12.2,17.9,12.2,17.8,12.2,17.7z
			 M12.4,9.7c0.7-0.2,1.5-0.3,2.3-0.4c-0.6,0.9-1.1,1.9-1.7,2.9c-0.2-0.4-0.3-0.8-0.4-1.1c-0.1-0.3-0.2-0.7-0.4-1
			C12.1,9.8,12.2,9.7,12.4,9.7z M14.2,15c-0.2-0.3-0.3-0.7-0.5-1c-0.1-0.1-0.1-0.2,0-0.3c0.7-1.6,1.6-3.1,2.6-4.5
			c0.1-0.1,0.1-0.1,0.2-0.1C17.4,9,18.3,9,19.2,9c0.9,0,1.7,0,2.6,0.1c0.1,0,0.2,0,0.2,0.1c1,1.4,1.9,2.9,2.6,4.5c0,0.1,0,0.2,0,0.3
			C23.8,15.5,23,17,22,18.4c-0.1,0.1-0.1,0.1-0.3,0.2c-1.2,0.1-2.4,0.1-3.6,0.1c-0.5,0-1-0.1-1.6-0.1c-0.1,0-0.2-0.1-0.2-0.2
			C15.6,17.3,14.9,16.2,14.2,15z M23.7,9.3c0.8,0.1,1.5,0.3,2.3,0.4c0.2,0,0.2,0.1,0.2,0.3c-0.2,0.7-0.5,1.4-0.7,2c0,0,0,0-0.1,0.1
			C24.8,11.2,24.3,10.2,23.7,9.3z M25.3,15.4c0.2,0.5,0.3,0.9,0.5,1.3c0.1,0.3,0.2,0.6,0.3,0.9c0,0.1,0.1,0.2-0.1,0.2
			c-0.8,0.2-1.5,0.3-2.4,0.5C24.3,17.4,24.8,16.4,25.3,15.4z M19,5.8c0.1-0.1,0.1-0.1,0.2,0c0.5,0.6,1.1,1.2,1.5,1.8c0,0,0,0,0,0.1
			c-1.1,0-2.2,0-3.3,0c0.2-0.3,0.4-0.6,0.6-0.8C18.4,6.5,18.7,6.1,19,5.8z M11.7,2.9c0.2-0.5,0.5-0.9,1.1-1c0.4-0.1,0.8,0,1.2,0.1
			C15,2.4,16,3,16.8,3.6c0.4,0.3,0.8,0.7,1.2,1c0.1,0.1,0.1,0.1,0,0.2c-0.8,0.9-1.6,1.8-2.3,2.8c-0.1,0.1-0.1,0.1-0.3,0.2
			c-1.2,0.1-2.4,0.3-3.6,0.6c-0.1,0-0.2,0-0.2-0.1c-0.2-1-0.4-2.1-0.4-3.1C11.4,4.4,11.4,3.7,11.7,2.9z M10.9,17.3
			c0,0.1-0.1,0.2-0.2,0.2c-1.1-0.4-2.3-0.8-3.3-1.5c-0.6-0.4-1.1-0.8-1.5-1.3c-0.4-0.6-0.4-1.1,0-1.6c0.4-0.6,0.9-1,1.5-1.4
			c1-0.6,2.1-1.1,3.3-1.5c0,0,0.1,0,0.1,0c0.1,0,0.1,0.1,0.1,0.1c0.3,1,0.6,1.9,1,2.8c0,0.1,0.1,0.2,0.1,0.3c0.2,0.3,0.2,0.6,0,0.9
			C11.6,15.3,11.2,16.3,10.9,17.3z M18.1,23c-1.2,1-2.4,2-3.9,2.5c-0.3,0.1-0.6,0.2-1,0.2c-0.6,0.1-1.1-0.2-1.4-0.8
			c-0.2-0.4-0.3-0.9-0.4-1.4c-0.1-0.4-0.1-0.8-0.1-1.3c0-0.9,0.1-1.9,0.3-2.9c0-0.2,0.1-0.2,0.2-0.1c1.1,0.3,2.3,0.5,3.5,0.6
			c0.1,0,0.2,0.1,0.3,0.2c0.7,1,1.5,1.9,2.3,2.8C18.2,22.9,18.2,22.9,18.1,23z M19.3,21.8c-0.1,0.1-0.1,0.1-0.2,0
			c-0.5-0.6-1-1.1-1.5-1.8c0,0,0,0-0.1-0.1c1.1,0.1,2.2,0.1,3.4,0c-0.2,0.3-0.4,0.6-0.7,0.8C19.9,21.1,19.6,21.5,19.3,21.8z
			 M26.6,24.7c-0.3,0.8-0.7,1-1.5,1c-0.4,0-0.7-0.1-1.1-0.2c-1.1-0.4-2-1-2.9-1.7c-0.3-0.2-0.6-0.5-0.9-0.8c-0.1-0.1-0.1-0.1,0-0.2
			c0.8-0.9,1.6-1.8,2.3-2.8c0.1-0.1,0.1-0.1,0.3-0.2c1.2-0.1,2.3-0.3,3.5-0.6c0.2,0,0.2,0,0.3,0.2c0.2,1,0.4,2,0.4,3
			C26.9,23.2,26.9,24,26.6,24.7z M32.3,14.8c-0.5,0.6-1.1,1-1.7,1.4c-0.9,0.5-1.9,0.9-2.9,1.2c-0.1,0-0.2,0-0.2-0.1
			c-0.3-1.2-0.8-2.3-1.3-3.4c0-0.1,0-0.2,0-0.2c0.5-1.1,0.9-2.2,1.2-3.4c0-0.1,0-0.2,0.2-0.1c1.2,0.4,2.4,0.9,3.5,1.6
			c0.5,0.4,1,0.8,1.4,1.4c0.1,0.2,0.2,0.4,0.2,0.7C32.7,14.2,32.5,14.5,32.3,14.8z"/>
		<path class="st0" d="M19.1,16.6c-1.5,0-2.8-1.2-2.8-2.8c0-1.5,1.3-2.8,2.8-2.8c1.5,0,2.8,1.3,2.8,2.8
			C21.9,15.4,20.7,16.6,19.1,16.6z"/>
	</g>
	<text transform="matrix(1 0 0 1 40.2649 20.9385)" class="st1 st2 st3">REACT</text>
</g>
</svg>
