<?xml version="1.0" encoding="utf-8"?>
<!-- Generator: Adobe Illustrator 22.0.0, SVG Export Plug-In . SVG Version: 6.00 Build 0)  -->
<svg version="1.1" id="Layer_1" xmlns="http://www.w3.org/2000/svg" xmlns:xlink="http://www.w3.org/1999/xlink" x="0px" y="0px"
	 viewBox="0 0 77 77" style="enable-background:new 0 0 77 77;" xml:space="preserve">
<style type="text/css">
	.st0{fill:#FFFFFF;}
	.st1{fill:#AF6038;}
</style>
<rect class="st0" width="77" height="77"/>
<g>
	<path class="st1" d="M77,77H0V0h77V77z M5,72h67V5H5V72z"/>
</g>
<g>
	<path class="st1" d="M15.2,37.7c0-4.5,4.1-8.3,9-8.3c2.8,0,5.1,1.2,6.6,2.9l-3.9,3.2c-0.6-0.7-1.7-1.2-2.8-1.2
		c-1.8,0-3.3,1.5-3.3,3.3c0,1.9,1.5,3.4,3.3,3.4c1,0,2.2-0.5,2.8-1.3l3.9,3.1c-1.6,1.8-3.8,3-6.8,3C19.3,46,15.2,42.2,15.2,37.7z"/>
	<path class="st1" d="M31.6,43.6l2.2-3.6c1.5,1.1,3.8,1.9,5.5,1.9c1.1,0,1.5-0.3,1.5-0.8c0-0.6-0.9-0.9-2.4-1.2
		c-2.9-0.6-6.1-1.3-6.1-5.1c0-3.1,2.5-5.4,6.6-5.4c2.4,0,4.8,0.9,6.6,2.1l-2,3.6c-1.3-0.9-3.1-1.7-4.6-1.7c-0.8,0-1.4,0.4-1.4,0.9
		s0.7,0.6,2.3,1c2.9,0.6,6.2,1.6,6.2,5.3c0,3.3-2.6,5.4-6.9,5.4C36.4,46,33.5,45.1,31.6,43.6z"/>
	<path class="st1" d="M47.1,43.6l2.2-3.6c1.5,1.1,3.8,1.9,5.5,1.9c1.1,0,1.5-0.3,1.5-0.8c0-0.6-0.9-0.9-2.4-1.2
		c-2.9-0.6-6.1-1.3-6.1-5.1c0-3.1,2.5-5.4,6.6-5.4c2.4,0,4.8,0.9,6.6,2.1l-2,3.6c-1.3-0.9-3.1-1.7-4.6-1.7c-0.8,0-1.4,0.4-1.4,0.9
		s0.7,0.6,2.3,1c2.9,0.6,6.2,1.6,6.2,5.3c0,3.3-2.6,5.4-6.9,5.4C51.9,46,49,45.1,47.1,43.6z"/>
</g>
<circle class="st1" cx="38.1" cy="57.4" r="1.6"/>
<circle class="st1" cx="31" cy="57.4" r="1.6"/>
<circle class="st1" cx="45.4" cy="57.4" r="1.6"/>
</svg>
