<?xml version="1.0" encoding="utf-8"?>
<!-- Generator: Adobe Illustrator 22.0.0, SVG Export Plug-In . SVG Version: 6.00 Build 0)  -->
<svg version="1.1" id="Layer_1" xmlns="http://www.w3.org/2000/svg" xmlns:xlink="http://www.w3.org/1999/xlink" x="0px" y="0px"
	 viewBox="0 0 77 77" style="enable-background:new 0 0 77 77;" xml:space="preserve">
<style type="text/css">
	.st0{fill:#FFFFFF;}
	.st1{fill:#AF6038;}
</style>
<rect class="st0" width="77" height="77"/>
<g>
	<path class="st1" d="M77,77H0V0h77V77z M5,72h67V5H5V72z"/>
</g>
<circle class="st1" cx="38.1" cy="57.4" r="1.6"/>
<circle class="st1" cx="31" cy="57.4" r="1.6"/>
<circle class="st1" cx="45.4" cy="57.4" r="1.6"/>
<g>
	<polygon class="st1" points="33.2,31.8 30.2,28.8 24.1,34.9 24.1,34.9 21.1,37.9 24.1,40.9 24.1,40.9 30.2,47 33.2,44 27.1,37.9 	
		"/>
	<polygon class="st1" points="58.3,37.9 55.3,34.9 55.3,34.9 49.2,28.8 46.2,31.8 52.3,37.9 46.2,44 49.2,47 55.3,40.9 55.3,40.9 	
		"/>
	<rect x="37.4" y="23.8" transform="matrix(0.9826 0.1855 -0.1855 0.9826 7.5199 -6.7317)" class="st1" width="4.6" height="26.1"/>
</g>
</svg>
