<?xml version="1.0" encoding="utf-8"?>
<!-- Generator: Adobe Illustrator 22.0.0, SVG Export Plug-In . SVG Version: 6.00 Build 0)  -->
<svg version="1.1" id="Layer_1" xmlns="http://www.w3.org/2000/svg" xmlns:xlink="http://www.w3.org/1999/xlink" x="0px" y="0px"
	 viewBox="0 0 77 77" style="enable-background:new 0 0 77 77;" xml:space="preserve">
<style type="text/css">
	.st0{fill:#FFFFFF;}
	.st1{fill:#AF6038;}
</style>
<rect class="st0" width="77" height="77"/>
<g>
	<path class="st1" d="M77,77H0V0h77V77z M5,72h67V5H5V72z"/>
</g>
<circle class="st1" cx="38.1" cy="57.4" r="1.6"/>
<circle class="st1" cx="31" cy="57.4" r="1.6"/>
<circle class="st1" cx="45.4" cy="57.4" r="1.6"/>
<g>
	<path class="st1" d="M36.3,43.4h-8.1L27,46.5h-7.4l8.9-23.2H36l8.9,23.2h-7.4L36.3,43.4z M34.5,38.6L32.3,33l-2.2,5.6H34.5z"/>
	<path class="st1" d="M46.7,23.8c0-1.8,1.5-3.3,3.4-3.3c1.8,0,3.3,1.6,3.3,3.3c0,1.8-1.5,3.4-3.3,3.4C48.2,27.2,46.7,25.6,46.7,23.8
		z M46.8,29h6.5v17.5h-6.5V29z"/>
</g>
</svg>
