<?xml version="1.0" encoding="utf-8"?>
<!-- Generator: Adobe Illustrator 22.0.0, SVG Export Plug-In . SVG Version: 6.00 Build 0)  -->
<svg version="1.1" id="Layer_1" xmlns="http://www.w3.org/2000/svg" xmlns:xlink="http://www.w3.org/1999/xlink" x="0px" y="0px"
	 viewBox="0 0 53 60" style="enable-background:new 0 0 53 60;" xml:space="preserve">
<style type="text/css">
	.st0{fill:#AF6038;}
</style>
<g>
	<path class="st0" d="M49.6,7.8c0-1.7-1.4-3.1-3.1-3.1h-40c-1.7,0-3.1,1.4-3.1,3.1L1.2,26.1h50.6L49.6,7.8z M4.8,23.3L6.7,9.7
		c0-1.3,1.2-2.3,2.6-2.3h34c1.4,0,2.6,1,2.6,2.3l1.8,13.6H4.8z"/>
	<polygon class="st0" points="51.8,31.1 51.8,27.6 1.2,27.6 1.2,31.1 25.5,31.1 25.5,52.7 15.2,52.7 15.2,55.3 38.6,55.3 38.6,52.7 
		28.1,52.7 28.1,31.1 	"/>
</g>
</svg>
