<?xml version="1.0" encoding="utf-8"?>
<!-- Generator: Adobe Illustrator 22.0.0, SVG Export Plug-In . SVG Version: 6.00 Build 0)  -->
<svg version="1.1" id="Layer_1" xmlns="http://www.w3.org/2000/svg" xmlns:xlink="http://www.w3.org/1999/xlink" x="0px" y="0px"
	 viewBox="0 0 41 41" style="enable-background:new 0 0 41 41;" xml:space="preserve">
<style type="text/css">
	.st0{fill:#AF6038;}
</style>
<g>
	<path class="st0" d="M0.1,37.8L0.1,37.8c0,1,0.4,1.7,1.1,2.2c0.5,0.6,1.2,1,2,1h19.6c1.5,0,2.7-1.2,2.7-2.7v-0.8
		c0-1.5-1.2-2.7-2.7-2.7H10.6l14-14c1.1-1,1.1-2.8,0-3.8l-0.5-0.5c-1.1-1.1-2.8-1.1-3.8,0L6.2,30.4V18.3c0-1.5-1.2-2.7-2.7-2.7H2.8
		c-1.5,0-2.7,1.2-2.7,2.7v19.3C0.1,37.7,0.1,37.7,0.1,37.8z"/>
	<path class="st0" d="M0.1,2v8c0,1.1,0.9,2,2,2h2.1c1.1,0,2-0.9,2-2V8.2c0-1.1,0.9-2,2-2h24.6c1.1,0,2,0.9,2,2v24.6c0,1.1-0.9,2-2,2
		H31c-1.1,0-2,0.9-2,2V39c0,1.1,0.9,2,2,2h8c1.1,0,2-0.9,2-2V2c0-1.1-0.9-2-2-2H2C0.9,0.1,0.1,0.9,0.1,2z"/>
</g>
</svg>
