<?xml version="1.0" encoding="utf-8"?>
<!-- Generator: Adobe Illustrator 22.0.0, SVG Export Plug-In . SVG Version: 6.00 Build 0)  -->
<svg version="1.1" id="Layer_1" xmlns="http://www.w3.org/2000/svg" xmlns:xlink="http://www.w3.org/1999/xlink" x="0px" y="0px"
	 viewBox="0 0 56 48" style="enable-background:new 0 0 56 48;" xml:space="preserve">
<style type="text/css">
	.st0{fill:#333333;}
</style>
<g>
	<path class="st0" d="M3.2,38.4c-0.9,0-1.7-0.1-2.4-0.5V46c0,0.9,0.8,1.7,1.7,1.7h6.3c0.9,0,1.7-0.8,1.7-1.7V34.1l-2.2,2.2
		C6.9,37.7,5.1,38.4,3.2,38.4z"/>
	<path class="st0" d="M18.6,25.9L15,29.5V46c0,0.9,0.8,1.7,1.7,1.7h6.2c1,0,1.7-0.8,1.7-1.7V31.9c-0.1-0.1-0.2-0.2-0.3-0.3
		L18.6,25.9z"/>
	<path class="st0" d="M29.1,33.8V46c0,0.9,0.8,1.7,1.7,1.7H37c1,0,1.7-0.8,1.7-1.7V27.2l-4.5,4.5C32.8,33.1,31,33.8,29.1,33.8z"/>
	<path class="st0" d="M47.1,18.9l-3.8,3.8V46c0,0.9,0.8,1.7,1.7,1.7h6.3c0.9,0,1.7-0.8,1.7-1.7V20.2c-0.5,0.1-1,0.2-1.6,0.2
		C49.8,20.4,48.3,19.9,47.1,18.9z"/>
	<path class="st0" d="M54.9,1.1c-0.6-0.6-1.4-0.9-2.2-0.7L42,2.1c-0.9,0.2-1.7,0.8-2,1.7c-0.3,0.9-0.1,1.9,0.6,2.6l2.5,2.5
		L29.3,22.7l-8.7-8.7c-1.1-1.1-2.9-1.1-4,0L1.2,29.3c-1.1,1.1-1.1,2.9,0,4c0.5,0.5,1.3,0.8,2,0.8c0.7,0,1.5-0.3,2-0.8l13.4-13.4
		l8.7,8.7c1.1,1.1,2.9,1.1,4,0L47,12.9l2.5,2.5c0.5,0.5,1.2,0.8,1.8,0.8c0.3,0,0.5-0.1,0.8-0.1c0.9-0.3,1.6-1.1,1.7-2l1.7-10.6
		C55.7,2.5,55.4,1.7,54.9,1.1z"/>
</g>
</svg>
