<?xml version="1.0" encoding="utf-8"?>
<!-- Generator: Adobe Illustrator 16.0.0, SVG Export Plug-In . SVG Version: 6.00 Build 0)  -->
<!DOCTYPE svg PUBLIC "-//W3C//DTD SVG 1.1//EN" "http://www.w3.org/Graphics/SVG/1.1/DTD/svg11.dtd">
<svg version="1.1" id="Layer_1" xmlns="http://www.w3.org/2000/svg" xmlns:xlink="http://www.w3.org/1999/xlink" x="0px" y="0px"
	 width="80.852px" height="69.5px" viewBox="0 0 80.852 69.5" enable-background="new 0 0 80.852 69.5" xml:space="preserve">
<g>
	<path fill="#333333" d="M2.629,47.569V9.384c0-3.021,2.4-5.422,5.422-5.422h56.54c3.021,0,5.422,2.4,5.422,5.422v11.852h-7.434
		v-9.914H10.064v34.234h40.122v7.514H42.44v6.039h4.338c0.695,0,1.316,0.621,1.316,1.318v3.793c0,0.699-0.621,1.318-1.316,1.318
		H25.942c-0.697,0-1.316-0.619-1.316-1.318v-3.793c0-0.697,0.619-1.318,1.316-1.318h4.337v-6.039H8.051
		C5.107,52.991,2.629,50.589,2.629,47.569z"/>
	<path fill="#333333" d="M46.622,19.53l-5.963-4.025c-0.311-0.234-0.775,0-0.775,0.385v2.168h-11.85
		c-1.007,0-1.858,0.854-1.858,1.861v9.758h3.718v-7.9h10.069v2.168c0,0.389,0.465,0.621,0.773,0.389l5.965-4.027
		C46.932,20.149,46.932,19.763,46.622,19.53z"/>
	<path fill="#333333" d="M32.061,31.769l-5.963,4.027c-0.311,0.232-0.311,0.619,0,0.773l5.963,4.029c0.31,0.232,0.775,0,0.775-0.389
		v-2.168h11.928c1.006,0,1.857-0.852,1.857-1.857v-9.76h-3.717v7.977H32.836v-2.168C32.758,31.845,32.37,31.614,32.061,31.769z"/>
	<path fill="#333333" d="M73.963,26.114H59.403c-2.324,0-4.262,2.014-4.262,4.414v1.316v28.426v0.775c0,2.4,1.938,4.414,4.262,4.414
		h14.561c2.324,0,4.26-2.014,4.26-4.414v-0.775v-1.549v-1.16V31.845v-1.316C78.223,28.128,76.288,26.114,73.963,26.114z
		 M72.393,36.259v17.574v0.795v1.059v0.529c0,1.641-0.957,3.018-2.109,3.018h-7.203c-1.15,0-2.107-1.377-2.107-3.018v-0.529V36.259
		V35.36c0-1.641,0.957-3.018,2.107-3.018h7.203c1.152,0,2.109,1.377,2.109,3.018V36.259z"/>
</g>
</svg>
