<?xml version="1.0" encoding="utf-8"?>
<!-- Generator: Adobe Illustrator 22.0.0, SVG Export Plug-In . SVG Version: 6.00 Build 0)  -->
<svg version="1.1" id="Layer_1" xmlns="http://www.w3.org/2000/svg" xmlns:xlink="http://www.w3.org/1999/xlink" x="0px" y="0px"
	 viewBox="0 0 80 70" style="enable-background:new 0 0 80 70;" xml:space="preserve">
<style type="text/css">
	.st0{fill:#333333;}
</style>
<g>
	<path class="st0" d="M73.6,1.9H6.5c-3.2,0-5.8,2.7-5.8,5.8v54.5c0,3.2,2.7,5.8,5.8,5.8h67c3.2,0,5.8-2.7,5.8-5.8V7.7
		C79.4,4.5,76.8,1.9,73.6,1.9z M25.5,7.9c1.4,0,2.5,1.2,2.5,2.5c0,1.4-1.2,2.5-2.5,2.5c-1.4,0-2.5-1.2-2.5-2.5
		C23.1,9,24.1,7.9,25.5,7.9z M17.9,7.9c1.4,0,2.5,1.2,2.5,2.5c0,1.4-1.2,2.5-2.5,2.5c-1.4,0-2.5-1.2-2.5-2.5
		C15.4,9,16.6,7.9,17.9,7.9z M10.3,7.9c1.4,0,2.5,1.2,2.5,2.5c0,1.4-1.2,2.5-2.5,2.5s-2.5-1.2-2.5-2.5C7.8,9,9,7.9,10.3,7.9z
		 M72.1,60.4c0,0.2-0.2,0.4-0.4,0.4H8.4c-0.2,0-0.4-0.2-0.4-0.4V19.1H72L72.1,60.4L72.1,60.4z"/>
	<path class="st0" d="M40,55.6c8.7,0,15.7-7,15.7-15.7c0-8.7-7-15.7-15.7-15.7c-8.7,0-15.7,7-15.7,15.7C24.3,48.6,31.3,55.6,40,55.6
		z M29.4,46.3H34c0.3,2,0.8,3.8,1.5,5.3C32.8,50.5,30.8,48.6,29.4,46.3z M27.5,39.9c0-1.1,0.2-2.1,0.4-3.1h5.6
		c-0.1,1-0.1,2.1-0.1,3.1c0,1,0.1,2.1,0.1,3.1h-5.6C27.7,42,27.5,41,27.5,39.9z M40,27.5c0.7,0,2.1,2.2,2.8,6.1h-5.6
		C38,29.6,39.4,27.5,40,27.5z M43.4,36.8c0.1,1,0.2,2,0.2,3.1c0,1.1-0.1,2.2-0.2,3.1h-6.6c-0.1-1-0.2-2-0.2-3.1
		c0-1.1,0.1-2.2,0.2-3.1H43.4z M52.6,39.9c0,1.1-0.2,2.1-0.4,3.1h-5.6c0.1-1,0.1-2.1,0.1-3.1c0-1-0.1-2.1-0.2-3.1h5.6
		C52.4,37.8,52.6,38.8,52.6,39.9z M40,52.4c-0.7,0-2.1-2.2-2.8-6.2h5.6C42.1,50.2,40.7,52.4,40,52.4z M44.6,51.5
		c0.7-1.5,1.2-3.3,1.5-5.3h4.6C49.3,48.6,47.2,50.5,44.6,51.5z M50.7,33.6h-4.6c-0.3-2-0.8-3.8-1.5-5.3
		C47.2,29.4,49.3,31.2,50.7,33.6z M35.5,28.3c-0.7,1.5-1.2,3.3-1.5,5.3h-4.6C30.8,31.2,32.8,29.4,35.5,28.3z"/>
</g>
</svg>
