<?xml version="1.0" encoding="utf-8"?>
<!-- Generator: Adobe Illustrator 22.0.0, SVG Export Plug-In . SVG Version: 6.00 Build 0)  -->
<svg version="1.1" id="Layer_1" xmlns="http://www.w3.org/2000/svg" xmlns:xlink="http://www.w3.org/1999/xlink" x="0px" y="0px"
	 viewBox="0 0 85 70" style="enable-background:new 0 0 85 70;" xml:space="preserve">
<style type="text/css">
	.st0{fill:#333333;}
</style>
<g>
	<path class="st0" d="M65.8,26.7V3.2c0-1.7-1.3-3-3-3H3.3c-1.7,0-3,1.3-3,3V48c0,1.7,1.3,3,3,3h38.2C42.9,61.6,52,69.8,63,69.8
		c12,0,21.7-9.7,21.7-21.7C84.7,37.1,76.4,28,65.8,26.7z M54.4,6.3L33,24.1L11.6,6.3H54.4z M6.3,9.6L31,30.3c0.5,0.4,1.2,0.7,2,0.7
		c0.7,0,1.3-0.3,2-0.7L59.7,9.6v17.1c-9.4,1.4-16.8,8.9-18.1,18.3H6.3V9.6z M63,63.8c-8.6,0-15.6-7-15.6-15.6s7-15.6,15.6-15.6
		c8.6,0,15.6,7,15.6,15.6S71.6,63.8,63,63.8z"/>
	<path class="st0" d="M67,42.4l-5.9,6.3l-2.7-2.8c-1.2-1.2-3-1.2-4.3-0.2C53,46.9,53,48.7,54,50l4.8,5.2c0.5,0.6,1.3,1,2.2,1
		c0.9,0,1.6-0.4,2.2-1l8.1-8.6c1.2-1.2,1.1-3.1-0.2-4.3C70,41.1,68.2,41.2,67,42.4z"/>
</g>
</svg>
