<?xml version="1.0" encoding="utf-8"?>
<!-- Generator: Adobe Illustrator 22.0.0, SVG Export Plug-In . SVG Version: 6.00 Build 0)  -->
<svg version="1.1" id="Layer_1" xmlns="http://www.w3.org/2000/svg" xmlns:xlink="http://www.w3.org/1999/xlink" x="0px" y="0px"
	 viewBox="0 0 61 56" style="enable-background:new 0 0 61 56;" xml:space="preserve">
<style type="text/css">
	.st0{fill:#333333;}
</style>
<g>
	<path class="st0" d="M15.2,42.5L8.8,41c-4.3-1-7.3-4.7-7.3-9.1V17.8c0-0.4-0.3-0.7-0.7-0.7c-0.4,0-0.7,0.3-0.7,0.7v14.1
		c0,5,3.4,9.3,8.3,10.5l6.4,1.5c0.1,0,0.1,0,0.2,0c0.3,0,0.6-0.2,0.7-0.5C15.8,42.9,15.6,42.6,15.2,42.5z"/>
	<path class="st0" d="M60.1,17.1c-0.4,0-0.7,0.3-0.7,0.7v14.1c0,4.4-3,8.1-7.3,9.1l-6.4,1.5c-0.4,0.1-0.6,0.5-0.5,0.8
		c0.1,0.3,0.4,0.5,0.7,0.5c0.1,0,0.1,0,0.2,0l6.4-1.5c4.9-1.1,8.3-5.4,8.3-10.5V17.8C60.8,17.4,60.5,17.1,60.1,17.1z"/>
	<path class="st0" d="M2.4,6c0,3.1,2.5,5.6,5.6,5.6c3.1,0,5.6-2.5,5.6-5.6c0-3.1-2.5-5.6-5.6-5.6C5,0.3,2.4,2.9,2.4,6z"/>
	<path class="st0" d="M19.6,33.5l-6-1.4c-0.5-0.1-0.8-0.5-0.8-1.1V17.8c0-2.6-2.1-4.7-4.6-4.7c-2.6,0-4.7,2.1-4.7,4.7v14.1
		c0,3.5,2.4,6.5,5.8,7.3l7.5,1.7c0.5,0.1,0.8,0.6,0.8,1.1v9.7c0,2.2,1.8,3.9,3.9,3.9s3.9-1.8,3.9-3.9V40.9
		C25.4,37.3,23,34.3,19.6,33.5z"/>
	<path class="st0" d="M52.9,11.6c3.1,0,5.6-2.5,5.6-5.6c0-3.1-2.5-5.6-5.6-5.6c-3.1,0-5.6,2.5-5.6,5.6C47.3,9.1,49.8,11.6,52.9,11.6
		z"/>
	<path class="st0" d="M57.6,31.9V17.8c0-2.6-2.1-4.7-4.6-4.7s-4.7,2.1-4.7,4.7v13.3c0,0.5-0.3,0.9-0.8,1.1l-6,1.4
		c-3.4,0.8-5.8,3.8-5.8,7.3v10.9c0,2.2,1.8,3.9,3.9,3.9c2.2,0,3.9-1.8,3.9-3.9V42c0-0.5,0.3-0.9,0.8-1.1l7.5-1.7
		C55.2,38.4,57.6,35.4,57.6,31.9z"/>
	<path class="st0" d="M21.5,29.8h17.9c1.4,0,2.5-1.1,2.5-2.5c0-1.4-1.1-2.5-2.5-2.5H21.5c-1.4,0-2.5,1.1-2.5,2.5
		C19,28.7,20.2,29.8,21.5,29.8z"/>
</g>
</svg>
