<?xml version="1.0" encoding="utf-8"?>
<!-- Generator: Adobe Illustrator 16.0.0, SVG Export Plug-In . SVG Version: 6.00 Build 0)  -->
<!DOCTYPE svg PUBLIC "-//W3C//DTD SVG 1.1//EN" "http://www.w3.org/Graphics/SVG/1.1/DTD/svg11.dtd">
<svg version="1.1" id="Layer_1" xmlns="http://www.w3.org/2000/svg" xmlns:xlink="http://www.w3.org/1999/xlink" x="0px" y="0px"
	 width="88px" height="57.777px" viewBox="0 0 88 57.777" enable-background="new 0 0 88 57.777" xml:space="preserve">
<g>
	<g>
		<circle fill="#333333" cx="24.252" cy="22.52" r="7.203"/>
		<path fill="#333333" d="M33.52,40.445l-0.281-2.48c-0.446-3.564-3.416-6.164-6.98-6.164h-4.011c-3.564,0-6.534,2.674-6.979,6.164
			l-0.306,2.48H33.52z"/>
	</g>
	<g>
		<path fill="#333333" d="M74.043,56.916H13.958c-6.184,0-11.215-5.031-11.215-11.215V12.074c0-6.182,5.031-11.213,11.215-11.213
			h60.086c6.184,0,11.215,5.031,11.215,11.213v33.627C85.258,51.885,80.227,56.916,74.043,56.916z M13.958,4.488
			c-4.184,0-7.587,3.404-7.587,7.586v33.627c0,4.184,3.403,7.588,7.587,7.588h60.086c4.184,0,7.586-3.404,7.586-7.588V12.074
			c0-4.182-3.402-7.586-7.586-7.586H13.958z"/>
	</g>
	<g>
		<path fill="#333333" d="M68.565,20.127H47.102c-1.002,0-1.814-0.813-1.814-1.814s0.813-1.814,1.814-1.814h21.463
			c1.002,0,1.814,0.813,1.814,1.814S69.567,20.127,68.565,20.127z"/>
	</g>
	<g>
		<path fill="#333333" d="M68.565,28.924H47.102c-1.002,0-1.814-0.813-1.814-1.814s0.813-1.813,1.814-1.813h21.463
			c1.002,0,1.814,0.811,1.814,1.813S69.567,28.924,68.565,28.924z"/>
	</g>
	<g>
		<path fill="#333333" d="M68.565,37.721H47.102c-1.002,0-1.814-0.813-1.814-1.814s0.813-1.813,1.814-1.813h21.463
			c1.002,0,1.814,0.811,1.814,1.813S69.567,37.721,68.565,37.721z"/>
	</g>
</g>
</svg>
