<?xml version="1.0" encoding="utf-8"?>
<!-- Generator: Adobe Illustrator 16.0.0, SVG Export Plug-In . SVG Version: 6.00 Build 0)  -->
<!DOCTYPE svg PUBLIC "-//W3C//DTD SVG 1.1//EN" "http://www.w3.org/Graphics/SVG/1.1/DTD/svg11.dtd">
<svg version="1.1" id="Layer_1" xmlns="http://www.w3.org/2000/svg" xmlns:xlink="http://www.w3.org/1999/xlink" x="0px" y="0px"
	 width="59.271px" height="58.334px" viewBox="0 0 59.271 58.334" enable-background="new 0 0 59.271 58.334" xml:space="preserve">
<g>
	<path fill="#333333" d="M29,49.274c-0.209,0.29-0.424,0.573-0.652,0.856c-4.496-5.657-7.215-12.52-7.811-19.72h8.389
		c0.154-0.186,0.309-0.376,0.469-0.555c1.374-1.5,3.054-2.693,4.924-3.496c0.313-0.129,0.615-0.252,0.947-0.363H20.537
		c0.588-7.215,3.307-14.091,7.811-19.758c4.441,5.59,7.15,12.357,7.793,19.469c1.285-0.364,2.615-0.549,3.951-0.547h0.424
		C39.86,18.13,37.396,11.39,33.363,5.594C43.142,7.786,50.407,16.007,51.38,25.98h-6.481c1.061,0.367,2.077,0.855,3.027,1.452
		c1.282,0.811,2.431,1.815,3.403,2.979h0.051c0.003,0.02,0.003,0.04,0,0.061c0.216,0.259,0.431,0.512,0.614,0.782
		c1.087,1.531,1.868,3.257,2.303,5.083c0.055,0.223,0.104,0.45,0.147,0.672c4.878-14.43-2.865-30.082-17.296-34.959
		C22.719-2.829,7.066,4.916,2.188,19.345c-4.877,14.429,2.866,30.082,17.297,34.958c5.852,1.979,12.197,1.935,18.021-0.123
		c-3.309-0.617-6.31-2.34-8.512-4.888L29,49.274z M23.331,5.576c-4.191,6.031-6.685,13.078-7.22,20.404H5.316
		c0.973-9.973,8.238-18.194,18.015-20.386V5.576z M5.316,30.411h10.795c0.541,7.309,3.035,14.341,7.22,20.359
		C13.561,48.585,6.295,40.375,5.316,30.411z"/>
	<path fill="#333333" d="M58.347,52.71c-2.727-2.346-5.392-4.746-8.105-7.146c1.494-2.584,1.923-5.648,1.194-8.543
		c-0.677-2.949-2.511-5.503-5.09-7.084c-5.434-3.45-12.633-1.843-16.083,3.588c-2.574,4.053-2.398,9.27,0.442,13.141
		c3.336,4.58,10.162,6.457,15.511,3.078c0.468,0.363,0.88,0.677,1.28,1.003c0.222,0.179,0.424,0.376,0.615,0.56
		c2.184,1.934,4.365,3.866,6.549,5.799c0.908,0.875,2.354,0.85,3.229-0.059c0.039-0.041,0.077-0.083,0.113-0.126
		c0.172-0.191,0.326-0.388,0.512-0.561c0.968-0.911,1.015-2.434,0.104-3.401C58.535,52.868,58.443,52.784,58.347,52.71z
		 M40.109,46.948c-3.967-0.003-7.18-3.222-7.177-7.189c0.004-3.966,3.222-7.18,7.189-7.176s7.181,3.223,7.177,7.189
		c0,0.004,0,0.008,0,0.008c0,3.961-3.207,7.168-7.164,7.168C40.126,46.948,40.119,46.948,40.109,46.948z"/>
</g>
</svg>
