<?xml version="1.0" encoding="utf-8"?>
<!-- Generator: Adobe Illustrator 16.0.0, SVG Export Plug-In . SVG Version: 6.00 Build 0)  -->
<!DOCTYPE svg PUBLIC "-//W3C//DTD SVG 1.1//EN" "http://www.w3.org/Graphics/SVG/1.1/DTD/svg11.dtd">
<svg version="1.1" id="Layer_1" xmlns="http://www.w3.org/2000/svg" xmlns:xlink="http://www.w3.org/1999/xlink" x="0px" y="0px"
	 width="100px" height="58.334px" viewBox="0 0 100 58.334" enable-background="new 0 0 100 58.334" xml:space="preserve">
<g>
	<g>
		<path fill="#333333" d="M73.58,55.215H53.029c-1.361,0-2.467-1.105-2.467-2.469c0-1.361,1.106-2.467,2.467-2.467h18.084V8.054
			H28.887v17.453c0,1.363-1.105,2.468-2.468,2.468s-2.467-1.104-2.467-2.467V5.587c0-1.363,1.104-2.468,2.468-2.468h47.16
			c1.361,0,2.467,1.104,2.467,2.468v47.159C76.047,54.109,74.941,55.215,73.58,55.215z"/>
	</g>
	<g>
		<g>
			<path fill="#333333" d="M65.172,16.46v9.03c0,1.363-1.104,2.468-2.469,2.468c-1.363,0-2.467-1.104-2.467-2.468v-3.071
				L49.93,32.727c-0.481,0.48-1.11,0.721-1.746,0.721c-0.629,0-1.258-0.24-1.739-0.721c-0.969-0.963-0.969-2.529,0-3.492
				l10.301-10.308H53.68c-1.363,0-2.467-1.104-2.467-2.467s1.104-2.468,2.467-2.468h9.023C64.066,13.993,65.172,15.097,65.172,16.46
				z"/>
		</g>
	</g>
	<g>
		<path fill="#333333" d="M43.383,55.215H26.42c-1.363,0-2.468-1.105-2.468-2.467V35.785c0-1.363,1.104-2.467,2.468-2.467h16.963
			c1.362,0,2.467,1.104,2.467,2.467v16.963C45.85,54.109,44.746,55.215,43.383,55.215z M28.887,50.279h12.027V38.252H28.887V50.279z
			"/>
	</g>
</g>
</svg>
