<?xml version="1.0" encoding="utf-8"?>
<!-- Generator: Adobe Illustrator 16.0.0, SVG Export Plug-In . SVG Version: 6.00 Build 0)  -->
<!DOCTYPE svg PUBLIC "-//W3C//DTD SVG 1.1//EN" "http://www.w3.org/Graphics/SVG/1.1/DTD/svg11.dtd">
<svg version="1.1" id="Layer_1" xmlns="http://www.w3.org/2000/svg" xmlns:xlink="http://www.w3.org/1999/xlink" x="0px" y="0px"
	 width="80.852px" height="69.5px" viewBox="0 0 80.852 69.5" enable-background="new 0 0 80.852 69.5" xml:space="preserve">
<g>
	<path fill="#333333" d="M70.019,12.868l-7.711-7.711c-0.828-0.828-1.949-1.293-3.119-1.293H13.952
		c-2.437,0-4.411,1.977-4.411,4.412v52.947c0,2.438,1.975,4.412,4.411,4.412h52.946c2.438,0,4.414-1.975,4.414-4.412V15.987
		C71.312,14.817,70.847,13.696,70.019,12.868z M43.367,9.747c0-0.811,0.66-1.471,1.471-1.471h4.412c0.813,0,1.471,0.66,1.471,1.471
		v8.826c0,0.811-0.658,1.471-1.471,1.471h-4.412c-0.811,0-1.471-0.66-1.471-1.471V9.747z M66.898,59.753
		c0,0.813-0.656,1.471-1.469,1.471H15.424c-0.813,0-1.473-0.658-1.473-1.471V9.747c0-0.811,0.66-1.471,1.473-1.471h7.354
		c0.813,0,1.47,0.66,1.47,1.471v10.297c0,2.436,1.976,4.41,4.413,4.41h23.532c2.436,0,4.41-1.975,4.41-4.41V9.569
		c0-0.715,0.58-1.293,1.293-1.293h0.684c0.391,0,0.764,0.156,1.039,0.432l6.85,6.85c0.275,0.275,0.43,0.648,0.43,1.039V59.753z"/>
	<circle fill="#333333" cx="40.425" cy="42.84" r="10.296"/>
</g>
</svg>
