<?xml version="1.0" encoding="utf-8"?>
<!-- Generator: Adobe Illustrator 22.0.0, SVG Export Plug-In . SVG Version: 6.00 Build 0)  -->
<svg version="1.1" id="Layer_1" xmlns="http://www.w3.org/2000/svg" xmlns:xlink="http://www.w3.org/1999/xlink" x="0px" y="0px"
	 viewBox="0 0 60 60" style="enable-background:new 0 0 60 60;" xml:space="preserve">
<style type="text/css">
	.st0{fill:#333333;}
</style>
<g>
	<path class="st0" d="M57.1,1.1H2.9c-1,0-1.8,0.8-1.8,1.8v54.3c0,1,0.8,1.8,1.8,1.8h28.9v-3.6H4.7V40.9h28.9v-3.6H4.7V22.8h50.7V39
		h3.6V2.9C58.9,1.9,58.1,1.1,57.1,1.1z M4.7,19.1V4.7h50.7v14.5H4.7z"/>
	<rect x="8.3" y="10.1" class="st0" width="10.9" height="3.6"/>
	<rect x="10.1" y="28.2" class="st0" width="32.6" height="3.6"/>
	<rect x="46.3" y="28.2" class="st0" width="3.6" height="3.6"/>
	<rect x="10.1" y="46.3" class="st0" width="3.6" height="3.6"/>
	<rect x="17.3" y="46.3" class="st0" width="3.6" height="3.6"/>
	<rect x="24.6" y="46.3" class="st0" width="3.6" height="3.6"/>
	<rect x="22.8" y="10.1" class="st0" width="3.6" height="3.6"/>
	<rect x="30" y="10.1" class="st0" width="3.6" height="3.6"/>
	<rect x="37.2" y="10.1" class="st0" width="3.6" height="3.6"/>
	<rect x="44.5" y="10.1" class="st0" width="3.6" height="3.6"/>
	<path class="st0" d="M43.2,36L36,43.2l2.6,2.6l4.2-4.1v17.3h3.6V41.6l4.1,4.1l2.6-2.6L45.7,36C45,35.3,43.9,35.3,43.2,36z"/>
</g>
</svg>
