<?xml version="1.0" encoding="utf-8"?>
<!-- Generator: Adobe Illustrator 22.0.0, SVG Export Plug-In . SVG Version: 6.00 Build 0)  -->
<svg version="1.1" id="Layer_1" xmlns="http://www.w3.org/2000/svg" xmlns:xlink="http://www.w3.org/1999/xlink" x="0px" y="0px"
	 viewBox="0 0 58.1 34.9" style="enable-background:new 0 0 58.1 34.9;" xml:space="preserve">
<style type="text/css">
	.st0{fill:#FFFFFF;}
</style>
<g>
	<g>
		<path class="st0" d="M31.8,30.5h-8.1V18.5l-6.2,11.1l-6.2-11.1v12.1H3.1V4.3H11l6.5,11.5l6.5-11.5h7.9V30.5z M24.7,29.5h6.1V5.3
			h-6.3l-7,12.6l-7-12.6H4.1v24.2h6.1V14.6l7.2,12.9l7.2-12.9V29.5z"/>
	</g>
	<g>
		<path class="st0" d="M56.5,30.5H35.2V4.3h21.3v7.3H43.3v1.8h12v7.3h-12v2.3h13.2V30.5z M36.2,29.5h19.3v-5.3H42.3v-4.3h12v-5.3
			h-12v-3.8h13.2V5.3H36.2V29.5z"/>
	</g>
</g>
</svg>
