<?xml version="1.0" encoding="utf-8"?>
<!-- Generator: Adobe Illustrator 22.0.0, SVG Export Plug-In . SVG Version: 6.00 Build 0)  -->
<svg version="1.1" id="Layer_1" xmlns="http://www.w3.org/2000/svg" xmlns:xlink="http://www.w3.org/1999/xlink" x="0px" y="0px"
	 viewBox="0 0 85 82.3" style="enable-background:new 0 0 85 82.3;" xml:space="preserve">
<style type="text/css">
	.st0{fill:#FF9B45;}
	.st1{fill:url(#SVGID_1_);}
	.st2{fill:url(#SVGID_2_);}
</style>
<g>
	<path class="st0" d="M74.6,26.9c0.1-0.2,0.3-0.4,0.6-0.6c0.2-0.1,0.5-0.2,0.8-0.2l0.1,0v0.3l-0.1,0c-0.2,0-0.4,0.1-0.6,0.2
		c-0.2,0.1-0.3,0.2-0.5,0.4c-0.1,0.2-0.2,0.4-0.2,0.7c0,0.4,0.1,0.8,0.4,1s0.6,0.4,1.1,0.4h4.7v0.3h-4.7c-0.6,0-1-0.2-1.3-0.5
		s-0.5-0.7-0.5-1.3C74.4,27.5,74.4,27.1,74.6,26.9z"/>
	<path class="st0" d="M80.8,30.7v3.7h-0.3v-3.4h-2.6v3.2h-0.3v-3.2h-2.8v3.4h-0.3v-3.7H80.8z"/>
	<path class="st0" d="M74.8,36.5c0.3-0.4,0.6-0.8,1.1-1c0.5-0.2,1.1-0.3,1.8-0.3h0c0.7,0,1.3,0.1,1.7,0.3c0.5,0.2,0.9,0.6,1.1,1
		s0.4,0.9,0.4,1.5c0,0.6-0.1,1.1-0.4,1.5c-0.3,0.4-0.6,0.8-1.1,1c-0.5,0.2-1.1,0.3-1.7,0.3h0c-0.7,0-1.3-0.1-1.8-0.3
		c-0.5-0.2-0.9-0.6-1.1-1c-0.3-0.4-0.4-0.9-0.4-1.5S74.5,36.9,74.8,36.5z M75,39.3c0.2,0.4,0.6,0.7,1,0.9c0.4,0.2,1,0.3,1.6,0.3h0
		c0.6,0,1.1-0.1,1.6-0.3s0.8-0.5,1-0.9s0.4-0.8,0.4-1.3c0-0.5-0.1-0.9-0.4-1.3s-0.6-0.7-1-0.9c-0.4-0.2-1-0.3-1.6-0.3h0
		c-0.6,0-1.1,0.1-1.6,0.3c-0.4,0.2-0.8,0.5-1,0.9c-0.2,0.4-0.4,0.8-0.4,1.3C74.7,38.5,74.8,39,75,39.3z"/>
	<path class="st0" d="M80.8,41.7v0.4l-6.3,4.4L75,46v0.2h5.8v0.3h-6.4v-0.4l6.3-4.4l-0.5,0.5v-0.2h-5.8v-0.3H80.8z"/>
	<path class="st0" d="M74.6,48.5c0.1-0.3,0.4-0.6,0.6-0.8s0.6-0.3,0.9-0.3l0.1,0v0.3l-0.1,0c-0.3,0-0.5,0.1-0.8,0.3
		c-0.2,0.2-0.4,0.4-0.5,0.7c-0.1,0.3-0.2,0.6-0.2,1c0,0.4,0.1,0.7,0.2,1c0.1,0.3,0.3,0.5,0.5,0.6c0.2,0.2,0.5,0.2,0.7,0.2h0
		c0.4,0,0.6-0.1,0.9-0.4c0.2-0.2,0.4-0.6,0.5-1.2l0.2-0.7c0.1-0.6,0.3-1.1,0.6-1.3c0.3-0.3,0.6-0.4,1-0.4h0c0.3,0,0.6,0.1,0.9,0.3
		c0.3,0.2,0.4,0.4,0.6,0.7c0.1,0.3,0.2,0.7,0.2,1.1c0,0.4-0.1,0.8-0.2,1.1c-0.1,0.3-0.4,0.6-0.6,0.8c-0.3,0.2-0.6,0.3-0.9,0.3
		l-0.1,0v-0.3l0.1,0c0.3,0,0.5-0.1,0.8-0.3c0.2-0.2,0.4-0.4,0.5-0.6c0.1-0.3,0.2-0.6,0.2-0.9c0-0.3-0.1-0.6-0.2-0.9
		c-0.1-0.3-0.3-0.5-0.5-0.6s-0.4-0.2-0.7-0.2h0c-0.3,0-0.6,0.1-0.8,0.4c-0.2,0.2-0.4,0.6-0.5,1.1l-0.2,0.7c-0.1,0.6-0.4,1.1-0.6,1.4
		c-0.3,0.3-0.6,0.4-1.1,0.4h0c-0.3,0-0.7-0.1-0.9-0.3c-0.3-0.2-0.5-0.4-0.6-0.8s-0.2-0.7-0.2-1.2C74.4,49.2,74.4,48.8,74.6,48.5z"/>
	<path class="st0" d="M80.8,52.7v3.7h-0.3V53h-2.6v3.2h-0.3V53h-2.8v3.4h-0.3v-3.7H80.8z"/>
	<path class="st0" d="M80.8,57.4v0.3h-3v4h3v0.3h-6.4v-0.3h3.1v-4h-3.1v-0.3H80.8z"/>
	<path class="st0" d="M74.8,64.4c0.3-0.4,0.6-0.8,1.1-1c0.5-0.2,1.1-0.3,1.8-0.3h0c0.7,0,1.3,0.1,1.7,0.3c0.5,0.2,0.9,0.6,1.1,1
		s0.4,0.9,0.4,1.5c0,0.6-0.1,1.1-0.4,1.5c-0.3,0.4-0.6,0.8-1.1,1c-0.5,0.2-1.1,0.3-1.7,0.3h0c-0.7,0-1.3-0.1-1.8-0.3
		c-0.5-0.2-0.9-0.6-1.1-1c-0.3-0.4-0.4-0.9-0.4-1.5S74.5,64.8,74.8,64.4z M75,67.2c0.2,0.4,0.6,0.7,1,0.9c0.4,0.2,1,0.3,1.6,0.3h0
		c0.6,0,1.1-0.1,1.6-0.3s0.8-0.5,1-0.9c0.2-0.4,0.4-0.8,0.4-1.3c0-0.5-0.1-0.9-0.4-1.3s-0.6-0.7-1-0.9c-0.4-0.2-1-0.3-1.6-0.3h0
		c-0.6,0-1.1,0.1-1.6,0.3c-0.4,0.2-0.8,0.5-1,0.9c-0.2,0.4-0.4,0.8-0.4,1.3C74.7,66.4,74.8,66.8,75,67.2z"/>
	<path class="st0" d="M74.8,70.7c0.3-0.4,0.6-0.8,1.1-1c0.5-0.2,1.1-0.3,1.8-0.3h0c0.7,0,1.3,0.1,1.7,0.3c0.5,0.2,0.9,0.6,1.1,1
		s0.4,0.9,0.4,1.5c0,0.6-0.1,1.1-0.4,1.5c-0.3,0.4-0.6,0.8-1.1,1c-0.5,0.2-1.1,0.3-1.7,0.3h0c-0.7,0-1.3-0.1-1.8-0.3
		c-0.5-0.2-0.9-0.6-1.1-1c-0.3-0.4-0.4-0.9-0.4-1.5S74.5,71.1,74.8,70.7z M75,73.5c0.2,0.4,0.6,0.7,1,0.9c0.4,0.2,1,0.3,1.6,0.3h0
		c0.6,0,1.1-0.1,1.6-0.3s0.8-0.5,1-0.9c0.2-0.4,0.4-0.8,0.4-1.3c0-0.5-0.1-0.9-0.4-1.3s-0.6-0.7-1-0.9c-0.4-0.2-1-0.3-1.6-0.3h0
		c-0.6,0-1.1,0.1-1.6,0.3c-0.4,0.2-0.8,0.5-1,0.9c-0.2,0.4-0.4,0.8-0.4,1.3C74.7,72.7,74.8,73.1,75,73.5z"/>
	<path class="st0" d="M80.8,75.9v0.4l-6.3,4.4l0.5-0.5v0.2h5.8v0.3h-6.4v-0.4l6.3-4.4l-0.5,0.5v-0.2h-5.8v-0.3H80.8z"/>
</g>
<g>
	<path class="st0" d="M25.5,59.4c-1.3-0.6-2.3-1.6-3-2.8c-0.7-1.2-1-2.6-1-4.3v0h6.1v0c0,0.6,0.1,1.1,0.3,1.5
		c0.2,0.4,0.5,0.7,0.8,0.9s0.8,0.3,1.2,0.3c0.7,0,1.2-0.2,1.6-0.7c0.4-0.4,0.5-1.1,0.5-2V38.3h6.4v14.1c0,2.5-0.7,4.5-2.2,5.8
		c-1.5,1.4-3.5,2.1-6.2,2.1C28.3,60.4,26.8,60.1,25.5,59.4z"/>
	<path class="st0" d="M45.7,59.6c-1.4-0.5-2.4-1.3-3.2-2.3s-1.2-2.2-1.3-3.6l0-0.3h5.9l0,0.1c0.1,0.4,0.3,0.7,0.6,1
		c0.3,0.3,0.7,0.5,1.2,0.7s1,0.2,1.7,0.2c0.6,0,1.2-0.1,1.6-0.2c0.5-0.2,0.8-0.4,1.1-0.7s0.4-0.6,0.4-1v0c0-0.5-0.2-0.9-0.7-1.2
		s-1.3-0.5-2.5-0.7l-2.2-0.4c-2.2-0.4-3.8-1.1-4.9-2.2c-1.1-1.1-1.7-2.4-1.7-4.1v0c0-1.5,0.4-2.7,1.1-3.8s1.8-1.9,3.2-2.5
		c1.3-0.6,2.9-0.9,4.6-0.9c1.9,0,3.6,0.3,4.9,0.8c1.3,0.5,2.3,1.3,3,2.3c0.7,1,1.1,2.2,1.1,3.5l0,0.3h-5.9l0-0.2
		c0-0.4-0.2-0.7-0.5-1c-0.3-0.3-0.6-0.5-1.1-0.7c-0.5-0.2-1-0.2-1.6-0.2s-1.1,0.1-1.5,0.2s-0.7,0.4-0.9,0.6
		c-0.2,0.3-0.3,0.6-0.3,0.9v0c0,0.5,0.2,0.9,0.7,1.1c0.5,0.3,1.3,0.5,2.4,0.7l2.2,0.4c2.3,0.4,4,1.1,5.2,2.1c1.1,1,1.7,2.4,1.7,4.1
		v0c0,1.5-0.4,2.8-1.1,3.9c-0.7,1.1-1.8,1.9-3.2,2.5c-1.4,0.6-3.1,0.9-5.1,0.9C48.7,60.4,47.1,60.1,45.7,59.6z"/>
</g>
<g>
	<linearGradient id="SVGID_1_" gradientUnits="userSpaceOnUse" x1="2.8584" y1="35.9846" x2="71.3408" y2="35.9846">
		<stop  offset="0" style="stop-color:#FC6C32"/>
		<stop  offset="1" style="stop-color:#FF9B45"/>
	</linearGradient>
	<path class="st1" d="M71.3,70.2H2.9V1.7h68.5V70.2z M6.9,66.2h60.5V5.7H6.9V66.2z"/>
</g>
<g>
	<linearGradient id="SVGID_2_" gradientUnits="userSpaceOnUse" x1="2.8203" y1="78.4648" x2="71.1533" y2="78.4648">
		<stop  offset="0" style="stop-color:#FC6C32"/>
		<stop  offset="1" style="stop-color:#FF9B45"/>
	</linearGradient>
	<rect x="2.8" y="75.5" class="st2" width="68.3" height="6"/>
</g>
</svg>
